ISO-10303-21;
HEADER;
FILE_DESCRIPTION(('FreeCAD Model'),'2;1');
FILE_NAME('Open CASCADE Shape Model','2026-02-20T19:46:51',('Author'),(
    ''),'Open CASCADE STEP processor 7.8','FreeCAD','Unknown');
FILE_SCHEMA(('AUTOMOTIVE_DESIGN { 1 0 10303 214 1 1 1 1 }'));
ENDSEC;
DATA;
#1 = APPLICATION_PROTOCOL_DEFINITION('international standard',
  'automotive_design',2000,#2);
#2 = APPLICATION_CONTEXT(
  'core data for automotive mechanical design processes');
#3 = SHAPE_DEFINITION_REPRESENTATION(#4,#10);
#4 = PRODUCT_DEFINITION_SHAPE('','',#5);
#5 = PRODUCT_DEFINITION('design','',#6,#9);
#6 = PRODUCT_DEFINITION_FORMATION('','',#7);
#7 = PRODUCT('Fillet002','Fillet002','',(#8));
#8 = PRODUCT_CONTEXT('',#2,'mechanical');
#9 = PRODUCT_DEFINITION_CONTEXT('part definition',#2,'design');
#10 = ADVANCED_BREP_SHAPE_REPRESENTATION('',(#11,#15),#575);
#11 = AXIS2_PLACEMENT_3D('',#12,#13,#14);
#12 = CARTESIAN_POINT('',(0.,0.,0.));
#13 = DIRECTION('',(0.,0.,1.));
#14 = DIRECTION('',(1.,0.,-0.));
#15 = MANIFOLD_SOLID_BREP('',#16);
#16 = CLOSED_SHELL('',(#17,#92,#123,#148,#173,#197,#221,#313,#338,#423,
    #439,#461,#478,#495,#507,#529,#546,#563));
#17 = ADVANCED_FACE('',(#18),#87,.T.);
#18 = FACE_BOUND('',#19,.T.);
#19 = EDGE_LOOP('',(#20,#30,#39,#47,#56,#64,#72,#80));
#20 = ORIENTED_EDGE('',*,*,#21,.F.);
#21 = EDGE_CURVE('',#22,#24,#26,.T.);
#22 = VERTEX_POINT('',#23);
#23 = CARTESIAN_POINT('',(1.,-88.40457451388,4.929644165868E-14));
#24 = VERTEX_POINT('',#25);
#25 = CARTESIAN_POINT('',(14.,-88.40457451388,5.21830215227E-14));
#26 = LINE('',#27,#28);
#27 = CARTESIAN_POINT('',(-9.814879410751E-15,-88.40457451388,
    4.907439705375E-14));
#28 = VECTOR('',#29,1.);
#29 = DIRECTION('',(1.,-5.551115123126E-16,9.860761315263E-32));
#30 = ORIENTED_EDGE('',*,*,#31,.F.);
#31 = EDGE_CURVE('',#32,#22,#34,.T.);
#32 = VERTEX_POINT('',#33);
#33 = CARTESIAN_POINT('',(-3.619327060278E-14,-87.40457451388,
    3.803880088554E-14));
#34 = CIRCLE('',#35,1.);
#35 = AXIS2_PLACEMENT_3D('',#36,#37,#38);
#36 = CARTESIAN_POINT('',(1.,-87.40457451388,2.329135388262E-14));
#37 = DIRECTION('',(-4.440892098501E-16,1.110223024625E-16,1.));
#38 = DIRECTION('',(-1.,0.,-4.440892098501E-16));
#39 = ORIENTED_EDGE('',*,*,#40,.F.);
#40 = EDGE_CURVE('',#41,#32,#43,.T.);
#41 = VERTEX_POINT('',#42);
#42 = CARTESIAN_POINT('',(-1.06581410364E-14,-11.96942694061,
    1.434793601378E-14));
#43 = LINE('',#44,#45);
#44 = CARTESIAN_POINT('',(-1.176064248225E-15,-10.59304502014,
    5.880321241125E-15));
#45 = VECTOR('',#46,1.);
#46 = DIRECTION('',(-1.110223024625E-16,-1.,5.551115123126E-16));
#47 = ORIENTED_EDGE('',*,*,#48,.T.);
#48 = EDGE_CURVE('',#41,#49,#51,.T.);
#49 = VERTEX_POINT('',#50);
#50 = CARTESIAN_POINT('',(1.309016994375,-11.01837042431,
    6.312643219483E-15));
#51 = CIRCLE('',#52,1.);
#52 = AXIS2_PLACEMENT_3D('',#53,#54,#55);
#53 = CARTESIAN_POINT('',(1.,-11.96942694061,1.491637011244E-14));
#54 = DIRECTION('',(4.440892098501E-16,-1.110223024625E-16,-1.));
#55 = DIRECTION('',(-1.,0.,-4.440892098501E-16));
#56 = ORIENTED_EDGE('',*,*,#57,.T.);
#57 = EDGE_CURVE('',#49,#58,#60,.T.);
#58 = VERTEX_POINT('',#59);
#59 = CARTESIAN_POINT('',(85.595086466565,-38.40457451388,
    2.131882143812E-14));
#60 = LINE('',#61,#62);
#61 = CARTESIAN_POINT('',(-1.176064248225E-15,-10.59304502014,
    5.880321241125E-15));
#62 = VECTOR('',#63,1.);
#63 = DIRECTION('',(0.951056516295,-0.309016994375,1.715388910778E-16));
#64 = ORIENTED_EDGE('',*,*,#65,.T.);
#65 = EDGE_CURVE('',#58,#66,#68,.T.);
#66 = VERTEX_POINT('',#67);
#67 = CARTESIAN_POINT('',(15.,-38.40457451388,2.131882143812E-14));
#68 = LINE('',#69,#70);
#69 = CARTESIAN_POINT('',(85.595086466565,-38.40457451388,
    2.131882143812E-14));
#70 = VECTOR('',#71,1.);
#71 = DIRECTION('',(-1.,5.551115123126E-16,-9.860761315263E-32));
#72 = ORIENTED_EDGE('',*,*,#73,.F.);
#73 = EDGE_CURVE('',#74,#66,#76,.T.);
#74 = VERTEX_POINT('',#75);
#75 = CARTESIAN_POINT('',(15.,-87.40457451388,4.874133014637E-14));
#76 = LINE('',#77,#78);
#77 = CARTESIAN_POINT('',(15.,-88.40457451388,4.907439705375E-14));
#78 = VECTOR('',#79,1.);
#79 = DIRECTION('',(1.110223024625E-16,1.,-5.551115123126E-16));
#80 = ORIENTED_EDGE('',*,*,#81,.F.);
#81 = EDGE_CURVE('',#24,#74,#82,.T.);
#82 = CIRCLE('',#83,1.);
#83 = AXIS2_PLACEMENT_3D('',#84,#85,#86);
#84 = CARTESIAN_POINT('',(14.,-87.40457451388,2.617793374665E-14));
#85 = DIRECTION('',(-4.440892098501E-16,1.110223024625E-16,1.));
#86 = DIRECTION('',(-1.,0.,-4.440892098501E-16));
#87 = PLANE('',#88);
#88 = AXIS2_PLACEMENT_3D('',#89,#90,#91);
#89 = CARTESIAN_POINT('',(27.240797892443,-43.71672165111,
    2.42676554691E-14));
#90 = DIRECTION('',(2.22044604925E-16,-1.110223024625E-16,-1.));
#91 = DIRECTION('',(-1.,3.330669073875E-16,-2.465190328816E-32));
#92 = ADVANCED_FACE('',(#93),#118,.F.);
#93 = FACE_BOUND('',#94,.F.);
#94 = EDGE_LOOP('',(#95,#96,#104,#112));
#95 = ORIENTED_EDGE('',*,*,#21,.F.);
#96 = ORIENTED_EDGE('',*,*,#97,.T.);
#97 = EDGE_CURVE('',#22,#98,#100,.T.);
#98 = VERTEX_POINT('',#99);
#99 = CARTESIAN_POINT('',(1.,-88.40457451388,80.));
#100 = LINE('',#101,#102);
#101 = CARTESIAN_POINT('',(1.,-88.40457451388,4.996003610813E-14));
#102 = VECTOR('',#103,1.);
#103 = DIRECTION('',(-4.440892098501E-16,1.110223024625E-16,1.));
#104 = ORIENTED_EDGE('',*,*,#105,.T.);
#105 = EDGE_CURVE('',#98,#106,#108,.T.);
#106 = VERTEX_POINT('',#107);
#107 = CARTESIAN_POINT('',(14.,-88.40457451388,80.));
#108 = LINE('',#109,#110);
#109 = CARTESIAN_POINT('',(-4.534201619876E-14,-88.40457451388,80.));
#110 = VECTOR('',#111,1.);
#111 = DIRECTION('',(1.,-5.551115123126E-16,9.860761315263E-32));
#112 = ORIENTED_EDGE('',*,*,#113,.F.);
#113 = EDGE_CURVE('',#24,#106,#114,.T.);
#114 = LINE('',#115,#116);
#115 = CARTESIAN_POINT('',(14.,-88.40457451388,4.86303078439E-14));
#116 = VECTOR('',#117,1.);
#117 = DIRECTION('',(-4.440892098501E-16,1.110223024625E-16,1.));
#118 = PLANE('',#119);
#119 = AXIS2_PLACEMENT_3D('',#120,#121,#122);
#120 = CARTESIAN_POINT('',(-9.814879410751E-15,-88.40457451388,
    4.907439705375E-14));
#121 = DIRECTION('',(3.330669073875E-16,1.,-3.330669073875E-16));
#122 = DIRECTION('',(1.,-5.551115123126E-16,9.860761315263E-32));
#123 = ADVANCED_FACE('',(#124),#143,.T.);
#124 = FACE_BOUND('',#125,.T.);
#125 = EDGE_LOOP('',(#126,#127,#135,#142));
#126 = ORIENTED_EDGE('',*,*,#81,.T.);
#127 = ORIENTED_EDGE('',*,*,#128,.T.);
#128 = EDGE_CURVE('',#74,#129,#131,.T.);
#129 = VERTEX_POINT('',#130);
#130 = CARTESIAN_POINT('',(15.,-87.40457451388,80.));
#131 = LINE('',#132,#133);
#132 = CARTESIAN_POINT('',(15.,-87.40457451388,4.896337475129E-14));
#133 = VECTOR('',#134,1.);
#134 = DIRECTION('',(-4.440892098501E-16,1.110223024625E-16,1.));
#135 = ORIENTED_EDGE('',*,*,#136,.F.);
#136 = EDGE_CURVE('',#106,#129,#137,.T.);
#137 = CIRCLE('',#138,1.);
#138 = AXIS2_PLACEMENT_3D('',#139,#140,#141);
#139 = CARTESIAN_POINT('',(14.,-87.40457451388,80.));
#140 = DIRECTION('',(-4.440892098501E-16,1.110223024625E-16,1.));
#141 = DIRECTION('',(-1.,0.,-4.440892098501E-16));
#142 = ORIENTED_EDGE('',*,*,#113,.F.);
#143 = CYLINDRICAL_SURFACE('',#144,1.);
#144 = AXIS2_PLACEMENT_3D('',#145,#146,#147);
#145 = CARTESIAN_POINT('',(14.,-87.40457451388,4.851928554144E-14));
#146 = DIRECTION('',(-4.440892098501E-16,1.110223024625E-16,1.));
#147 = DIRECTION('',(-5.551115123126E-16,-1.,1.110223024625E-16));
#148 = ADVANCED_FACE('',(#149),#168,.T.);
#149 = FACE_BOUND('',#150,.T.);
#150 = EDGE_LOOP('',(#151,#152,#153,#162));
#151 = ORIENTED_EDGE('',*,*,#31,.T.);
#152 = ORIENTED_EDGE('',*,*,#97,.T.);
#153 = ORIENTED_EDGE('',*,*,#154,.F.);
#154 = EDGE_CURVE('',#155,#98,#157,.T.);
#155 = VERTEX_POINT('',#156);
#156 = CARTESIAN_POINT('',(-7.172040739079E-14,-87.40457451388,80.));
#157 = CIRCLE('',#158,1.);
#158 = AXIS2_PLACEMENT_3D('',#159,#160,#161);
#159 = CARTESIAN_POINT('',(1.,-87.40457451388,80.));
#160 = DIRECTION('',(-4.440892098501E-16,1.110223024625E-16,1.));
#161 = DIRECTION('',(-1.,0.,-4.440892098501E-16));
#162 = ORIENTED_EDGE('',*,*,#163,.F.);
#163 = EDGE_CURVE('',#32,#155,#164,.T.);
#164 = LINE('',#165,#166);
#165 = CARTESIAN_POINT('',(-3.619327060278E-14,-87.40457451388,
    4.940492459582E-14));
#166 = VECTOR('',#167,1.);
#167 = DIRECTION('',(-4.440892098501E-16,1.110223024625E-16,1.));
#168 = CYLINDRICAL_SURFACE('',#169,1.);
#169 = AXIS2_PLACEMENT_3D('',#170,#171,#172);
#170 = CARTESIAN_POINT('',(1.,-87.40457451388,4.984901380567E-14));
#171 = DIRECTION('',(-4.440892098501E-16,1.110223024625E-16,1.));
#172 = DIRECTION('',(-1.,1.110223024625E-16,-4.440892098501E-16));
#173 = ADVANCED_FACE('',(#174),#192,.F.);
#174 = FACE_BOUND('',#175,.F.);
#175 = EDGE_LOOP('',(#176,#177,#178,#186));
#176 = ORIENTED_EDGE('',*,*,#73,.F.);
#177 = ORIENTED_EDGE('',*,*,#128,.T.);
#178 = ORIENTED_EDGE('',*,*,#179,.T.);
#179 = EDGE_CURVE('',#129,#180,#182,.T.);
#180 = VERTEX_POINT('',#181);
#181 = CARTESIAN_POINT('',(15.,-38.40457451388,80.));
#182 = LINE('',#183,#184);
#183 = CARTESIAN_POINT('',(15.,-88.40457451388,80.));
#184 = VECTOR('',#185,1.);
#185 = DIRECTION('',(1.110223024625E-16,1.,-5.551115123126E-16));
#186 = ORIENTED_EDGE('',*,*,#187,.F.);
#187 = EDGE_CURVE('',#66,#180,#188,.T.);
#188 = LINE('',#189,#190);
#189 = CARTESIAN_POINT('',(15.,-38.40457451388,2.131882143812E-14));
#190 = VECTOR('',#191,1.);
#191 = DIRECTION('',(-4.440892098501E-16,1.110223024625E-16,1.));
#192 = PLANE('',#193);
#193 = AXIS2_PLACEMENT_3D('',#194,#195,#196);
#194 = CARTESIAN_POINT('',(15.,-88.40457451388,4.907439705375E-14));
#195 = DIRECTION('',(-1.,3.330669073875E-16,-2.22044604925E-16));
#196 = DIRECTION('',(1.110223024625E-16,1.,-5.551115123126E-16));
#197 = ADVANCED_FACE('',(#198),#216,.T.);
#198 = FACE_BOUND('',#199,.T.);
#199 = EDGE_LOOP('',(#200,#201,#202,#210));
#200 = ORIENTED_EDGE('',*,*,#40,.T.);
#201 = ORIENTED_EDGE('',*,*,#163,.T.);
#202 = ORIENTED_EDGE('',*,*,#203,.F.);
#203 = EDGE_CURVE('',#204,#155,#206,.T.);
#204 = VERTEX_POINT('',#205);
#205 = CARTESIAN_POINT('',(-4.618527782441E-14,-11.96942694061,80.));
#206 = LINE('',#207,#208);
#207 = CARTESIAN_POINT('',(-3.979090107563E-14,-38.40457451388,80.));
#208 = VECTOR('',#209,1.);
#209 = DIRECTION('',(-1.110223024625E-16,-1.,5.551115123126E-16));
#210 = ORIENTED_EDGE('',*,*,#211,.F.);
#211 = EDGE_CURVE('',#41,#204,#212,.T.);
#212 = LINE('',#213,#214);
#213 = CARTESIAN_POINT('',(-1.06581410364E-14,-11.96942694061,
    6.936890476425E-15));
#214 = VECTOR('',#215,1.);
#215 = DIRECTION('',(-4.440892098501E-16,1.110223024625E-16,1.));
#216 = PLANE('',#217);
#217 = AXIS2_PLACEMENT_3D('',#218,#219,#220);
#218 = CARTESIAN_POINT('',(-2.325904022349E-14,-49.49880976701,40.));
#219 = DIRECTION('',(-1.,3.330669073875E-16,-2.465190328816E-32));
#220 = DIRECTION('',(2.22044604925E-16,-1.110223024625E-16,-1.));
#221 = ADVANCED_FACE('',(#222,#240,#274),#308,.T.);
#222 = FACE_BOUND('',#223,.T.);
#223 = EDGE_LOOP('',(#224,#225,#226,#234));
#224 = ORIENTED_EDGE('',*,*,#187,.F.);
#225 = ORIENTED_EDGE('',*,*,#65,.F.);
#226 = ORIENTED_EDGE('',*,*,#227,.T.);
#227 = EDGE_CURVE('',#58,#228,#230,.T.);
#228 = VERTEX_POINT('',#229);
#229 = CARTESIAN_POINT('',(85.595086466565,-38.40457451388,80.));
#230 = LINE('',#231,#232);
#231 = CARTESIAN_POINT('',(85.595086466565,-38.40457451388,
    2.131882143812E-14));
#232 = VECTOR('',#233,1.);
#233 = DIRECTION('',(-4.440892098501E-16,1.110223024625E-16,1.));
#234 = ORIENTED_EDGE('',*,*,#235,.T.);
#235 = EDGE_CURVE('',#228,#180,#236,.T.);
#236 = LINE('',#237,#238);
#237 = CARTESIAN_POINT('',(15.,-38.40457451388,80.));
#238 = VECTOR('',#239,1.);
#239 = DIRECTION('',(-1.,5.551115123126E-16,-9.860761315263E-32));
#240 = FACE_BOUND('',#241,.T.);
#241 = EDGE_LOOP('',(#242,#252,#260,#268));
#242 = ORIENTED_EDGE('',*,*,#243,.F.);
#243 = EDGE_CURVE('',#244,#246,#248,.T.);
#244 = VERTEX_POINT('',#245);
#245 = CARTESIAN_POINT('',(63.510772260694,-38.40457451388,4.5));
#246 = VERTEX_POINT('',#247);
#247 = CARTESIAN_POINT('',(75.076856727315,-38.40457451388,4.5));
#248 = LINE('',#249,#250);
#249 = CARTESIAN_POINT('',(59.439400762663,-38.40457451388,4.5));
#250 = VECTOR('',#251,1.);
#251 = DIRECTION('',(1.,-3.772842975098E-16,2.214418456459E-32));
#252 = ORIENTED_EDGE('',*,*,#253,.F.);
#253 = EDGE_CURVE('',#254,#244,#256,.T.);
#254 = VERTEX_POINT('',#255);
#255 = CARTESIAN_POINT('',(63.510772260694,-38.40457451388,75.5));
#256 = LINE('',#257,#258);
#257 = CARTESIAN_POINT('',(63.510772260694,-38.40457451388,22.25));
#258 = VECTOR('',#259,1.);
#259 = DIRECTION('',(1.138246065514E-16,-3.330669073875E-16,-1.));
#260 = ORIENTED_EDGE('',*,*,#261,.F.);
#261 = EDGE_CURVE('',#262,#254,#264,.T.);
#262 = VERTEX_POINT('',#263);
#263 = CARTESIAN_POINT('',(75.076856727315,-38.40457451388,75.5));
#264 = LINE('',#265,#266);
#265 = CARTESIAN_POINT('',(54.208589923039,-38.40457451388,75.5));
#266 = VECTOR('',#267,1.);
#267 = DIRECTION('',(-1.,3.772842975098E-16,-2.214418456459E-32));
#268 = ORIENTED_EDGE('',*,*,#269,.F.);
#269 = EDGE_CURVE('',#246,#262,#270,.T.);
#270 = LINE('',#271,#272);
#271 = CARTESIAN_POINT('',(75.076856727315,-38.40457451388,57.75));
#272 = VECTOR('',#273,1.);
#273 = DIRECTION('',(-1.138246065514E-16,3.330669073875E-16,1.));
#274 = FACE_BOUND('',#275,.T.);
#275 = EDGE_LOOP('',(#276,#286,#294,#302));
#276 = ORIENTED_EDGE('',*,*,#277,.F.);
#277 = EDGE_CURVE('',#278,#280,#282,.T.);
#278 = VERTEX_POINT('',#279);
#279 = CARTESIAN_POINT('',(30.915443309308,-38.40457451388,4.5));
#280 = VERTEX_POINT('',#281);
#281 = CARTESIAN_POINT('',(42.481527775929,-38.40457451388,4.5));
#282 = LINE('',#283,#284);
#283 = CARTESIAN_POINT('',(44.698024760088,-38.40457451388,4.5));
#284 = VECTOR('',#285,1.);
#285 = DIRECTION('',(1.,-3.772842975098E-16,2.214418456459E-32));
#286 = ORIENTED_EDGE('',*,*,#287,.F.);
#287 = EDGE_CURVE('',#288,#278,#290,.T.);
#288 = VERTEX_POINT('',#289);
#289 = CARTESIAN_POINT('',(30.915443309308,-38.40457451388,75.5));
#290 = LINE('',#291,#292);
#291 = CARTESIAN_POINT('',(30.915443309308,-38.40457451388,22.25));
#292 = VECTOR('',#293,1.);
#293 = DIRECTION('',(1.138246065514E-16,-3.330669073875E-16,-1.));
#294 = ORIENTED_EDGE('',*,*,#295,.F.);
#295 = EDGE_CURVE('',#296,#288,#298,.T.);
#296 = VERTEX_POINT('',#297);
#297 = CARTESIAN_POINT('',(42.481527775929,-38.40457451388,75.5));
#298 = LINE('',#299,#300);
#299 = CARTESIAN_POINT('',(39.467213920465,-38.40457451388,75.5));
#300 = VECTOR('',#301,1.);
#301 = DIRECTION('',(-1.,3.772842975098E-16,-2.214418456459E-32));
#302 = ORIENTED_EDGE('',*,*,#303,.F.);
#303 = EDGE_CURVE('',#280,#296,#304,.T.);
#304 = LINE('',#305,#306);
#305 = CARTESIAN_POINT('',(42.481527775929,-38.40457451388,57.75));
#306 = VECTOR('',#307,1.);
#307 = DIRECTION('',(-1.138246065514E-16,3.330669073875E-16,1.));
#308 = PLANE('',#309);
#309 = AXIS2_PLACEMENT_3D('',#310,#311,#312);
#310 = CARTESIAN_POINT('',(42.797543233282,-38.40457451388,40.));
#311 = DIRECTION('',(-3.772842975098E-16,-1.,3.330669073875E-16));
#312 = DIRECTION('',(-1.,5.993289024348E-16,-1.133349625334E-31));
#313 = ADVANCED_FACE('',(#314),#333,.T.);
#314 = FACE_BOUND('',#315,.F.);
#315 = EDGE_LOOP('',(#316,#317,#325,#332));
#316 = ORIENTED_EDGE('',*,*,#48,.T.);
#317 = ORIENTED_EDGE('',*,*,#318,.T.);
#318 = EDGE_CURVE('',#49,#319,#321,.T.);
#319 = VERTEX_POINT('',#320);
#320 = CARTESIAN_POINT('',(1.309016994375,-11.01837042431,80.));
#321 = LINE('',#322,#323);
#322 = CARTESIAN_POINT('',(1.309016994375,-11.01837042431,
    7.412622314926E-15));
#323 = VECTOR('',#324,1.);
#324 = DIRECTION('',(-4.440892098501E-16,1.110223024625E-16,1.));
#325 = ORIENTED_EDGE('',*,*,#326,.F.);
#326 = EDGE_CURVE('',#204,#319,#327,.T.);
#327 = CIRCLE('',#328,1.);
#328 = AXIS2_PLACEMENT_3D('',#329,#330,#331);
#329 = CARTESIAN_POINT('',(1.,-11.96942694061,80.));
#330 = DIRECTION('',(4.440892098501E-16,-1.110223024625E-16,-1.));
#331 = DIRECTION('',(-1.,0.,-4.440892098501E-16));
#332 = ORIENTED_EDGE('',*,*,#211,.F.);
#333 = CYLINDRICAL_SURFACE('',#334,1.);
#334 = AXIS2_PLACEMENT_3D('',#335,#336,#337);
#335 = CARTESIAN_POINT('',(1.,-11.96942694061,7.380979686275E-15));
#336 = DIRECTION('',(-4.440892098501E-16,1.110223024625E-16,1.));
#337 = DIRECTION('',(-1.,1.110223024625E-16,-4.440892098501E-16));
#338 = ADVANCED_FACE('',(#339,#350,#384),#418,.T.);
#339 = FACE_BOUND('',#340,.T.);
#340 = EDGE_LOOP('',(#341,#342,#343,#349));
#341 = ORIENTED_EDGE('',*,*,#57,.F.);
#342 = ORIENTED_EDGE('',*,*,#318,.T.);
#343 = ORIENTED_EDGE('',*,*,#344,.T.);
#344 = EDGE_CURVE('',#319,#228,#345,.T.);
#345 = LINE('',#346,#347);
#346 = CARTESIAN_POINT('',(-3.670320103623E-14,-10.59304502014,80.));
#347 = VECTOR('',#348,1.);
#348 = DIRECTION('',(0.951056516295,-0.309016994375,1.715388910778E-16)
  );
#349 = ORIENTED_EDGE('',*,*,#227,.F.);
#350 = FACE_BOUND('',#351,.T.);
#351 = EDGE_LOOP('',(#352,#362,#370,#378));
#352 = ORIENTED_EDGE('',*,*,#353,.F.);
#353 = EDGE_CURVE('',#354,#356,#358,.T.);
#354 = VERTEX_POINT('',#355);
#355 = CARTESIAN_POINT('',(46.598506286894,-25.73381752778,4.5));
#356 = VERTEX_POINT('',#357);
#357 = CARTESIAN_POINT('',(36.136884607647,-22.33463058966,4.5));
#358 = LINE('',#359,#360);
#359 = CARTESIAN_POINT('',(46.598506286894,-25.73381752778,4.5));
#360 = VECTOR('',#361,1.);
#361 = DIRECTION('',(-0.951056516295,0.309016994375,-6.861555643111E-17)
  );
#362 = ORIENTED_EDGE('',*,*,#363,.F.);
#363 = EDGE_CURVE('',#364,#354,#366,.T.);
#364 = VERTEX_POINT('',#365);
#365 = CARTESIAN_POINT('',(46.598506286893,-25.73381752778,75.5));
#366 = LINE('',#367,#368);
#367 = CARTESIAN_POINT('',(46.598506286893,-25.73381752778,75.5));
#368 = VECTOR('',#369,1.);
#369 = DIRECTION('',(2.22044604925E-16,0.,-1.));
#370 = ORIENTED_EDGE('',*,*,#371,.F.);
#371 = EDGE_CURVE('',#372,#364,#374,.T.);
#372 = VERTEX_POINT('',#373);
#373 = CARTESIAN_POINT('',(36.136884607647,-22.33463058966,75.5));
#374 = LINE('',#375,#376);
#375 = CARTESIAN_POINT('',(36.136884607647,-22.33463058966,75.5));
#376 = VECTOR('',#377,1.);
#377 = DIRECTION('',(0.951056516295,-0.309016994375,6.861555643111E-17)
  );
#378 = ORIENTED_EDGE('',*,*,#379,.F.);
#379 = EDGE_CURVE('',#356,#372,#380,.T.);
#380 = LINE('',#381,#382);
#381 = CARTESIAN_POINT('',(36.136884607647,-22.33463058966,4.5));
#382 = VECTOR('',#383,1.);
#383 = DIRECTION('',(-2.22044604925E-16,0.,1.));
#384 = FACE_BOUND('',#385,.T.);
#385 = EDGE_LOOP('',(#386,#396,#404,#412));
#386 = ORIENTED_EDGE('',*,*,#387,.F.);
#387 = EDGE_CURVE('',#388,#390,#392,.T.);
#388 = VERTEX_POINT('',#389);
#389 = CARTESIAN_POINT('',(76.081258292043,-35.3133443534,4.5));
#390 = VERTEX_POINT('',#391);
#391 = CARTESIAN_POINT('',(65.619636612797,-31.91415741528,4.5));
#392 = LINE('',#393,#394);
#393 = CARTESIAN_POINT('',(76.081258292043,-35.3133443534,4.5));
#394 = VECTOR('',#395,1.);
#395 = DIRECTION('',(-0.951056516295,0.309016994375,-6.861555643111E-17)
  );
#396 = ORIENTED_EDGE('',*,*,#397,.F.);
#397 = EDGE_CURVE('',#398,#388,#400,.T.);
#398 = VERTEX_POINT('',#399);
#399 = CARTESIAN_POINT('',(76.081258292043,-35.3133443534,75.5));
#400 = LINE('',#401,#402);
#401 = CARTESIAN_POINT('',(76.081258292043,-35.3133443534,75.5));
#402 = VECTOR('',#403,1.);
#403 = DIRECTION('',(2.22044604925E-16,0.,-1.));
#404 = ORIENTED_EDGE('',*,*,#405,.F.);
#405 = EDGE_CURVE('',#406,#398,#408,.T.);
#406 = VERTEX_POINT('',#407);
#407 = CARTESIAN_POINT('',(65.619636612797,-31.91415741528,75.5));
#408 = LINE('',#409,#410);
#409 = CARTESIAN_POINT('',(65.619636612797,-31.91415741528,75.5));
#410 = VECTOR('',#411,1.);
#411 = DIRECTION('',(0.951056516295,-0.309016994375,6.861555643111E-17)
  );
#412 = ORIENTED_EDGE('',*,*,#413,.F.);
#413 = EDGE_CURVE('',#390,#406,#414,.T.);
#414 = LINE('',#415,#416);
#415 = CARTESIAN_POINT('',(65.619636612797,-31.91415741528,4.5));
#416 = VECTOR('',#417,1.);
#417 = DIRECTION('',(-2.22044604925E-16,0.,1.));
#418 = PLANE('',#419);
#419 = AXIS2_PLACEMENT_3D('',#420,#421,#422);
#420 = CARTESIAN_POINT('',(-1.176064248225E-15,-10.59304502014,
    5.880321241125E-15));
#421 = DIRECTION('',(0.309016994375,0.951056516295,-2.481498962021E-16)
  );
#422 = DIRECTION('',(0.951056516295,-0.309016994375,1.715388910778E-16)
  );
#423 = ADVANCED_FACE('',(#424),#434,.T.);
#424 = FACE_BOUND('',#425,.T.);
#425 = EDGE_LOOP('',(#426,#427,#428,#429,#430,#431,#432,#433));
#426 = ORIENTED_EDGE('',*,*,#105,.T.);
#427 = ORIENTED_EDGE('',*,*,#136,.T.);
#428 = ORIENTED_EDGE('',*,*,#179,.T.);
#429 = ORIENTED_EDGE('',*,*,#235,.F.);
#430 = ORIENTED_EDGE('',*,*,#344,.F.);
#431 = ORIENTED_EDGE('',*,*,#326,.F.);
#432 = ORIENTED_EDGE('',*,*,#203,.T.);
#433 = ORIENTED_EDGE('',*,*,#154,.T.);
#434 = PLANE('',#435);
#435 = AXIS2_PLACEMENT_3D('',#436,#437,#438);
#436 = CARTESIAN_POINT('',(27.240797892443,-43.71672165111,80.));
#437 = DIRECTION('',(-2.22044604925E-16,1.110223024625E-16,1.));
#438 = DIRECTION('',(1.,-3.330669073875E-16,2.465190328816E-32));
#439 = ADVANCED_FACE('',(#440),#456,.F.);
#440 = FACE_BOUND('',#441,.F.);
#441 = EDGE_LOOP('',(#442,#443,#449,#450));
#442 = ORIENTED_EDGE('',*,*,#387,.F.);
#443 = ORIENTED_EDGE('',*,*,#444,.T.);
#444 = EDGE_CURVE('',#388,#246,#445,.T.);
#445 = LINE('',#446,#447);
#446 = CARTESIAN_POINT('',(76.081258292043,-35.3133443534,4.5));
#447 = VECTOR('',#448,1.);
#448 = DIRECTION('',(-0.309016994375,-0.951056516295,2.111769684221E-16)
  );
#449 = ORIENTED_EDGE('',*,*,#243,.F.);
#450 = ORIENTED_EDGE('',*,*,#451,.F.);
#451 = EDGE_CURVE('',#390,#244,#452,.T.);
#452 = LINE('',#453,#454);
#453 = CARTESIAN_POINT('',(65.619636612797,-31.91415741528,4.5));
#454 = VECTOR('',#455,1.);
#455 = DIRECTION('',(-0.309016994375,-0.951056516295,2.111769684221E-16)
  );
#456 = PLANE('',#457);
#457 = AXIS2_PLACEMENT_3D('',#458,#459,#460);
#458 = CARTESIAN_POINT('',(76.081258292043,-35.3133443534,4.5));
#459 = DIRECTION('',(-6.162975822039E-32,-2.22044604925E-16,-1.));
#460 = DIRECTION('',(-0.951056516295,0.309016994375,-6.861555643111E-17)
  );
#461 = ADVANCED_FACE('',(#462),#473,.F.);
#462 = FACE_BOUND('',#463,.F.);
#463 = EDGE_LOOP('',(#464,#465,#471,#472));
#464 = ORIENTED_EDGE('',*,*,#397,.F.);
#465 = ORIENTED_EDGE('',*,*,#466,.T.);
#466 = EDGE_CURVE('',#398,#262,#467,.T.);
#467 = LINE('',#468,#469);
#468 = CARTESIAN_POINT('',(76.081258292043,-35.3133443534,75.5));
#469 = VECTOR('',#470,1.);
#470 = DIRECTION('',(-0.309016994375,-0.951056516295,2.111769684221E-16)
  );
#471 = ORIENTED_EDGE('',*,*,#269,.F.);
#472 = ORIENTED_EDGE('',*,*,#444,.F.);
#473 = PLANE('',#474);
#474 = AXIS2_PLACEMENT_3D('',#475,#476,#477);
#475 = CARTESIAN_POINT('',(76.081258292043,-35.3133443534,75.5));
#476 = DIRECTION('',(0.951056516295,-0.309016994375,2.111769684221E-16)
  );
#477 = DIRECTION('',(2.22044604925E-16,0.,-1.));
#478 = ADVANCED_FACE('',(#479),#490,.F.);
#479 = FACE_BOUND('',#480,.F.);
#480 = EDGE_LOOP('',(#481,#482,#488,#489));
#481 = ORIENTED_EDGE('',*,*,#405,.F.);
#482 = ORIENTED_EDGE('',*,*,#483,.T.);
#483 = EDGE_CURVE('',#406,#254,#484,.T.);
#484 = LINE('',#485,#486);
#485 = CARTESIAN_POINT('',(65.619636612797,-31.91415741528,75.5));
#486 = VECTOR('',#487,1.);
#487 = DIRECTION('',(-0.309016994375,-0.951056516295,2.111769684221E-16)
  );
#488 = ORIENTED_EDGE('',*,*,#261,.F.);
#489 = ORIENTED_EDGE('',*,*,#466,.F.);
#490 = PLANE('',#491);
#491 = AXIS2_PLACEMENT_3D('',#492,#493,#494);
#492 = CARTESIAN_POINT('',(65.619636612797,-31.91415741528,75.5));
#493 = DIRECTION('',(6.162975822039E-32,2.22044604925E-16,1.));
#494 = DIRECTION('',(0.951056516295,-0.309016994375,6.861555643111E-17)
  );
#495 = ADVANCED_FACE('',(#496),#502,.F.);
#496 = FACE_BOUND('',#497,.F.);
#497 = EDGE_LOOP('',(#498,#499,#500,#501));
#498 = ORIENTED_EDGE('',*,*,#413,.F.);
#499 = ORIENTED_EDGE('',*,*,#451,.T.);
#500 = ORIENTED_EDGE('',*,*,#253,.F.);
#501 = ORIENTED_EDGE('',*,*,#483,.F.);
#502 = PLANE('',#503);
#503 = AXIS2_PLACEMENT_3D('',#504,#505,#506);
#504 = CARTESIAN_POINT('',(65.619636612797,-31.91415741528,4.5));
#505 = DIRECTION('',(-0.951056516295,0.309016994375,-2.111769684221E-16)
  );
#506 = DIRECTION('',(-2.22044604925E-16,0.,1.));
#507 = ADVANCED_FACE('',(#508),#524,.F.);
#508 = FACE_BOUND('',#509,.F.);
#509 = EDGE_LOOP('',(#510,#511,#517,#518));
#510 = ORIENTED_EDGE('',*,*,#353,.F.);
#511 = ORIENTED_EDGE('',*,*,#512,.T.);
#512 = EDGE_CURVE('',#354,#280,#513,.T.);
#513 = LINE('',#514,#515);
#514 = CARTESIAN_POINT('',(46.598506286894,-25.73381752778,4.5));
#515 = VECTOR('',#516,1.);
#516 = DIRECTION('',(-0.309016994375,-0.951056516295,2.111769684221E-16)
  );
#517 = ORIENTED_EDGE('',*,*,#277,.F.);
#518 = ORIENTED_EDGE('',*,*,#519,.F.);
#519 = EDGE_CURVE('',#356,#278,#520,.T.);
#520 = LINE('',#521,#522);
#521 = CARTESIAN_POINT('',(36.136884607647,-22.33463058966,4.5));
#522 = VECTOR('',#523,1.);
#523 = DIRECTION('',(-0.309016994375,-0.951056516295,2.111769684221E-16)
  );
#524 = PLANE('',#525);
#525 = AXIS2_PLACEMENT_3D('',#526,#527,#528);
#526 = CARTESIAN_POINT('',(46.598506286894,-25.73381752778,4.5));
#527 = DIRECTION('',(-6.162975822039E-32,-2.22044604925E-16,-1.));
#528 = DIRECTION('',(-0.951056516295,0.309016994375,-6.861555643111E-17)
  );
#529 = ADVANCED_FACE('',(#530),#541,.F.);
#530 = FACE_BOUND('',#531,.F.);
#531 = EDGE_LOOP('',(#532,#533,#539,#540));
#532 = ORIENTED_EDGE('',*,*,#363,.F.);
#533 = ORIENTED_EDGE('',*,*,#534,.T.);
#534 = EDGE_CURVE('',#364,#296,#535,.T.);
#535 = LINE('',#536,#537);
#536 = CARTESIAN_POINT('',(46.598506286893,-25.73381752778,75.5));
#537 = VECTOR('',#538,1.);
#538 = DIRECTION('',(-0.309016994375,-0.951056516295,2.111769684221E-16)
  );
#539 = ORIENTED_EDGE('',*,*,#303,.F.);
#540 = ORIENTED_EDGE('',*,*,#512,.F.);
#541 = PLANE('',#542);
#542 = AXIS2_PLACEMENT_3D('',#543,#544,#545);
#543 = CARTESIAN_POINT('',(46.598506286893,-25.73381752778,75.5));
#544 = DIRECTION('',(0.951056516295,-0.309016994375,2.111769684221E-16)
  );
#545 = DIRECTION('',(2.22044604925E-16,0.,-1.));
#546 = ADVANCED_FACE('',(#547),#558,.F.);
#547 = FACE_BOUND('',#548,.F.);
#548 = EDGE_LOOP('',(#549,#550,#556,#557));
#549 = ORIENTED_EDGE('',*,*,#371,.F.);
#550 = ORIENTED_EDGE('',*,*,#551,.T.);
#551 = EDGE_CURVE('',#372,#288,#552,.T.);
#552 = LINE('',#553,#554);
#553 = CARTESIAN_POINT('',(36.136884607647,-22.33463058966,75.5));
#554 = VECTOR('',#555,1.);
#555 = DIRECTION('',(-0.309016994375,-0.951056516295,2.111769684221E-16)
  );
#556 = ORIENTED_EDGE('',*,*,#295,.F.);
#557 = ORIENTED_EDGE('',*,*,#534,.F.);
#558 = PLANE('',#559);
#559 = AXIS2_PLACEMENT_3D('',#560,#561,#562);
#560 = CARTESIAN_POINT('',(36.136884607647,-22.33463058966,75.5));
#561 = DIRECTION('',(6.162975822039E-32,2.22044604925E-16,1.));
#562 = DIRECTION('',(0.951056516295,-0.309016994375,6.861555643111E-17)
  );
#563 = ADVANCED_FACE('',(#564),#570,.F.);
#564 = FACE_BOUND('',#565,.F.);
#565 = EDGE_LOOP('',(#566,#567,#568,#569));
#566 = ORIENTED_EDGE('',*,*,#379,.F.);
#567 = ORIENTED_EDGE('',*,*,#519,.T.);
#568 = ORIENTED_EDGE('',*,*,#287,.F.);
#569 = ORIENTED_EDGE('',*,*,#551,.F.);
#570 = PLANE('',#571);
#571 = AXIS2_PLACEMENT_3D('',#572,#573,#574);
#572 = CARTESIAN_POINT('',(36.136884607647,-22.33463058966,4.5));
#573 = DIRECTION('',(-0.951056516295,0.309016994375,-2.111769684221E-16)
  );
#574 = DIRECTION('',(-2.22044604925E-16,0.,1.));
#575 = ( GEOMETRIC_REPRESENTATION_CONTEXT(3) 
GLOBAL_UNCERTAINTY_ASSIGNED_CONTEXT((#579)) GLOBAL_UNIT_ASSIGNED_CONTEXT
((#576,#577,#578)) REPRESENTATION_CONTEXT('Context #1',
  '3D Context with UNIT and UNCERTAINTY') );
#576 = ( LENGTH_UNIT() NAMED_UNIT(*) SI_UNIT(.MILLI.,.METRE.) );
#577 = ( NAMED_UNIT(*) PLANE_ANGLE_UNIT() SI_UNIT($,.RADIAN.) );
#578 = ( NAMED_UNIT(*) SI_UNIT($,.STERADIAN.) SOLID_ANGLE_UNIT() );
#579 = UNCERTAINTY_MEASURE_WITH_UNIT(LENGTH_MEASURE(2.E-05),#576,
  'distance_accuracy_value','confusion accuracy');
#580 = PRODUCT_RELATED_PRODUCT_CATEGORY('part',$,(#7));
#581 = MECHANICAL_DESIGN_GEOMETRIC_PRESENTATION_REPRESENTATION('',(#582)
  ,#575);
#582 = STYLED_ITEM('color',(#583),#15);
#583 = PRESENTATION_STYLE_ASSIGNMENT((#584,#590));
#584 = SURFACE_STYLE_USAGE(.BOTH.,#585);
#585 = SURFACE_SIDE_STYLE('',(#586));
#586 = SURFACE_STYLE_FILL_AREA(#587);
#587 = FILL_AREA_STYLE('',(#588));
#588 = FILL_AREA_STYLE_COLOUR('',#589);
#589 = COLOUR_RGB('',0.678431390124,0.709803936702,0.741176476869);
#590 = CURVE_STYLE('',#591,POSITIVE_LENGTH_MEASURE(0.1),#592);
#591 = DRAUGHTING_PRE_DEFINED_CURVE_FONT('continuous');
#592 = COLOUR_RGB('',9.803921802644E-02,9.803921802644E-02,
  9.803921802644E-02);
ENDSEC;
END-ISO-10303-21;
