%TF.GenerationSoftware,KiCad,Pcbnew,9.0.5*%
%TF.CreationDate,2025-11-26T16:17:29+01:00*%
%TF.ProjectId,Stacja_pogody_SD,53746163-6a61-45f7-906f-676f64795f53,rev?*%
%TF.SameCoordinates,Original*%
%TF.FileFunction,Copper,L1,Top*%
%TF.FilePolarity,Positive*%
%FSLAX46Y46*%
G04 Gerber Fmt 4.6, Leading zero omitted, Abs format (unit mm)*
G04 Created by KiCad (PCBNEW 9.0.5) date 2025-11-26 16:17:29*
%MOMM*%
%LPD*%
G01*
G04 APERTURE LIST*
G04 Aperture macros list*
%AMRoundRect*
0 Rectangle with rounded corners*
0 $1 Rounding radius*
0 $2 $3 $4 $5 $6 $7 $8 $9 X,Y pos of 4 corners*
0 Add a 4 corners polygon primitive as box body*
4,1,4,$2,$3,$4,$5,$6,$7,$8,$9,$2,$3,0*
0 Add four circle primitives for the rounded corners*
1,1,$1+$1,$2,$3*
1,1,$1+$1,$4,$5*
1,1,$1+$1,$6,$7*
1,1,$1+$1,$8,$9*
0 Add four rect primitives between the rounded corners*
20,1,$1+$1,$2,$3,$4,$5,0*
20,1,$1+$1,$4,$5,$6,$7,0*
20,1,$1+$1,$6,$7,$8,$9,0*
20,1,$1+$1,$8,$9,$2,$3,0*%
G04 Aperture macros list end*
%TA.AperFunction,SMDPad,CuDef*%
%ADD10R,1.000000X0.350000*%
%TD*%
%TA.AperFunction,ComponentPad*%
%ADD11R,1.700000X1.700000*%
%TD*%
%TA.AperFunction,ComponentPad*%
%ADD12C,1.700000*%
%TD*%
%TA.AperFunction,SMDPad,CuDef*%
%ADD13RoundRect,0.225000X-0.250000X0.225000X-0.250000X-0.225000X0.250000X-0.225000X0.250000X0.225000X0*%
%TD*%
%TA.AperFunction,SMDPad,CuDef*%
%ADD14RoundRect,0.200000X0.200000X0.275000X-0.200000X0.275000X-0.200000X-0.275000X0.200000X-0.275000X0*%
%TD*%
%TA.AperFunction,SMDPad,CuDef*%
%ADD15RoundRect,0.225000X0.225000X0.250000X-0.225000X0.250000X-0.225000X-0.250000X0.225000X-0.250000X0*%
%TD*%
%TA.AperFunction,SMDPad,CuDef*%
%ADD16RoundRect,0.243750X0.243750X0.456250X-0.243750X0.456250X-0.243750X-0.456250X0.243750X-0.456250X0*%
%TD*%
%TA.AperFunction,SMDPad,CuDef*%
%ADD17RoundRect,0.150000X-0.825000X-0.150000X0.825000X-0.150000X0.825000X0.150000X-0.825000X0.150000X0*%
%TD*%
%TA.AperFunction,ViaPad*%
%ADD18C,0.600000*%
%TD*%
%TA.AperFunction,ViaPad*%
%ADD19C,0.700000*%
%TD*%
%TA.AperFunction,ViaPad*%
%ADD20C,0.800000*%
%TD*%
%TA.AperFunction,Conductor*%
%ADD21C,0.200000*%
%TD*%
%TA.AperFunction,Conductor*%
%ADD22C,0.150000*%
%TD*%
%TA.AperFunction,Conductor*%
%ADD23C,0.250000*%
%TD*%
%ADD24C,0.300000*%
%ADD25C,0.350000*%
G04 APERTURE END LIST*
D10*
%TO.P,U3,1,GND*%
%TO.N,GND*%
X132390000Y-35710000D03*
%TO.P,U3,2,CSB*%
%TO.N,VCC*%
X132390000Y-36360000D03*
%TO.P,U3,3,SDI*%
%TO.N,/BME_SDA*%
X132390000Y-37010000D03*
%TO.P,U3,4,SCK*%
%TO.N,/BME_SCL*%
X132390000Y-37660000D03*
%TO.P,U3,5,SDO*%
%TO.N,GND*%
X129840000Y-37660000D03*
%TO.P,U3,6,VDDIO*%
%TO.N,VCC*%
X129840000Y-37010000D03*
%TO.P,U3,7,GND*%
%TO.N,GND*%
X129840000Y-36360000D03*
%TO.P,U3,8,VDD*%
%TO.N,VCC*%
X129840000Y-35710000D03*
%TD*%
D11*
%TO.P,J1,1,Pin_1*%
%TO.N,GND*%
X119645000Y-37750000D03*
D12*
%TO.P,J1,2,Pin_2*%
%TO.N,VCC*%
X117105000Y-37750000D03*
%TD*%
D11*
%TO.P,J2,1,Pin_1*%
%TO.N,/UPDI*%
X117115000Y-41500000D03*
D12*
%TO.P,J2,2,Pin_2*%
%TO.N,VCC*%
X119655000Y-41500000D03*
%TO.P,J2,3,Pin_3*%
%TO.N,unconnected-(J2-Pin_3-Pad3)*%
X117115000Y-44040000D03*
%TO.P,J2,4,Pin_4*%
%TO.N,unconnected-(J2-Pin_4-Pad4)*%
X119655000Y-44040000D03*
%TO.P,J2,5,Pin_5*%
%TO.N,unconnected-(J2-Pin_5-Pad5)*%
X117115000Y-46580000D03*
%TO.P,J2,6,Pin_6*%
%TO.N,GND*%
X119655000Y-46580000D03*
%TD*%
D13*
%TO.P,C1,1*%
%TO.N,GND*%
X128000000Y-36225000D03*
%TO.P,C1,2*%
%TO.N,VCC*%
X128000000Y-37775000D03*
%TD*%
D14*
%TO.P,R1,1*%
%TO.N,Net-(U2-PA7)*%
X124150000Y-45260000D03*
%TO.P,R1,2*%
%TO.N,Net-(D1-A)*%
X122500000Y-45260000D03*
%TD*%
D13*
%TO.P,C4,1*%
%TO.N,GND*%
X122325000Y-40535000D03*
%TO.P,C4,2*%
%TO.N,VCC*%
X122325000Y-42085000D03*
%TD*%
D15*
%TO.P,C3,1*%
%TO.N,GND*%
X127425000Y-39720000D03*
%TO.P,C3,2*%
%TO.N,VCC*%
X125875000Y-39720000D03*
%TD*%
D16*
%TO.P,D1,1,K*%
%TO.N,GND*%
X124302500Y-47370000D03*
%TO.P,D1,2,A*%
%TO.N,Net-(D1-A)*%
X122427500Y-47370000D03*
%TD*%
D15*
%TO.P,C2,1*%
%TO.N,GND*%
X139305000Y-38590000D03*
%TO.P,C2,2*%
%TO.N,VCC*%
X137755000Y-38590000D03*
%TD*%
D11*
%TO.P,U1,1,GND*%
%TO.N,GND*%
X135100000Y-40940000D03*
D12*
%TO.P,U1,2,VCC*%
%TO.N,VCC*%
X137640000Y-40940000D03*
%TO.P,U1,3,CE*%
%TO.N,/NRF_CE*%
X135100000Y-43480000D03*
%TO.P,U1,4,~{CSN}*%
%TO.N,/NRF_CSN*%
X137640000Y-43480000D03*
%TO.P,U1,5,SCK*%
%TO.N,/NRF_SCK*%
X135100000Y-46020000D03*
%TO.P,U1,6,MOSI*%
%TO.N,/NRF_MOSI*%
X137640000Y-46020000D03*
%TO.P,U1,7,MISO*%
%TO.N,/NRF_MISO*%
X135100000Y-48560000D03*
%TO.P,U1,8,IRQ*%
%TO.N,unconnected-(U1-IRQ-Pad8)*%
X137640000Y-48560000D03*
%TD*%
D17*
%TO.P,U2,1,VCC*%
%TO.N,VCC*%
X126735000Y-41497500D03*
%TO.P,U2,2,PA4*%
%TO.N,/NRF_CSN*%
X126735000Y-42767500D03*
%TO.P,U2,3,PA5*%
%TO.N,/NRF_CE*%
X126735000Y-44037500D03*
%TO.P,U2,4,PA6*%
%TO.N,unconnected-(U2-PA6-Pad4)*%
X126735000Y-45307500D03*
%TO.P,U2,5,PA7*%
%TO.N,Net-(U2-PA7)*%
X126735000Y-46577500D03*
%TO.P,U2,6,PB3*%
%TO.N,unconnected-(U2-PB3-Pad6)*%
X126735000Y-47847500D03*
%TO.P,U2,7,PB2*%
%TO.N,unconnected-(U2-PB2-Pad7)*%
X126735000Y-49117500D03*
%TO.P,U2,8,PB1*%
%TO.N,/BME_SDA*%
X131685000Y-49117500D03*
%TO.P,U2,9,PB0*%
%TO.N,/BME_SCL*%
X131685000Y-47847500D03*
%TO.P,U2,10,~{RESET}/PA0*%
%TO.N,/UPDI*%
X131685000Y-46577500D03*
%TO.P,U2,11,PA1*%
%TO.N,/NRF_MOSI*%
X131685000Y-45307500D03*
%TO.P,U2,12,PA2*%
%TO.N,/NRF_MISO*%
X131685000Y-44037500D03*
%TO.P,U2,13,PA3*%
%TO.N,/NRF_SCK*%
X131685000Y-42767500D03*
%TO.P,U2,14,GND*%
%TO.N,GND*%
X131685000Y-41497500D03*
%TD*%
D18*
%TO.N,GND*%
X134280000Y-35180000D03*
X126950000Y-38710000D03*
X131110000Y-34880000D03*
X124020000Y-49110000D03*
X140810000Y-39270000D03*
X135040000Y-38160000D03*
X126420000Y-36230000D03*
X132520000Y-39750000D03*
X123830000Y-40520000D03*
X120540000Y-48750000D03*
X121740000Y-49080000D03*
X128860000Y-39080000D03*
%TO.N,/NRF_SCK*%
X133400000Y-42840000D03*
D19*
%TO.N,/BME_SDA*%
X128500000Y-47720000D03*
D20*
X130500000Y-38500000D03*
%TO.N,/BME_SCL*%
X131304726Y-39093650D03*
D19*
X129398205Y-47776848D03*
%TD*%
D21*
%TO.N,GND*%
X131510000Y-35280000D02*
X131510000Y-35480000D01*
X131510000Y-35480000D02*
X131740000Y-35710000D01*
X131110000Y-34880000D02*
X131510000Y-35280000D01*
X131740000Y-35710000D02*
X132390000Y-35710000D01*
X133590000Y-35180000D02*
X134280000Y-35180000D01*
X133060000Y-35710000D02*
X133590000Y-35180000D01*
X132390000Y-35710000D02*
X133060000Y-35710000D01*
X129840000Y-38100000D02*
X128860000Y-39080000D01*
X129840000Y-37660000D02*
X129840000Y-38100000D01*
%TO.N,VCC*%
X117105000Y-38945000D02*
X117105000Y-37750000D01*
X117720000Y-39560000D02*
X117105000Y-38945000D01*
X120790000Y-39560000D02*
X117720000Y-39560000D01*
X121680000Y-41300000D02*
X121270000Y-40890000D01*
X121270000Y-40040000D02*
X120790000Y-39560000D01*
X122140000Y-41300000D02*
X121680000Y-41300000D01*
X121270000Y-40890000D02*
X121270000Y-40040000D01*
X122330000Y-41490000D02*
X122140000Y-41300000D01*
X122325000Y-42085000D02*
X122325000Y-41495000D01*
X122325000Y-41495000D02*
X122330000Y-41490000D01*
X120995000Y-42085000D02*
X122325000Y-42085000D01*
X119655000Y-41500000D02*
X120410000Y-41500000D01*
X120410000Y-41500000D02*
X120995000Y-42085000D01*
D22*
%TO.N,Net-(U2-PA7)*%
X125110000Y-45410000D02*
X125110000Y-46290000D01*
X124950000Y-45250000D02*
X125110000Y-45410000D01*
X125397500Y-46577500D02*
X126735000Y-46577500D01*
X124940000Y-45260000D02*
X124950000Y-45250000D01*
X125110000Y-46290000D02*
X125397500Y-46577500D01*
X124150000Y-45260000D02*
X124940000Y-45260000D01*
%TO.N,/NRF_CE*%
X128458500Y-43461500D02*
X135081500Y-43461500D01*
X127882500Y-44037500D02*
X128458500Y-43461500D01*
X126735000Y-44037500D02*
X127882500Y-44037500D01*
X135081500Y-43461500D02*
X135100000Y-43480000D01*
D23*
%TO.N,VCC*%
X125312500Y-40637500D02*
X125875000Y-40637500D01*
X123865000Y-42085000D02*
X125312500Y-40637500D01*
X122325000Y-42085000D02*
X123865000Y-42085000D01*
D22*
%TO.N,/NRF_MOSI*%
X136310000Y-49320000D02*
X136310000Y-47350000D01*
X133070000Y-48660000D02*
X134360000Y-49950000D01*
X133070000Y-45470000D02*
X133070000Y-48660000D01*
X134360000Y-49950000D02*
X135680000Y-49950000D01*
X135680000Y-49950000D02*
X136310000Y-49320000D01*
X132907500Y-45307500D02*
X133070000Y-45470000D01*
X131685000Y-45307500D02*
X132907500Y-45307500D01*
X136310000Y-47350000D02*
X137640000Y-46020000D01*
%TO.N,/NRF_MISO*%
X133500000Y-44590000D02*
X133500000Y-47760000D01*
X133500000Y-47760000D02*
X134300000Y-48560000D01*
X132947500Y-44037500D02*
X133500000Y-44590000D01*
X134300000Y-48560000D02*
X135100000Y-48560000D01*
X131685000Y-44037500D02*
X132947500Y-44037500D01*
%TO.N,/BME_SCL*%
X132390000Y-38500000D02*
X132390000Y-37660000D01*
X131796350Y-39093650D02*
X132390000Y-38500000D01*
X131304726Y-39093650D02*
X131796350Y-39093650D01*
%TO.N,/BME_SDA*%
X131490000Y-37010000D02*
X132390000Y-37010000D01*
X130950000Y-37550000D02*
X131490000Y-37010000D01*
X130950000Y-38050000D02*
X130950000Y-37550000D01*
X130500000Y-38500000D02*
X130950000Y-38050000D01*
D21*
%TO.N,VCC*%
X137755000Y-37345000D02*
X137755000Y-38590000D01*
X136770000Y-36360000D02*
X137755000Y-37345000D01*
X132390000Y-36360000D02*
X136770000Y-36360000D01*
D23*
X131150000Y-36710000D02*
X131150000Y-36360000D01*
X130850000Y-37010000D02*
X131150000Y-36710000D01*
X129840000Y-37010000D02*
X130850000Y-37010000D01*
D21*
X131150000Y-36360000D02*
X132390000Y-36360000D01*
X130500000Y-35710000D02*
X131150000Y-36360000D01*
X129840000Y-35710000D02*
X130500000Y-35710000D01*
D23*
X128210000Y-37010000D02*
X129840000Y-37010000D01*
X128000000Y-37220000D02*
X128210000Y-37010000D01*
X128000000Y-37775000D02*
X128000000Y-37220000D01*
%TO.N,GND*%
X128000000Y-36225000D02*
X128755000Y-36225000D01*
X128755000Y-36225000D02*
X128890000Y-36360000D01*
X128890000Y-36360000D02*
X129840000Y-36360000D01*
D21*
X128220000Y-39720000D02*
X128860000Y-39080000D01*
X124020000Y-49110000D02*
X124300000Y-48830000D01*
X127425000Y-39720000D02*
X128220000Y-39720000D01*
X122340000Y-40520000D02*
X122325000Y-40535000D01*
D23*
X134542500Y-41497500D02*
X135100000Y-40940000D01*
D21*
X124300000Y-48830000D02*
X124300000Y-48620000D01*
X124300000Y-48620000D02*
X124302500Y-48617500D01*
X124302500Y-48617500D02*
X124302500Y-47370000D01*
D23*
X128000000Y-36225000D02*
X126425000Y-36225000D01*
X126425000Y-36225000D02*
X126420000Y-36230000D01*
D21*
X123830000Y-40520000D02*
X122340000Y-40520000D01*
D23*
%TO.N,VCC*%
X125875000Y-40637500D02*
X126735000Y-41497500D01*
X125875000Y-40055000D02*
X125875000Y-39720000D01*
X125875000Y-38595000D02*
X126695000Y-37775000D01*
X137755000Y-38590000D02*
X137755000Y-40825000D01*
X125875000Y-39720000D02*
X125875000Y-40637500D01*
X125875000Y-39720000D02*
X125875000Y-38595000D01*
X137755000Y-40825000D02*
X137640000Y-40940000D01*
X126735000Y-41497500D02*
X126437500Y-41497500D01*
X119655000Y-41500000D02*
X119660000Y-41500000D01*
X126695000Y-37775000D02*
X128000000Y-37775000D01*
D22*
%TO.N,/NRF_SCK*%
X131685000Y-42767500D02*
X133327500Y-42767500D01*
X133327500Y-42767500D02*
X133400000Y-42840000D01*
%TO.N,/NRF_CSN*%
X126735000Y-42767500D02*
X129802500Y-42767500D01*
X130378500Y-42191500D02*
X136351500Y-42191500D01*
X129802500Y-42767500D02*
X130378500Y-42191500D01*
X136351500Y-42191500D02*
X137640000Y-43480000D01*
D23*
X126735000Y-42767500D02*
X127542500Y-42767500D01*
D22*
%TO.N,/BME_SDA*%
X129117500Y-49117500D02*
X128500000Y-48500000D01*
X128500000Y-48500000D02*
X128500000Y-47720000D01*
X131685000Y-49117500D02*
X129117500Y-49117500D01*
%TO.N,/BME_SCL*%
X131685000Y-47847500D02*
X129468857Y-47847500D01*
X129468857Y-47847500D02*
X129398205Y-47776848D01*
%TO.N,/UPDI*%
X125760888Y-47240000D02*
X125380000Y-47620888D01*
X117115000Y-41955000D02*
X117115000Y-41500000D01*
X127960000Y-47240000D02*
X125760888Y-47240000D01*
X125380000Y-47620888D02*
X125380000Y-49120000D01*
X118380000Y-48040000D02*
X118380000Y-43260000D01*
X128622500Y-46577500D02*
X127960000Y-47240000D01*
X131685000Y-46577500D02*
X128622500Y-46577500D01*
X118380000Y-43260000D02*
X118400000Y-43240000D01*
X125380000Y-49120000D02*
X124440000Y-50060000D01*
X124440000Y-50060000D02*
X120400000Y-50060000D01*
X118400000Y-43240000D02*
X117115000Y-41955000D01*
X120400000Y-50060000D02*
X118380000Y-48040000D01*
%TO.N,Net-(D1-A)*%
X122500000Y-47297500D02*
X122427500Y-47370000D01*
X122500000Y-45260000D02*
X122500000Y-47297500D01*
%TD*%
%TA.AperFunction,Conductor*%
%TO.N,GND*%
G36*
X125205111Y-41731992D02*
G01*
X125261044Y-41773864D01*
X125280853Y-41813579D01*
X125308254Y-41907893D01*
X125308255Y-41907896D01*
X125391917Y-42049362D01*
X125396702Y-42055531D01*
X125394256Y-42057427D01*
X125420857Y-42106142D01*
X125415873Y-42175834D01*
X125395069Y-42208203D01*
X125396702Y-42209469D01*
X125391917Y-42215637D01*
X125308255Y-42357103D01*
X125308254Y-42357106D01*
X125262402Y-42514926D01*
X125262401Y-42514932D01*
X125259500Y-42551798D01*
X125259500Y-42983201D01*
X125262401Y-43020067D01*
X125262402Y-43020073D01*
X125308254Y-43177893D01*
X125308255Y-43177896D01*
X125391917Y-43319362D01*
X125396702Y-43325531D01*
X125394256Y-43327427D01*
X125420857Y-43376142D01*
X125415873Y-43445834D01*
X125395069Y-43478203D01*
X125396702Y-43479469D01*
X125391917Y-43485637D01*
X125308255Y-43627103D01*
X125308254Y-43627106D01*
X125262402Y-43784926D01*
X125262401Y-43784932D01*
X125259500Y-43821798D01*
X125259500Y-44253201D01*
X125262401Y-44290067D01*
X125262402Y-44290073D01*
X125308254Y-44447893D01*
X125308255Y-44447896D01*
X125376940Y-44564037D01*
X125394123Y-44631761D01*
X125371963Y-44698024D01*
X125317497Y-44741787D01*
X125248017Y-44749156D01*
X125230367Y-44744583D01*
X125218788Y-44740654D01*
X125172135Y-44713719D01*
X125025766Y-44674500D01*
X125023810Y-44674500D01*
X125012622Y-44670704D01*
X124987226Y-44652852D01*
X124960709Y-44636689D01*
X124956826Y-44631482D01*
X124955461Y-44630523D01*
X124954678Y-44628602D01*
X124946346Y-44617429D01*
X124905472Y-44549815D01*
X124905470Y-44549813D01*
X124905469Y-44549811D01*
X124785188Y-44429530D01*
X124673131Y-44361789D01*
X124639606Y-44341522D01*
X124477196Y-44290914D01*
X124477194Y-44290913D01*
X124477192Y-44290913D01*
X124427778Y-44286423D01*
X124406616Y-44284500D01*
X123893384Y-44284500D01*
X123874145Y-44286248D01*
X123822807Y-44290913D01*
X123660393Y-44341522D01*
X123514811Y-44429530D01*
X123514810Y-44429531D01*
X123412681Y-44531661D01*
X123351358Y-44565146D01*
X123281666Y-44560162D01*
X123237319Y-44531661D01*
X123135188Y-44429530D01*
X123023131Y-44361789D01*
X122989606Y-44341522D01*
X122827196Y-44290914D01*
X122827194Y-44290913D01*
X122827192Y-44290913D01*
X122777778Y-44286423D01*
X122756616Y-44284500D01*
X122243384Y-44284500D01*
X122224145Y-44286248D01*
X122172807Y-44290913D01*
X122010393Y-44341522D01*
X121864811Y-44429530D01*
X121744530Y-44549811D01*
X121656522Y-44695393D01*
X121605913Y-44857807D01*
X121599500Y-44928386D01*
X121599500Y-45591613D01*
X121605913Y-45662192D01*
X121605913Y-45662194D01*
X121605914Y-45662196D01*
X121656522Y-45824606D01*
X121727257Y-45941616D01*
X121744530Y-45970188D01*
X121843952Y-46069610D01*
X121877437Y-46130933D01*
X121872453Y-46200625D01*
X121830581Y-46256558D01*
X121821369Y-46262829D01*
X121718997Y-46325973D01*
X121595974Y-46448996D01*
X121595971Y-46449000D01*
X121504642Y-46597066D01*
X121504637Y-46597077D01*
X121449913Y-46762223D01*
X121439500Y-46864144D01*
X121439500Y-47875855D01*
X121449913Y-47977776D01*
X121504637Y-48142922D01*
X121504642Y-48142933D01*
X121595971Y-48290999D01*
X121595974Y-48291003D01*
X121718996Y-48414025D01*
X121719000Y-48414028D01*
X121867066Y-48505357D01*
X121867069Y-48505358D01*
X121867075Y-48505362D01*
X122032225Y-48560087D01*
X122134152Y-48570500D01*
X122134157Y-48570500D01*
X122720843Y-48570500D01*
X122720848Y-48570500D01*
X122822775Y-48560087D01*
X122987925Y-48505362D01*
X123136003Y-48414026D01*
X123259026Y-48291003D01*
X123259755Y-48289821D01*
X123260466Y-48289181D01*
X123263507Y-48285336D01*
X123264163Y-48285855D01*
X123311701Y-48243097D01*
X123380664Y-48231873D01*
X123444746Y-48259715D01*
X123466761Y-48285123D01*
X123466888Y-48285023D01*
X123469113Y-48287838D01*
X123470833Y-48289822D01*
X123471365Y-48290685D01*
X123471369Y-48290690D01*
X123594308Y-48413629D01*
X123742285Y-48504903D01*
X123742290Y-48504905D01*
X123907326Y-48559592D01*
X124009184Y-48569999D01*
X124009197Y-48570000D01*
X124052500Y-48570000D01*
X124052500Y-47494000D01*
X124072185Y-47426961D01*
X124124989Y-47381206D01*
X124176500Y-47370000D01*
X124428500Y-47370000D01*
X124495539Y-47389685D01*
X124541294Y-47442489D01*
X124552500Y-47494000D01*
X124552500Y-48570000D01*
X124595803Y-48570000D01*
X124595815Y-48569999D01*
X124667897Y-48562635D01*
X124682971Y-48565437D01*
X124698147Y-48563255D01*
X124716622Y-48571692D01*
X124736590Y-48575404D01*
X124747756Y-48585910D01*
X124761703Y-48592280D01*
X124772683Y-48609365D01*
X124787475Y-48623284D01*
X124791751Y-48639037D01*
X124799477Y-48651058D01*
X124804500Y-48685993D01*
X124804500Y-48830258D01*
X124784815Y-48897297D01*
X124768181Y-48917939D01*
X124237939Y-49448181D01*
X124176616Y-49481666D01*
X124150258Y-49484500D01*
X120689742Y-49484500D01*
X120622703Y-49464815D01*
X120602061Y-49448181D01*
X119266249Y-48112369D01*
X119232764Y-48051046D01*
X119237748Y-47981354D01*
X119279620Y-47925421D01*
X119345084Y-47901004D01*
X119373328Y-47902215D01*
X119548754Y-47930000D01*
X119761246Y-47930000D01*
X119971127Y-47896757D01*
X119971130Y-47896757D01*
X120173217Y-47831095D01*
X120362554Y-47734622D01*
X120416716Y-47695270D01*
X120416717Y-47695270D01*
X119784409Y-47062962D01*
X119847993Y-47045925D01*
X119962007Y-46980099D01*
X120055099Y-46887007D01*
X120120925Y-46772993D01*
X120137962Y-46709408D01*
X120770270Y-47341717D01*
X120770270Y-47341716D01*
X120809622Y-47287554D01*
X120906095Y-47098217D01*
X120971757Y-46896130D01*
X120971757Y-46896127D01*
X121005000Y-46686246D01*
X121005000Y-46473753D01*
X120971757Y-46263872D01*
X120971757Y-46263869D01*
X120906095Y-46061782D01*
X120809624Y-45872449D01*
X120770270Y-45818282D01*
X120770269Y-45818282D01*
X120137962Y-46450590D01*
X120120925Y-46387007D01*
X120055099Y-46272993D01*
X119962007Y-46179901D01*
X119847993Y-46114075D01*
X119784407Y-46097036D01*
X120416716Y-45464728D01*
X120362547Y-45425373D01*
X120362547Y-45425372D01*
X120353500Y-45420763D01*
X120302706Y-45372788D01*
X120285912Y-45304966D01*
X120308451Y-45238832D01*
X120353508Y-45199793D01*
X120362816Y-45195051D01*
X120446015Y-45134604D01*
X120534786Y-45070109D01*
X120534788Y-45070106D01*
X120534792Y-45070104D01*
X120685104Y-44919792D01*
X120685106Y-44919788D01*
X120685109Y-44919786D01*
X120810048Y-44747820D01*
X120810047Y-44747820D01*
X120810051Y-44747816D01*
X120906557Y-44558412D01*
X120972246Y-44356243D01*
X121005500Y-44146287D01*
X121005500Y-43933713D01*
X120972246Y-43723757D01*
X120906557Y-43521588D01*
X120810051Y-43332184D01*
X120810049Y-43332181D01*
X120810048Y-43332179D01*
X120685109Y-43160213D01*
X120534786Y-43009890D01*
X120362820Y-42884951D01*
X120358926Y-42882967D01*
X120354054Y-42880485D01*
X120351256Y-42877842D01*
X120347523Y-42876906D01*
X120326059Y-42854045D01*
X120303259Y-42832512D01*
X120302333Y-42828775D01*
X120299698Y-42825968D01*
X120294000Y-42795127D01*
X120286463Y-42764692D01*
X120287704Y-42761048D01*
X120287005Y-42757261D01*
X120298886Y-42728233D01*
X120308999Y-42698556D01*
X120312436Y-42695128D01*
X120313472Y-42692599D01*
X120321705Y-42685886D01*
X120339203Y-42668441D01*
X120346315Y-42663458D01*
X120362816Y-42655051D01*
X120484034Y-42566981D01*
X120484907Y-42566370D01*
X120517026Y-42555530D01*
X120548974Y-42544131D01*
X120550056Y-42544382D01*
X120551108Y-42544028D01*
X120583997Y-42552275D01*
X120617028Y-42559957D01*
X120618494Y-42560926D01*
X120618879Y-42561023D01*
X120619269Y-42561438D01*
X120619643Y-42561686D01*
X120713095Y-42615639D01*
X120713097Y-42615641D01*
X120751151Y-42637611D01*
X120763215Y-42644577D01*
X120915943Y-42685501D01*
X120915946Y-42685501D01*
X121081653Y-42685501D01*
X121081669Y-42685500D01*
X121384996Y-42685500D01*
X121452035Y-42705185D01*
X121490535Y-42744404D01*
X121502031Y-42763043D01*
X121621955Y-42882967D01*
X121621959Y-42882970D01*
X121766294Y-42971998D01*
X121766297Y-42971999D01*
X121766303Y-42972003D01*
X121927292Y-43025349D01*
X122026655Y-43035500D01*
X122623344Y-43035499D01*
X122623352Y-43035498D01*
X122623355Y-43035498D01*
X122677760Y-43029940D01*
X122722708Y-43025349D01*
X122883697Y-42972003D01*
X123028044Y-42882968D01*
X123147968Y-42763044D01*
X123147971Y-42763038D01*
X123152276Y-42757595D01*
X123209296Y-42717215D01*
X123249547Y-42710500D01*
X123926607Y-42710500D01*
X123987029Y-42698481D01*
X124047452Y-42686463D01*
X124100475Y-42664500D01*
X124106281Y-42662094D01*
X124106288Y-42662093D01*
X124161281Y-42639314D01*
X124161280Y-42639314D01*
X124161286Y-42639312D01*
X124212509Y-42605084D01*
X124263733Y-42570858D01*
X124350858Y-42483733D01*
X124350859Y-42483731D01*
X124357925Y-42476665D01*
X124357927Y-42476661D01*
X125074097Y-41760492D01*
X125135419Y-41727008D01*
X125205111Y-41731992D01*
G37*
%TD.AperFunction*%
%TA.AperFunction,Conductor*%
G36*
X136536942Y-36980185D02*
G01*
X136557584Y-36996819D01*
X137118181Y-37557416D01*
X137132884Y-37584343D01*
X137149477Y-37610162D01*
X137150368Y-37616362D01*
X137151666Y-37618739D01*
X137154500Y-37645097D01*
X137154500Y-37649995D01*
X137134815Y-37717034D01*
X137095600Y-37755532D01*
X137076954Y-37767033D01*
X136957029Y-37886959D01*
X136868001Y-38031294D01*
X136867996Y-38031305D01*
X136814651Y-38192290D01*
X136804500Y-38291647D01*
X136804500Y-38888337D01*
X136804501Y-38888355D01*
X136814650Y-38987707D01*
X136814651Y-38987710D01*
X136867996Y-39148694D01*
X136868001Y-39148705D01*
X136957029Y-39293040D01*
X136957032Y-39293044D01*
X137076956Y-39412968D01*
X137076963Y-39412972D01*
X137082404Y-39417274D01*
X137084074Y-39419632D01*
X137086703Y-39420833D01*
X137104140Y-39447966D01*
X137122785Y-39474293D01*
X137123389Y-39477919D01*
X137124477Y-39479611D01*
X137129500Y-39514546D01*
X137129500Y-39608424D01*
X137109815Y-39675463D01*
X137061795Y-39718909D01*
X136932179Y-39784951D01*
X136760215Y-39909889D01*
X136646285Y-40023819D01*
X136584962Y-40057303D01*
X136515270Y-40052319D01*
X136459337Y-40010447D01*
X136442422Y-39979470D01*
X136393354Y-39847913D01*
X136393350Y-39847906D01*
X136307190Y-39732812D01*
X136307187Y-39732809D01*
X136192093Y-39646649D01*
X136192086Y-39646645D01*
X136057379Y-39596403D01*
X136057372Y-39596401D01*
X135997844Y-39590000D01*
X135350000Y-39590000D01*
X135350000Y-40506988D01*
X135292993Y-40474075D01*
X135165826Y-40440000D01*
X135034174Y-40440000D01*
X134907007Y-40474075D01*
X134850000Y-40506988D01*
X134850000Y-39590000D01*
X134202155Y-39590000D01*
X134142627Y-39596401D01*
X134142620Y-39596403D01*
X134007913Y-39646645D01*
X134007906Y-39646649D01*
X133892812Y-39732809D01*
X133892809Y-39732812D01*
X133806649Y-39847906D01*
X133806645Y-39847913D01*
X133756403Y-39982620D01*
X133756401Y-39982627D01*
X133750000Y-40042155D01*
X133750000Y-40690000D01*
X134666988Y-40690000D01*
X134634075Y-40747007D01*
X134600000Y-40874174D01*
X134600000Y-41005826D01*
X134634075Y-41132993D01*
X134666988Y-41190000D01*
X133750000Y-41190000D01*
X133750000Y-41492000D01*
X133730315Y-41559039D01*
X133677511Y-41604794D01*
X133626000Y-41616000D01*
X130302733Y-41616000D01*
X130156363Y-41655219D01*
X130025135Y-41730985D01*
X130025132Y-41730987D01*
X129600439Y-42155681D01*
X129539116Y-42189166D01*
X129512758Y-42192000D01*
X128211122Y-42192000D01*
X128144083Y-42172315D01*
X128098328Y-42119511D01*
X128088384Y-42050353D01*
X128104390Y-42004879D01*
X128111343Y-41993120D01*
X128161744Y-41907898D01*
X128207598Y-41750069D01*
X128210500Y-41713194D01*
X128210500Y-41281806D01*
X128207800Y-41247498D01*
X130212704Y-41247498D01*
X130212705Y-41247500D01*
X131435000Y-41247500D01*
X131935000Y-41247500D01*
X133157295Y-41247500D01*
X133157295Y-41247498D01*
X133157100Y-41245013D01*
X133111281Y-41087301D01*
X133027685Y-40945947D01*
X133027678Y-40945938D01*
X132911561Y-40829821D01*
X132911552Y-40829814D01*
X132770196Y-40746217D01*
X132770193Y-40746216D01*
X132612495Y-40700400D01*
X132612489Y-40700399D01*
X132575649Y-40697500D01*
X131935000Y-40697500D01*
X131935000Y-41247500D01*
X131435000Y-41247500D01*
X131435000Y-40697500D01*
X130794350Y-40697500D01*
X130757510Y-40700399D01*
X130757504Y-40700400D01*
X130599806Y-40746216D01*
X130599803Y-40746217D01*
X130458447Y-40829814D01*
X130458438Y-40829821D01*
X130342321Y-40945938D01*
X130342314Y-40945947D01*
X130258718Y-41087301D01*
X130212899Y-41245013D01*
X130212704Y-41247498D01*
X128207800Y-41247498D01*
X128207598Y-41244931D01*
X128198243Y-41212732D01*
X128161745Y-41087106D01*
X128161744Y-41087103D01*
X128161744Y-41087102D01*
X128078081Y-40945635D01*
X128078079Y-40945633D01*
X128078076Y-40945629D01*
X127961866Y-40829419D01*
X127959593Y-40827656D01*
X127958267Y-40825820D01*
X127956349Y-40823902D01*
X127956658Y-40823592D01*
X127918685Y-40771014D01*
X127914895Y-40701247D01*
X127949425Y-40640506D01*
X127970495Y-40624137D01*
X128102733Y-40542571D01*
X128222572Y-40422732D01*
X128222575Y-40422728D01*
X128311542Y-40278492D01*
X128311547Y-40278481D01*
X128364855Y-40117606D01*
X128374999Y-40018322D01*
X128375000Y-40018309D01*
X128375000Y-39970000D01*
X127549000Y-39970000D01*
X127481961Y-39950315D01*
X127436206Y-39897511D01*
X127425000Y-39846000D01*
X127425000Y-39594000D01*
X127444685Y-39526961D01*
X127497489Y-39481206D01*
X127549000Y-39470000D01*
X128374999Y-39470000D01*
X128374999Y-39421692D01*
X128374998Y-39421677D01*
X128364855Y-39322392D01*
X128311547Y-39161518D01*
X128311542Y-39161507D01*
X128222575Y-39017271D01*
X128222572Y-39017267D01*
X128142485Y-38937180D01*
X128109000Y-38875857D01*
X128113984Y-38806165D01*
X128155856Y-38750232D01*
X128221320Y-38725815D01*
X128230162Y-38725499D01*
X128298344Y-38725499D01*
X128298352Y-38725498D01*
X128298355Y-38725498D01*
X128352760Y-38719940D01*
X128397708Y-38715349D01*
X128558697Y-38662003D01*
X128703044Y-38572968D01*
X128822968Y-38453044D01*
X128912003Y-38308697D01*
X128912005Y-38308690D01*
X128912301Y-38308211D01*
X128964249Y-38261487D01*
X129033212Y-38250264D01*
X129092151Y-38274041D01*
X129097911Y-38278352D01*
X129097913Y-38278354D01*
X129232620Y-38328596D01*
X129232627Y-38328598D01*
X129292155Y-38334999D01*
X129292172Y-38335000D01*
X129475500Y-38335000D01*
X129542539Y-38354685D01*
X129588294Y-38407489D01*
X129599500Y-38459000D01*
X129599500Y-38588695D01*
X129634103Y-38762658D01*
X129634106Y-38762667D01*
X129701983Y-38926540D01*
X129701990Y-38926553D01*
X129800535Y-39074034D01*
X129800538Y-39074038D01*
X129925961Y-39199461D01*
X129925965Y-39199464D01*
X130073446Y-39298009D01*
X130073459Y-39298016D01*
X130196363Y-39348923D01*
X130237334Y-39365894D01*
X130237336Y-39365894D01*
X130237341Y-39365896D01*
X130396241Y-39397503D01*
X130458152Y-39429888D01*
X130486611Y-39471667D01*
X130506711Y-39520194D01*
X130605261Y-39667684D01*
X130605264Y-39667688D01*
X130730687Y-39793111D01*
X130730691Y-39793114D01*
X130878172Y-39891659D01*
X130878185Y-39891666D01*
X130989625Y-39937825D01*
X131042060Y-39959544D01*
X131042062Y-39959544D01*
X131042067Y-39959546D01*
X131216030Y-39994149D01*
X131216033Y-39994150D01*
X131216035Y-39994150D01*
X131393419Y-39994150D01*
X131393420Y-39994149D01*
X131467218Y-39979470D01*
X131567384Y-39959546D01*
X131567387Y-39959544D01*
X131567392Y-39959544D01*
X131641818Y-39928716D01*
X131652504Y-39924290D01*
X131731267Y-39891666D01*
X131731270Y-39891664D01*
X131731273Y-39891663D01*
X131878761Y-39793114D01*
X132004190Y-39667685D01*
X132020219Y-39643694D01*
X132061318Y-39605200D01*
X132149715Y-39554165D01*
X132850515Y-38853365D01*
X132926281Y-38722135D01*
X132965500Y-38575766D01*
X132965500Y-38427115D01*
X132985185Y-38360076D01*
X133037989Y-38314321D01*
X133046167Y-38310933D01*
X133053465Y-38308211D01*
X133132331Y-38278796D01*
X133247546Y-38192546D01*
X133333796Y-38077331D01*
X133384091Y-37942483D01*
X133390500Y-37882873D01*
X133390499Y-37437128D01*
X133384091Y-37377517D01*
X133384090Y-37377515D01*
X133384090Y-37377512D01*
X133382308Y-37369969D01*
X133383773Y-37369622D01*
X133379409Y-37308651D01*
X133383819Y-37293633D01*
X133384089Y-37292488D01*
X133384088Y-37292488D01*
X133384091Y-37292483D01*
X133390500Y-37232873D01*
X133390499Y-37084499D01*
X133410183Y-37017461D01*
X133462987Y-36971706D01*
X133514499Y-36960500D01*
X136469903Y-36960500D01*
X136536942Y-36980185D01*
G37*
%TD.AperFunction*%
%TA.AperFunction,Conductor*%
G36*
X127105585Y-38409347D02*
G01*
X127136204Y-38416401D01*
X127140290Y-38419538D01*
X127142492Y-38420185D01*
X127150010Y-38427001D01*
X127164198Y-38437895D01*
X127173682Y-38447614D01*
X127177032Y-38453044D01*
X127257885Y-38533897D01*
X127258371Y-38534395D01*
X127274404Y-38564630D01*
X127290792Y-38594641D01*
X127290735Y-38595425D01*
X127291105Y-38596122D01*
X127288248Y-38630207D01*
X127285808Y-38664333D01*
X127285335Y-38664963D01*
X127285270Y-38665748D01*
X127264435Y-38692883D01*
X127243937Y-38720267D01*
X127243199Y-38720541D01*
X127242720Y-38721167D01*
X127210508Y-38732735D01*
X127178473Y-38744684D01*
X127177703Y-38744516D01*
X127176962Y-38744783D01*
X127169632Y-38745000D01*
X127151695Y-38745000D01*
X127151676Y-38745001D01*
X127052392Y-38755144D01*
X126891518Y-38808452D01*
X126884968Y-38811507D01*
X126884218Y-38809898D01*
X126825725Y-38825898D01*
X126759063Y-38804969D01*
X126714299Y-38751323D01*
X126705644Y-38681991D01*
X126735846Y-38618987D01*
X126740332Y-38614257D01*
X126917771Y-38436819D01*
X126979094Y-38403334D01*
X127005452Y-38400500D01*
X127075453Y-38400500D01*
X127105585Y-38409347D01*
G37*
%TD.AperFunction*%
%TA.AperFunction,Conductor*%
G36*
X148001917Y-34520185D02*
G01*
X148047672Y-34572989D01*
X148058878Y-34624500D01*
X148058878Y-50936122D01*
X148039193Y-51003161D01*
X147986389Y-51048916D01*
X147934878Y-51060122D01*
X114624500Y-51060122D01*
X114557461Y-51040437D01*
X114511706Y-50987633D01*
X114500500Y-50936122D01*
X114500500Y-37643713D01*
X115754500Y-37643713D01*
X115754500Y-37856287D01*
X115758711Y-37882873D01*
X115782218Y-38031294D01*
X115787754Y-38066243D01*
X115847546Y-38250264D01*
X115853444Y-38268414D01*
X115949951Y-38457820D01*
X116074890Y-38629786D01*
X116074896Y-38629792D01*
X116225208Y-38780104D01*
X116397184Y-38905051D01*
X116437291Y-38925486D01*
X116488087Y-38973460D01*
X116499402Y-38999145D01*
X116504499Y-39015533D01*
X116504499Y-39024057D01*
X116545423Y-39176785D01*
X116558517Y-39199464D01*
X116565428Y-39211434D01*
X116565429Y-39211437D01*
X116624475Y-39313709D01*
X116624481Y-39313717D01*
X116743349Y-39432585D01*
X116743355Y-39432590D01*
X117239478Y-39928713D01*
X117239480Y-39928716D01*
X117248589Y-39937825D01*
X117266154Y-39970000D01*
X117282067Y-39999142D01*
X117282066Y-39999146D01*
X117282069Y-39999151D01*
X117279702Y-40032219D01*
X117277083Y-40068834D01*
X117277080Y-40068837D01*
X117277080Y-40068842D01*
X117258902Y-40093121D01*
X117235211Y-40124767D01*
X117235207Y-40124768D01*
X117235204Y-40124773D01*
X117196590Y-40139171D01*
X117169747Y-40149184D01*
X117169740Y-40149184D01*
X117169738Y-40149185D01*
X117169735Y-40149184D01*
X117160901Y-40149500D01*
X116217129Y-40149500D01*
X116217123Y-40149501D01*
X116157516Y-40155908D01*
X116022671Y-40206202D01*
X116022664Y-40206206D01*
X115907455Y-40292452D01*
X115907452Y-40292455D01*
X115821206Y-40407664D01*
X115821202Y-40407671D01*
X115770908Y-40542517D01*
X115764501Y-40602116D01*
X115764500Y-40602135D01*
X115764500Y-42397870D01*
X115764501Y-42397876D01*
X115770908Y-42457483D01*
X115821202Y-42592328D01*
X115821206Y-42592335D01*
X115907452Y-42707544D01*
X115907455Y-42707547D01*
X116022664Y-42793793D01*
X116022671Y-42793797D01*
X116154082Y-42842810D01*
X116210016Y-42884681D01*
X116234433Y-42950145D01*
X116219582Y-43018418D01*
X116198431Y-43046673D01*
X116084889Y-43160215D01*
X115959951Y-43332179D01*
X115863444Y-43521585D01*
X115797753Y-43723760D01*
X115764500Y-43933713D01*
X115764500Y-44146286D01*
X115787406Y-44290913D01*
X115797754Y-44356243D01*
X115860648Y-44549811D01*
X115863444Y-44558414D01*
X115959951Y-44747820D01*
X116084890Y-44919786D01*
X116235213Y-45070109D01*
X116407182Y-45195050D01*
X116415946Y-45199516D01*
X116466742Y-45247491D01*
X116483536Y-45315312D01*
X116460998Y-45381447D01*
X116415946Y-45420484D01*
X116407182Y-45424949D01*
X116235213Y-45549890D01*
X116084890Y-45700213D01*
X115959951Y-45872179D01*
X115863444Y-46061585D01*
X115863443Y-46061587D01*
X115863443Y-46061588D01*
X115842052Y-46127422D01*
X115797753Y-46263760D01*
X115764500Y-46473713D01*
X115764500Y-46686286D01*
X115797735Y-46896127D01*
X115797754Y-46896243D01*
X115856289Y-47076395D01*
X115863444Y-47098414D01*
X115959951Y-47287820D01*
X116084890Y-47459786D01*
X116235213Y-47610109D01*
X116407179Y-47735048D01*
X116407181Y-47735049D01*
X116407184Y-47735051D01*
X116596588Y-47831557D01*
X116798757Y-47897246D01*
X117008713Y-47930500D01*
X117008714Y-47930500D01*
X117221286Y-47930500D01*
X117221287Y-47930500D01*
X117431243Y-47897246D01*
X117633412Y-47831557D01*
X117633413Y-47831556D01*
X117638046Y-47830051D01*
X117638397Y-47831131D01*
X117702521Y-47824240D01*
X117764999Y-47855517D01*
X117800649Y-47915608D01*
X117804500Y-47946269D01*
X117804500Y-47964234D01*
X117804500Y-48115766D01*
X117811777Y-48142925D01*
X117843719Y-48262136D01*
X117881602Y-48327750D01*
X117919485Y-48393365D01*
X119939485Y-50413365D01*
X120046635Y-50520515D01*
X120177865Y-50596281D01*
X120324233Y-50635500D01*
X120324234Y-50635500D01*
X120324235Y-50635500D01*
X124515764Y-50635500D01*
X124515766Y-50635500D01*
X124662135Y-50596281D01*
X124793365Y-50520515D01*
X125452794Y-49861084D01*
X125514115Y-49827601D01*
X125583806Y-49832585D01*
X125603593Y-49842034D01*
X125649602Y-49869244D01*
X125677145Y-49877246D01*
X125807426Y-49915097D01*
X125807429Y-49915097D01*
X125807431Y-49915098D01*
X125844306Y-49918000D01*
X125844314Y-49918000D01*
X127625686Y-49918000D01*
X127625694Y-49918000D01*
X127662569Y-49915098D01*
X127662571Y-49915097D01*
X127662573Y-49915097D01*
X127704191Y-49903005D01*
X127820398Y-49869244D01*
X127961865Y-49785581D01*
X128078081Y-49669365D01*
X128161744Y-49527898D01*
X128207598Y-49370069D01*
X128210500Y-49333194D01*
X128210500Y-49323742D01*
X128230185Y-49256703D01*
X128282989Y-49210948D01*
X128352147Y-49201004D01*
X128415703Y-49230029D01*
X128422181Y-49236061D01*
X128656985Y-49470865D01*
X128764135Y-49578015D01*
X128895365Y-49653781D01*
X129041734Y-49693000D01*
X130314192Y-49693000D01*
X130381231Y-49712685D01*
X130401868Y-49729314D01*
X130458135Y-49785581D01*
X130599602Y-49869244D01*
X130627145Y-49877246D01*
X130757426Y-49915097D01*
X130757429Y-49915097D01*
X130757431Y-49915098D01*
X130794306Y-49918000D01*
X130794314Y-49918000D01*
X132575686Y-49918000D01*
X132575694Y-49918000D01*
X132612569Y-49915098D01*
X132612571Y-49915097D01*
X132612573Y-49915097D01*
X132654191Y-49903005D01*
X132770398Y-49869244D01*
X132911865Y-49785581D01*
X133028081Y-49669365D01*
X133034929Y-49657784D01*
X133085996Y-49610101D01*
X133154737Y-49597595D01*
X133219327Y-49624239D01*
X133229343Y-49633223D01*
X133899485Y-50303365D01*
X134006635Y-50410515D01*
X134137865Y-50486281D01*
X134284233Y-50525500D01*
X134284234Y-50525500D01*
X134284235Y-50525500D01*
X135755764Y-50525500D01*
X135755766Y-50525500D01*
X135902135Y-50486281D01*
X136033365Y-50410515D01*
X136739517Y-49704362D01*
X136800838Y-49670879D01*
X136870529Y-49675863D01*
X136900080Y-49691726D01*
X136932184Y-49715051D01*
X137121588Y-49811557D01*
X137323757Y-49877246D01*
X137533713Y-49910500D01*
X137533714Y-49910500D01*
X137746286Y-49910500D01*
X137746287Y-49910500D01*
X137956243Y-49877246D01*
X138158412Y-49811557D01*
X138347816Y-49715051D01*
X138432149Y-49653780D01*
X138519786Y-49590109D01*
X138519788Y-49590106D01*
X138519792Y-49590104D01*
X138670104Y-49439792D01*
X138670106Y-49439788D01*
X138670109Y-49439786D01*
X138795048Y-49267820D01*
X138795047Y-49267820D01*
X138795051Y-49267816D01*
X138891557Y-49078412D01*
X138957246Y-48876243D01*
X138990500Y-48666287D01*
X138990500Y-48453713D01*
X138957246Y-48243757D01*
X138891557Y-48041588D01*
X138795051Y-47852184D01*
X138795049Y-47852181D01*
X138795048Y-47852179D01*
X138670109Y-47680213D01*
X138519786Y-47529890D01*
X138347820Y-47404951D01*
X138347115Y-47404591D01*
X138339054Y-47400485D01*
X138288259Y-47352512D01*
X138271463Y-47284692D01*
X138293999Y-47218556D01*
X138339054Y-47179515D01*
X138347816Y-47175051D01*
X138453299Y-47098414D01*
X138519786Y-47050109D01*
X138519788Y-47050106D01*
X138519792Y-47050104D01*
X138670104Y-46899792D01*
X138670106Y-46899788D01*
X138670109Y-46899786D01*
X138795048Y-46727820D01*
X138795047Y-46727820D01*
X138795051Y-46727816D01*
X138891557Y-46538412D01*
X138957246Y-46336243D01*
X138990500Y-46126287D01*
X138990500Y-45913713D01*
X138957246Y-45703757D01*
X138891557Y-45501588D01*
X138795051Y-45312184D01*
X138795049Y-45312181D01*
X138795048Y-45312179D01*
X138670109Y-45140213D01*
X138519786Y-44989890D01*
X138347820Y-44864951D01*
X138347115Y-44864591D01*
X138339054Y-44860485D01*
X138288259Y-44812512D01*
X138271463Y-44744692D01*
X138293999Y-44678556D01*
X138339054Y-44639515D01*
X138347816Y-44635051D01*
X138372071Y-44617429D01*
X138519786Y-44510109D01*
X138519788Y-44510106D01*
X138519792Y-44510104D01*
X138670104Y-44359792D01*
X138670106Y-44359788D01*
X138670109Y-44359786D01*
X138795048Y-44187820D01*
X138795047Y-44187820D01*
X138795051Y-44187816D01*
X138891557Y-43998412D01*
X138930450Y-43878711D01*
X142149500Y-43878711D01*
X142149500Y-44121288D01*
X142181161Y-44361785D01*
X142243947Y-44596104D01*
X142336773Y-44820205D01*
X142336776Y-44820212D01*
X142458064Y-45030289D01*
X142458066Y-45030292D01*
X142458067Y-45030293D01*
X142605733Y-45222736D01*
X142605739Y-45222743D01*
X142777256Y-45394260D01*
X142777263Y-45394266D01*
X142817803Y-45425373D01*
X142969711Y-45541936D01*
X143179788Y-45663224D01*
X143403900Y-45756054D01*
X143638211Y-45818838D01*
X143818586Y-45842584D01*
X143878711Y-45850500D01*
X143878712Y-45850500D01*
X144121289Y-45850500D01*
X144169388Y-45844167D01*
X144361789Y-45818838D01*
X144596100Y-45756054D01*
X144820212Y-45663224D01*
X145030289Y-45541936D01*
X145222738Y-45394265D01*
X145394265Y-45222738D01*
X145541936Y-45030289D01*
X145663224Y-44820212D01*
X145756054Y-44596100D01*
X145818838Y-44361789D01*
X145850500Y-44121288D01*
X145850500Y-43878712D01*
X145818838Y-43638211D01*
X145756054Y-43403900D01*
X145663224Y-43179788D01*
X145541936Y-42969711D01*
X145406950Y-42793793D01*
X145394266Y-42777263D01*
X145394260Y-42777256D01*
X145222743Y-42605739D01*
X145222736Y-42605733D01*
X145030293Y-42458067D01*
X145030292Y-42458066D01*
X145030289Y-42458064D01*
X144820212Y-42336776D01*
X144791659Y-42324949D01*
X144596104Y-42243947D01*
X144449603Y-42204692D01*
X144361789Y-42181162D01*
X144361788Y-42181161D01*
X144361785Y-42181161D01*
X144121289Y-42149500D01*
X144121288Y-42149500D01*
X143878712Y-42149500D01*
X143878711Y-42149500D01*
X143638214Y-42181161D01*
X143403895Y-42243947D01*
X143179794Y-42336773D01*
X143179785Y-42336777D01*
X142997851Y-42441817D01*
X142970718Y-42457483D01*
X142969706Y-42458067D01*
X142777263Y-42605733D01*
X142777256Y-42605739D01*
X142605739Y-42777256D01*
X142605733Y-42777263D01*
X142458067Y-42969706D01*
X142336777Y-43179785D01*
X142336773Y-43179794D01*
X142243947Y-43403895D01*
X142181161Y-43638214D01*
X142149500Y-43878711D01*
X138930450Y-43878711D01*
X138957246Y-43796243D01*
X138990500Y-43586287D01*
X138990500Y-43373713D01*
X138957246Y-43163757D01*
X138891557Y-42961588D01*
X138795051Y-42772184D01*
X138795049Y-42772181D01*
X138795048Y-42772179D01*
X138670109Y-42600213D01*
X138519786Y-42449890D01*
X138347820Y-42324951D01*
X138347115Y-42324591D01*
X138339054Y-42320485D01*
X138288259Y-42272512D01*
X138271463Y-42204692D01*
X138293999Y-42138556D01*
X138339054Y-42099515D01*
X138347816Y-42095051D01*
X138369789Y-42079086D01*
X138519786Y-41970109D01*
X138519788Y-41970106D01*
X138519792Y-41970104D01*
X138670104Y-41819792D01*
X138670106Y-41819788D01*
X138670109Y-41819786D01*
X138795048Y-41647820D01*
X138795047Y-41647820D01*
X138795051Y-41647816D01*
X138891557Y-41458412D01*
X138957246Y-41256243D01*
X138990500Y-41046287D01*
X138990500Y-40833713D01*
X138957246Y-40623757D01*
X138891557Y-40421588D01*
X138795051Y-40232184D01*
X138795049Y-40232181D01*
X138795048Y-40232179D01*
X138670109Y-40060213D01*
X138519790Y-39909894D01*
X138519785Y-39909890D01*
X138431615Y-39845831D01*
X138428274Y-39841499D01*
X138423297Y-39839226D01*
X138407164Y-39814123D01*
X138388949Y-39790501D01*
X138387696Y-39783829D01*
X138385523Y-39780448D01*
X138380500Y-39745513D01*
X138380500Y-39514547D01*
X138400185Y-39447508D01*
X138427595Y-39417276D01*
X138433041Y-39412969D01*
X138433044Y-39412968D01*
X138442668Y-39403343D01*
X138503987Y-39369856D01*
X138573679Y-39374835D01*
X138618034Y-39403339D01*
X138627267Y-39412572D01*
X138627271Y-39412575D01*
X138771507Y-39501542D01*
X138771518Y-39501547D01*
X138932393Y-39554855D01*
X139031683Y-39564999D01*
X139555000Y-39564999D01*
X139578308Y-39564999D01*
X139578322Y-39564998D01*
X139677607Y-39554855D01*
X139838481Y-39501547D01*
X139838492Y-39501542D01*
X139982728Y-39412575D01*
X139982732Y-39412572D01*
X140102572Y-39292732D01*
X140102575Y-39292728D01*
X140191542Y-39148492D01*
X140191547Y-39148481D01*
X140244855Y-38987606D01*
X140254999Y-38888322D01*
X140255000Y-38888309D01*
X140255000Y-38840000D01*
X139555000Y-38840000D01*
X139555000Y-39564999D01*
X139031683Y-39564999D01*
X139055000Y-39564998D01*
X139055000Y-38340000D01*
X139555000Y-38340000D01*
X140254999Y-38340000D01*
X140254999Y-38291692D01*
X140254998Y-38291677D01*
X140244855Y-38192392D01*
X140191547Y-38031518D01*
X140191542Y-38031507D01*
X140102575Y-37887271D01*
X140102572Y-37887267D01*
X139982732Y-37767427D01*
X139982728Y-37767424D01*
X139838492Y-37678457D01*
X139838481Y-37678452D01*
X139677606Y-37625144D01*
X139578322Y-37615000D01*
X139555000Y-37615000D01*
X139555000Y-38340000D01*
X139055000Y-38340000D01*
X139055000Y-37614999D01*
X139031693Y-37615000D01*
X139031674Y-37615001D01*
X138932392Y-37625144D01*
X138771518Y-37678452D01*
X138771507Y-37678457D01*
X138627271Y-37767424D01*
X138627264Y-37767430D01*
X138618028Y-37776665D01*
X138617384Y-37777016D01*
X138617026Y-37777656D01*
X138586752Y-37793740D01*
X138556703Y-37810146D01*
X138555972Y-37810093D01*
X138555324Y-37810438D01*
X138521164Y-37807601D01*
X138487011Y-37805157D01*
X138486180Y-37804697D01*
X138485694Y-37804657D01*
X138483338Y-37803124D01*
X138454913Y-37787389D01*
X138448435Y-37782423D01*
X138433044Y-37767032D01*
X138409054Y-37752234D01*
X138404060Y-37748406D01*
X138387003Y-37725071D01*
X138367677Y-37703582D01*
X138366043Y-37696394D01*
X138362830Y-37691998D01*
X138362034Y-37678752D01*
X138355500Y-37649995D01*
X138355500Y-37265945D01*
X138355500Y-37265943D01*
X138314577Y-37113216D01*
X138297190Y-37083101D01*
X138235524Y-36976290D01*
X138235521Y-36976286D01*
X138235520Y-36976284D01*
X138123716Y-36864480D01*
X138123715Y-36864479D01*
X138119385Y-36860149D01*
X138119374Y-36860139D01*
X137257590Y-35998355D01*
X137257588Y-35998352D01*
X137138717Y-35879481D01*
X137138716Y-35879480D01*
X137051904Y-35829360D01*
X137051904Y-35829359D01*
X137051900Y-35829358D01*
X137001785Y-35800423D01*
X136849057Y-35759499D01*
X136690943Y-35759499D01*
X136683347Y-35759499D01*
X136683331Y-35759500D01*
X133464862Y-35759500D01*
X133397823Y-35739815D01*
X133352068Y-35687011D01*
X133342124Y-35617853D01*
X133371149Y-35554297D01*
X133377181Y-35547819D01*
X133390000Y-35535000D01*
X133390000Y-35487172D01*
X133389999Y-35487155D01*
X133383598Y-35427627D01*
X133383596Y-35427620D01*
X133333354Y-35292913D01*
X133333350Y-35292906D01*
X133247190Y-35177812D01*
X133247187Y-35177809D01*
X133132093Y-35091649D01*
X133132086Y-35091645D01*
X132997379Y-35041403D01*
X132997372Y-35041401D01*
X132937844Y-35035000D01*
X132565000Y-35035000D01*
X132565000Y-35560500D01*
X132562449Y-35569185D01*
X132563738Y-35578147D01*
X132552759Y-35602187D01*
X132545315Y-35627539D01*
X132538474Y-35633466D01*
X132534713Y-35641703D01*
X132512478Y-35655992D01*
X132492511Y-35673294D01*
X132481996Y-35675581D01*
X132475935Y-35679477D01*
X132441000Y-35684500D01*
X132339000Y-35684500D01*
X132271961Y-35664815D01*
X132226206Y-35612011D01*
X132215000Y-35560500D01*
X132215000Y-35035000D01*
X131842155Y-35035000D01*
X131782627Y-35041401D01*
X131782620Y-35041403D01*
X131647913Y-35091645D01*
X131647906Y-35091649D01*
X131532812Y-35177809D01*
X131532809Y-35177812D01*
X131446649Y-35292906D01*
X131446645Y-35292913D01*
X131396403Y-35427620D01*
X131396401Y-35427625D01*
X131392115Y-35467488D01*
X131365375Y-35532038D01*
X131307982Y-35571885D01*
X131238156Y-35574376D01*
X131181145Y-35541910D01*
X130987590Y-35348355D01*
X130987588Y-35348352D01*
X130868717Y-35229481D01*
X130868716Y-35229480D01*
X130781904Y-35179360D01*
X130731785Y-35150423D01*
X130638850Y-35125520D01*
X130632607Y-35123102D01*
X130625456Y-35117607D01*
X130603087Y-35106741D01*
X130582334Y-35091206D01*
X130582328Y-35091202D01*
X130447482Y-35040908D01*
X130447483Y-35040908D01*
X130387883Y-35034501D01*
X130387881Y-35034500D01*
X130387873Y-35034500D01*
X130387864Y-35034500D01*
X129292129Y-35034500D01*
X129292123Y-35034501D01*
X129232516Y-35040908D01*
X129097671Y-35091202D01*
X129097664Y-35091206D01*
X128982455Y-35177452D01*
X128982452Y-35177455D01*
X128896206Y-35292664D01*
X128896202Y-35292671D01*
X128871924Y-35357766D01*
X128830053Y-35413700D01*
X128764589Y-35438117D01*
X128696316Y-35423265D01*
X128690645Y-35419971D01*
X128558492Y-35338457D01*
X128558481Y-35338452D01*
X128397606Y-35285144D01*
X128298322Y-35275000D01*
X128250000Y-35275000D01*
X128250000Y-35975000D01*
X128753293Y-35975000D01*
X128766349Y-35978833D01*
X128779929Y-35977894D01*
X128799221Y-35988486D01*
X128820332Y-35994685D01*
X128830552Y-36005688D01*
X128841175Y-36011520D01*
X128852765Y-36029600D01*
X128862261Y-36039823D01*
X128866426Y-36047493D01*
X128896204Y-36127331D01*
X128945666Y-36193404D01*
X128949967Y-36201323D01*
X128955495Y-36227020D01*
X128964683Y-36251652D01*
X128962728Y-36260639D01*
X128964662Y-36269629D01*
X128955419Y-36294237D01*
X128949832Y-36319925D01*
X128943330Y-36326427D01*
X128940096Y-36335038D01*
X128919011Y-36350746D01*
X128900427Y-36369331D01*
X128890750Y-36371800D01*
X128884066Y-36376781D01*
X128866467Y-36377999D01*
X128840999Y-36384500D01*
X128148389Y-36384500D01*
X128027551Y-36408535D01*
X128006993Y-36417050D01*
X127980397Y-36428067D01*
X127913715Y-36455688D01*
X127913714Y-36455689D01*
X127906760Y-36460335D01*
X127896467Y-36464792D01*
X127872475Y-36467758D01*
X127849410Y-36474980D01*
X127847198Y-36475000D01*
X127025001Y-36475000D01*
X127025001Y-36498322D01*
X127035144Y-36597607D01*
X127088452Y-36758481D01*
X127088457Y-36758492D01*
X127177424Y-36902728D01*
X127177427Y-36902732D01*
X127186660Y-36911965D01*
X127189583Y-36917319D01*
X127194637Y-36920743D01*
X127206135Y-36947631D01*
X127220145Y-36973288D01*
X127219709Y-36979374D01*
X127222109Y-36984985D01*
X127217246Y-37013813D01*
X127215161Y-37042980D01*
X127211244Y-37049401D01*
X127210489Y-37053882D01*
X127196758Y-37073154D01*
X127190692Y-37083101D01*
X127188721Y-37085266D01*
X127177032Y-37096956D01*
X127174817Y-37100546D01*
X127167166Y-37108955D01*
X127140839Y-37124984D01*
X127115699Y-37142787D01*
X127110054Y-37143728D01*
X127107488Y-37145291D01*
X127101551Y-37145146D01*
X127075453Y-37149500D01*
X126633392Y-37149500D01*
X126592852Y-37157563D01*
X126592838Y-37157566D01*
X126588684Y-37158393D01*
X126512548Y-37173537D01*
X126479207Y-37187347D01*
X126471885Y-37190379D01*
X126471877Y-37190382D01*
X126398719Y-37220684D01*
X126398705Y-37220692D01*
X126296272Y-37289138D01*
X126296264Y-37289144D01*
X125478430Y-38106978D01*
X125478420Y-38106988D01*
X125476270Y-38109139D01*
X125476267Y-38109142D01*
X125389142Y-38196267D01*
X125370669Y-38223914D01*
X125365595Y-38231507D01*
X125365591Y-38231512D01*
X125320690Y-38298710D01*
X125320685Y-38298719D01*
X125301723Y-38344499D01*
X125274051Y-38411309D01*
X125273537Y-38412549D01*
X125250495Y-38528394D01*
X125250281Y-38529467D01*
X125250278Y-38529483D01*
X125249500Y-38533389D01*
X125249500Y-38795452D01*
X125229815Y-38862491D01*
X125202410Y-38892719D01*
X125196958Y-38897029D01*
X125077029Y-39016959D01*
X124988001Y-39161294D01*
X124987996Y-39161305D01*
X124934651Y-39322290D01*
X124924500Y-39421647D01*
X124924500Y-40018337D01*
X124924502Y-40018358D01*
X124929872Y-40070932D01*
X124929514Y-40072853D01*
X124930198Y-40074685D01*
X124923156Y-40107055D01*
X124917102Y-40139625D01*
X124915630Y-40141654D01*
X124915347Y-40142958D01*
X124894196Y-40171213D01*
X124826642Y-40238767D01*
X124826641Y-40238767D01*
X124826640Y-40238768D01*
X124826639Y-40238770D01*
X124231697Y-40833713D01*
X123642229Y-41423181D01*
X123580906Y-41456666D01*
X123554548Y-41459500D01*
X123249547Y-41459500D01*
X123217416Y-41450065D01*
X123185061Y-41441413D01*
X123183625Y-41440143D01*
X123182508Y-41439815D01*
X123157834Y-41418955D01*
X123150182Y-41410546D01*
X123147968Y-41406956D01*
X123136278Y-41395266D01*
X123134308Y-41393101D01*
X123120251Y-41364200D01*
X123104855Y-41336004D01*
X123105070Y-41332988D01*
X123103748Y-41330269D01*
X123107546Y-41298365D01*
X123109839Y-41266312D01*
X123111709Y-41263401D01*
X123112009Y-41260889D01*
X123117965Y-41253667D01*
X123138343Y-41221962D01*
X123147572Y-41212732D01*
X123147573Y-41212731D01*
X123236542Y-41068492D01*
X123236547Y-41068481D01*
X123289855Y-40907606D01*
X123299999Y-40808322D01*
X123300000Y-40808309D01*
X123300000Y-40785000D01*
X122482221Y-40785000D01*
X122466735Y-40780851D01*
X122452995Y-40781507D01*
X122420241Y-40768395D01*
X122420229Y-40768392D01*
X122417461Y-40766794D01*
X122411574Y-40763395D01*
X122411573Y-40763394D01*
X122411571Y-40763393D01*
X122411571Y-40763392D01*
X122411566Y-40763391D01*
X122386998Y-40749206D01*
X122338783Y-40698638D01*
X122325000Y-40641820D01*
X122325000Y-40535000D01*
X122199000Y-40535000D01*
X122131961Y-40515315D01*
X122086206Y-40462511D01*
X122075000Y-40411000D01*
X122075000Y-40285000D01*
X122575000Y-40285000D01*
X123299999Y-40285000D01*
X123299999Y-40261692D01*
X123299998Y-40261677D01*
X123289855Y-40162392D01*
X123236547Y-40001518D01*
X123236542Y-40001507D01*
X123147575Y-39857271D01*
X123147572Y-39857267D01*
X123027732Y-39737427D01*
X123027728Y-39737424D01*
X122883492Y-39648457D01*
X122883481Y-39648452D01*
X122722606Y-39595144D01*
X122623322Y-39585000D01*
X122575000Y-39585000D01*
X122575000Y-40285000D01*
X122075000Y-40285000D01*
X122075000Y-39585000D01*
X122074999Y-39584999D01*
X122026693Y-39585000D01*
X122026675Y-39585001D01*
X121927390Y-39595144D01*
X121809953Y-39634058D01*
X121740124Y-39636459D01*
X121683269Y-39604033D01*
X121158717Y-39079481D01*
X121158709Y-39079475D01*
X121055042Y-39019623D01*
X121055026Y-39019615D01*
X121052028Y-39017884D01*
X121021785Y-39000423D01*
X121011634Y-38997703D01*
X121000198Y-38991928D01*
X120983671Y-38976432D01*
X120964328Y-38964638D01*
X120958672Y-38952991D01*
X120949229Y-38944137D01*
X120943703Y-38922165D01*
X120933808Y-38901787D01*
X120935121Y-38888039D01*
X120932189Y-38876378D01*
X120937839Y-38859600D01*
X120939912Y-38837907D01*
X120988597Y-38707376D01*
X120988598Y-38707372D01*
X120994999Y-38647844D01*
X120995000Y-38647827D01*
X120995000Y-38000000D01*
X120078012Y-38000000D01*
X120110925Y-37942993D01*
X120145000Y-37815826D01*
X120145000Y-37684174D01*
X120110925Y-37557007D01*
X120078012Y-37500000D01*
X120995000Y-37500000D01*
X120995000Y-36852172D01*
X120994999Y-36852155D01*
X120988598Y-36792627D01*
X120988596Y-36792620D01*
X120938354Y-36657913D01*
X120938350Y-36657906D01*
X120852190Y-36542812D01*
X120852187Y-36542809D01*
X120737093Y-36456649D01*
X120737086Y-36456645D01*
X120602379Y-36406403D01*
X120602372Y-36406401D01*
X120542844Y-36400000D01*
X119895000Y-36400000D01*
X119895000Y-37316988D01*
X119837993Y-37284075D01*
X119710826Y-37250000D01*
X119579174Y-37250000D01*
X119452007Y-37284075D01*
X119395000Y-37316988D01*
X119395000Y-36400000D01*
X118747155Y-36400000D01*
X118687627Y-36406401D01*
X118687620Y-36406403D01*
X118552913Y-36456645D01*
X118552906Y-36456649D01*
X118437812Y-36542809D01*
X118437809Y-36542812D01*
X118351649Y-36657906D01*
X118351646Y-36657912D01*
X118302577Y-36789471D01*
X118260705Y-36845404D01*
X118195241Y-36869821D01*
X118126968Y-36854969D01*
X118098714Y-36833818D01*
X117984786Y-36719890D01*
X117812820Y-36594951D01*
X117623414Y-36498444D01*
X117623413Y-36498443D01*
X117623412Y-36498443D01*
X117421243Y-36432754D01*
X117421241Y-36432753D01*
X117421240Y-36432753D01*
X117259957Y-36407208D01*
X117211287Y-36399500D01*
X116998713Y-36399500D01*
X116950042Y-36407208D01*
X116788760Y-36432753D01*
X116586585Y-36498444D01*
X116397179Y-36594951D01*
X116225213Y-36719890D01*
X116074890Y-36870213D01*
X115949951Y-37042179D01*
X115853444Y-37231585D01*
X115853443Y-37231587D01*
X115853443Y-37231588D01*
X115847461Y-37250000D01*
X115787753Y-37433760D01*
X115757441Y-37625144D01*
X115754500Y-37643713D01*
X114500500Y-37643713D01*
X114500500Y-35951677D01*
X127025000Y-35951677D01*
X127025000Y-35975000D01*
X127750000Y-35975000D01*
X127750000Y-35275000D01*
X127749999Y-35274999D01*
X127701693Y-35275000D01*
X127701675Y-35275001D01*
X127602392Y-35285144D01*
X127441518Y-35338452D01*
X127441507Y-35338457D01*
X127297271Y-35427424D01*
X127297267Y-35427427D01*
X127177427Y-35547267D01*
X127177424Y-35547271D01*
X127088457Y-35691507D01*
X127088452Y-35691518D01*
X127035144Y-35852393D01*
X127025000Y-35951677D01*
X114500500Y-35951677D01*
X114500500Y-34624500D01*
X114520185Y-34557461D01*
X114572989Y-34511706D01*
X114624500Y-34500500D01*
X147934878Y-34500500D01*
X148001917Y-34520185D01*
G37*
%TD.AperFunction*%
%TD*%
D24*
X134280000Y-35180000D03*
X126950000Y-38710000D03*
X131110000Y-34880000D03*
X124020000Y-49110000D03*
X140810000Y-39270000D03*
X135040000Y-38160000D03*
X126420000Y-36230000D03*
X132520000Y-39750000D03*
X123830000Y-40520000D03*
X120540000Y-48750000D03*
X121740000Y-49080000D03*
X128860000Y-39080000D03*
X133400000Y-42840000D03*
X128500000Y-47720000D03*
X130500000Y-38500000D03*
X131304726Y-39093650D03*
X129398205Y-47776848D03*
D25*
X119645000Y-37750000D03*
X117105000Y-37750000D03*
X117115000Y-41500000D03*
X119655000Y-41500000D03*
X117115000Y-44040000D03*
X119655000Y-44040000D03*
X117115000Y-46580000D03*
X119655000Y-46580000D03*
X144000000Y-44000000D03*
X135100000Y-40940000D03*
X137640000Y-40940000D03*
X135100000Y-43480000D03*
X137640000Y-43480000D03*
X135100000Y-46020000D03*
X137640000Y-46020000D03*
X135100000Y-48560000D03*
X137640000Y-48560000D03*
M02*
