%TF.GenerationSoftware,KiCad,Pcbnew,9.0.5*%
%TF.CreationDate,2025-11-26T16:17:29+01:00*%
%TF.ProjectId,Stacja_pogody_SD,53746163-6a61-45f7-906f-676f64795f53,rev?*%
%TF.SameCoordinates,Original*%
%TF.FileFunction,Copper,L2,Bot*%
%TF.FilePolarity,Positive*%
%FSLAX46Y46*%
G04 Gerber Fmt 4.6, Leading zero omitted, Abs format (unit mm)*
G04 Created by KiCad (PCBNEW 9.0.5) date 2025-11-26 16:17:29*
%MOMM*%
%LPD*%
G01*
G04 APERTURE LIST*
G04 Aperture macros list*
%AMRoundRect*
0 Rectangle with rounded corners*
0 $1 Rounding radius*
0 $2 $3 $4 $5 $6 $7 $8 $9 X,Y pos of 4 corners*
0 Add a 4 corners polygon primitive as box body*
4,1,4,$2,$3,$4,$5,$6,$7,$8,$9,$2,$3,0*
0 Add four circle primitives for the rounded corners*
1,1,$1+$1,$2,$3*
1,1,$1+$1,$4,$5*
1,1,$1+$1,$6,$7*
1,1,$1+$1,$8,$9*
0 Add four rect primitives between the rounded corners*
20,1,$1+$1,$2,$3,$4,$5,0*
20,1,$1+$1,$4,$5,$6,$7,0*
20,1,$1+$1,$6,$7,$8,$9,0*
20,1,$1+$1,$8,$9,$2,$3,0*%
G04 Aperture macros list end*
%TA.AperFunction,ComponentPad*%
%ADD10R,1.700000X1.700000*%
%TD*%
%TA.AperFunction,ComponentPad*%
%ADD11C,1.700000*%
%TD*%
%TA.AperFunction,SMDPad,CuDef*%
%ADD12RoundRect,0.200000X-0.275000X0.200000X-0.275000X-0.200000X0.275000X-0.200000X0.275000X0.200000X0*%
%TD*%
%TA.AperFunction,ViaPad*%
%ADD13C,0.600000*%
%TD*%
%TA.AperFunction,ViaPad*%
%ADD14C,0.700000*%
%TD*%
%TA.AperFunction,ViaPad*%
%ADD15C,0.800000*%
%TD*%
%TA.AperFunction,Conductor*%
%ADD16C,0.150000*%
%TD*%
%TA.AperFunction,Conductor*%
%ADD17C,0.200000*%
%TD*%
%ADD18C,0.300000*%
%ADD19C,0.350000*%
G04 APERTURE END LIST*
D10*
%TO.P,J1,1,Pin_1*%
%TO.N,GND*%
X119645000Y-37750000D03*
D11*
%TO.P,J1,2,Pin_2*%
%TO.N,VCC*%
X117105000Y-37750000D03*
%TD*%
D10*
%TO.P,J2,1,Pin_1*%
%TO.N,/UPDI*%
X117115000Y-41500000D03*
D11*
%TO.P,J2,2,Pin_2*%
%TO.N,VCC*%
X119655000Y-41500000D03*
%TO.P,J2,3,Pin_3*%
%TO.N,unconnected-(J2-Pin_3-Pad3)*%
X117115000Y-44040000D03*
%TO.P,J2,4,Pin_4*%
%TO.N,unconnected-(J2-Pin_4-Pad4)*%
X119655000Y-44040000D03*
%TO.P,J2,5,Pin_5*%
%TO.N,unconnected-(J2-Pin_5-Pad5)*%
X117115000Y-46580000D03*
%TO.P,J2,6,Pin_6*%
%TO.N,GND*%
X119655000Y-46580000D03*
%TD*%
D10*
%TO.P,U1,1,GND*%
%TO.N,GND*%
X135100000Y-40940000D03*
D11*
%TO.P,U1,2,VCC*%
%TO.N,VCC*%
X137640000Y-40940000D03*
%TO.P,U1,3,CE*%
%TO.N,/NRF_CE*%
X135100000Y-43480000D03*
%TO.P,U1,4,~{CSN}*%
%TO.N,/NRF_CSN*%
X137640000Y-43480000D03*
%TO.P,U1,5,SCK*%
%TO.N,/NRF_SCK*%
X135100000Y-46020000D03*
%TO.P,U1,6,MOSI*%
%TO.N,/NRF_MOSI*%
X137640000Y-46020000D03*
%TO.P,U1,7,MISO*%
%TO.N,/NRF_MISO*%
X135100000Y-48560000D03*
%TO.P,U1,8,IRQ*%
%TO.N,unconnected-(U1-IRQ-Pad8)*%
X137640000Y-48560000D03*
%TD*%
D12*
%TO.P,R3,1*%
%TO.N,/BME_SCL*%
X130480000Y-44775000D03*
%TO.P,R3,2*%
%TO.N,VCC*%
X130480000Y-46425000D03*
%TD*%
%TO.P,R2,1*%
%TO.N,/BME_SDA*%
X126530000Y-44970000D03*
%TO.P,R2,2*%
%TO.N,VCC*%
X126530000Y-46620000D03*
%TD*%
D13*
%TO.N,GND*%
X134280000Y-35180000D03*
X126950000Y-38710000D03*
X131110000Y-34880000D03*
X124020000Y-49110000D03*
X140810000Y-39270000D03*
X135040000Y-38160000D03*
X126420000Y-36230000D03*
X132520000Y-39750000D03*
X123830000Y-40520000D03*
X120540000Y-48750000D03*
X121740000Y-49080000D03*
X128860000Y-39080000D03*
%TO.N,/NRF_SCK*%
X133400000Y-42840000D03*
D14*
%TO.N,/BME_SDA*%
X128500000Y-47720000D03*
D15*
X130500000Y-38500000D03*
%TO.N,/BME_SCL*%
X131304726Y-39093650D03*
D14*
X129398205Y-47776848D03*
%TD*%
D16*
%TO.N,/BME_SDA*%
X127710000Y-44950000D02*
X128500000Y-45740000D01*
X128500000Y-46960000D02*
X128500000Y-45740000D01*
X127690000Y-44970000D02*
X127710000Y-44950000D01*
X126530000Y-44970000D02*
X127690000Y-44970000D01*
D17*
%TO.N,VCC*%
X126530000Y-46620000D02*
X124775000Y-46620000D01*
X130090000Y-49220000D02*
X130480000Y-48830000D01*
X124775000Y-46620000D02*
X119655000Y-41500000D01*
X127830000Y-49220000D02*
X130090000Y-49220000D01*
X126530000Y-46620000D02*
X126530000Y-47920000D01*
X130480000Y-48830000D02*
X130480000Y-46425000D01*
X126530000Y-47920000D02*
X127830000Y-49220000D01*
D16*
%TO.N,/NRF_SCK*%
X133400000Y-44320000D02*
X135100000Y-46020000D01*
X133400000Y-42840000D02*
X133400000Y-44320000D01*
%TO.N,/BME_SDA*%
X128500000Y-40500000D02*
X130500000Y-38500000D01*
X128500000Y-47720000D02*
X128500000Y-46960000D01*
X128500000Y-45740000D02*
X128500000Y-40500000D01*
%TO.N,/BME_SCL*%
X130898376Y-39500000D02*
X131304726Y-39093650D01*
X128851000Y-47121000D02*
X128851000Y-45700000D01*
X129776000Y-44775000D02*
X128851000Y-45700000D01*
X128851000Y-45700000D02*
X128851000Y-40645388D01*
X130480000Y-44775000D02*
X129776000Y-44775000D01*
X129398205Y-47776848D02*
X129398205Y-47668205D01*
X129398205Y-47668205D02*
X128851000Y-47121000D01*
X129996388Y-39500000D02*
X130898376Y-39500000D01*
X128851000Y-40645388D02*
X129996388Y-39500000D01*
%TD*%
%TA.AperFunction,Conductor*%
%TO.N,GND*%
G36*
X118456444Y-44693999D02*
G01*
X118495486Y-44739056D01*
X118499951Y-44747820D01*
X118624890Y-44919786D01*
X118775213Y-45070109D01*
X118947179Y-45195048D01*
X118947181Y-45195049D01*
X118947184Y-45195051D01*
X118956493Y-45199794D01*
X119007290Y-45247766D01*
X119024087Y-45315587D01*
X119001552Y-45381722D01*
X118956505Y-45420760D01*
X118947446Y-45425376D01*
X118947440Y-45425380D01*
X118893282Y-45464727D01*
X118893282Y-45464728D01*
X119525591Y-46097037D01*
X119462007Y-46114075D01*
X119347993Y-46179901D01*
X119254901Y-46272993D01*
X119189075Y-46387007D01*
X119172037Y-46450591D01*
X118539728Y-45818282D01*
X118539727Y-45818282D01*
X118500380Y-45872440D01*
X118500376Y-45872446D01*
X118495760Y-45881505D01*
X118447781Y-45932297D01*
X118379959Y-45949087D01*
X118313826Y-45926543D01*
X118274794Y-45881493D01*
X118270051Y-45872184D01*
X118270049Y-45872181D01*
X118270048Y-45872179D01*
X118145109Y-45700213D01*
X117994786Y-45549890D01*
X117822820Y-45424951D01*
X117814600Y-45420763D01*
X117814054Y-45420485D01*
X117763259Y-45372512D01*
X117746463Y-45304692D01*
X117768999Y-45238556D01*
X117814054Y-45199515D01*
X117822816Y-45195051D01*
X117898295Y-45140213D01*
X117994786Y-45070109D01*
X117994788Y-45070106D01*
X117994792Y-45070104D01*
X118145104Y-44919792D01*
X118145106Y-44919788D01*
X118145109Y-44919786D01*
X118270048Y-44747820D01*
X118270047Y-44747820D01*
X118270051Y-44747816D01*
X118274514Y-44739054D01*
X118322488Y-44688259D01*
X118390308Y-44671463D01*
X118456444Y-44693999D01*
G37*
%TD.AperFunction*%
%TA.AperFunction,Conductor*%
G36*
X148001917Y-34520185D02*
G01*
X148047672Y-34572989D01*
X148058878Y-34624500D01*
X148058878Y-50936122D01*
X148039193Y-51003161D01*
X147986389Y-51048916D01*
X147934878Y-51060122D01*
X114624500Y-51060122D01*
X114557461Y-51040437D01*
X114511706Y-50987633D01*
X114500500Y-50936122D01*
X114500500Y-40602135D01*
X115764500Y-40602135D01*
X115764500Y-42397870D01*
X115764501Y-42397876D01*
X115770908Y-42457483D01*
X115821202Y-42592328D01*
X115821206Y-42592335D01*
X115907452Y-42707544D01*
X115907455Y-42707547D01*
X116022664Y-42793793D01*
X116022671Y-42793797D01*
X116154082Y-42842810D01*
X116210016Y-42884681D01*
X116234433Y-42950145D01*
X116219582Y-43018418D01*
X116198431Y-43046673D01*
X116084889Y-43160215D01*
X115959951Y-43332179D01*
X115863444Y-43521585D01*
X115797753Y-43723760D01*
X115764500Y-43933713D01*
X115764500Y-44146286D01*
X115795294Y-44340715D01*
X115797754Y-44356243D01*
X115858154Y-44542135D01*
X115863444Y-44558414D01*
X115959951Y-44747820D01*
X116084890Y-44919786D01*
X116235213Y-45070109D01*
X116407182Y-45195050D01*
X116415946Y-45199516D01*
X116466742Y-45247491D01*
X116483536Y-45315312D01*
X116460998Y-45381447D01*
X116415946Y-45420484D01*
X116407182Y-45424949D01*
X116235213Y-45549890D01*
X116084890Y-45700213D01*
X115959951Y-45872179D01*
X115863444Y-46061585D01*
X115797753Y-46263760D01*
X115764500Y-46473713D01*
X115764500Y-46686286D01*
X115797735Y-46896127D01*
X115797754Y-46896243D01*
X115851023Y-47060188D01*
X115863444Y-47098414D01*
X115959951Y-47287820D01*
X116084890Y-47459786D01*
X116235213Y-47610109D01*
X116407179Y-47735048D01*
X116407181Y-47735049D01*
X116407184Y-47735051D01*
X116596588Y-47831557D01*
X116798757Y-47897246D01*
X117008713Y-47930500D01*
X117008714Y-47930500D01*
X117221286Y-47930500D01*
X117221287Y-47930500D01*
X117431243Y-47897246D01*
X117633412Y-47831557D01*
X117822816Y-47735051D01*
X117877572Y-47695269D01*
X117994786Y-47610109D01*
X117994788Y-47610106D01*
X117994792Y-47610104D01*
X118145104Y-47459792D01*
X118145106Y-47459788D01*
X118145109Y-47459786D01*
X118230890Y-47341717D01*
X118270051Y-47287816D01*
X118274793Y-47278508D01*
X118322763Y-47227711D01*
X118390583Y-47210911D01*
X118456719Y-47233445D01*
X118495763Y-47278500D01*
X118500373Y-47287547D01*
X118539728Y-47341716D01*
X119172037Y-46709408D01*
X119189075Y-46772993D01*
X119254901Y-46887007D01*
X119347993Y-46980099D01*
X119462007Y-47045925D01*
X119525590Y-47062962D01*
X118893282Y-47695269D01*
X118893282Y-47695270D01*
X118947449Y-47734624D01*
X119136782Y-47831095D01*
X119338870Y-47896757D01*
X119548754Y-47930000D01*
X119761246Y-47930000D01*
X119971127Y-47896757D01*
X119971130Y-47896757D01*
X120173217Y-47831095D01*
X120362554Y-47734622D01*
X120416716Y-47695270D01*
X120416717Y-47695270D01*
X119784408Y-47062962D01*
X119847993Y-47045925D01*
X119962007Y-46980099D01*
X120055099Y-46887007D01*
X120120925Y-46772993D01*
X120137962Y-46709408D01*
X120770270Y-47341717D01*
X120770270Y-47341716D01*
X120809622Y-47287554D01*
X120906095Y-47098217D01*
X120971757Y-46896130D01*
X120971757Y-46896127D01*
X121005000Y-46686246D01*
X121005000Y-46473753D01*
X120971757Y-46263872D01*
X120971757Y-46263869D01*
X120906095Y-46061782D01*
X120809624Y-45872449D01*
X120770270Y-45818282D01*
X120770269Y-45818282D01*
X120137962Y-46450590D01*
X120120925Y-46387007D01*
X120055099Y-46272993D01*
X119962007Y-46179901D01*
X119847993Y-46114075D01*
X119784409Y-46097037D01*
X120416716Y-45464728D01*
X120362547Y-45425373D01*
X120362547Y-45425372D01*
X120353500Y-45420763D01*
X120302706Y-45372788D01*
X120285912Y-45304966D01*
X120308451Y-45238832D01*
X120353508Y-45199793D01*
X120362816Y-45195051D01*
X120490621Y-45102196D01*
X120534786Y-45070109D01*
X120534788Y-45070106D01*
X120534792Y-45070104D01*
X120685104Y-44919792D01*
X120685106Y-44919788D01*
X120685109Y-44919786D01*
X120810048Y-44747820D01*
X120810047Y-44747820D01*
X120810051Y-44747816D01*
X120906557Y-44558412D01*
X120972246Y-44356243D01*
X121005500Y-44146287D01*
X121005500Y-43999097D01*
X121025185Y-43932058D01*
X121077989Y-43886303D01*
X121147147Y-43876359D01*
X121210703Y-43905384D01*
X121217181Y-43911416D01*
X124290139Y-46984374D01*
X124290149Y-46984385D01*
X124294479Y-46988715D01*
X124294480Y-46988716D01*
X124406284Y-47100520D01*
X124406286Y-47100521D01*
X124406290Y-47100524D01*
X124455665Y-47129030D01*
X124543216Y-47179577D01*
X124654890Y-47209500D01*
X124654889Y-47209500D01*
X124669914Y-47213525D01*
X124695942Y-47220500D01*
X124695943Y-47220500D01*
X125613480Y-47220500D01*
X125680519Y-47240185D01*
X125701161Y-47256819D01*
X125819811Y-47375469D01*
X125819813Y-47375470D01*
X125819815Y-47375472D01*
X125869650Y-47405598D01*
X125916838Y-47457126D01*
X125929500Y-47511715D01*
X125929500Y-47833330D01*
X125929499Y-47833348D01*
X125929499Y-47999054D01*
X125929498Y-47999054D01*
X125970423Y-48151785D01*
X125993361Y-48191513D01*
X125993362Y-48191517D01*
X125993363Y-48191517D01*
X126049479Y-48288714D01*
X126049481Y-48288717D01*
X126168349Y-48407585D01*
X126168354Y-48407589D01*
X127461284Y-49700520D01*
X127461286Y-49700521D01*
X127461290Y-49700524D01*
X127598209Y-49779573D01*
X127598216Y-49779577D01*
X127750943Y-49820501D01*
X127750945Y-49820501D01*
X127916654Y-49820501D01*
X127916670Y-49820500D01*
X130003331Y-49820500D01*
X130003347Y-49820501D01*
X130010943Y-49820501D01*
X130169054Y-49820501D01*
X130169057Y-49820501D01*
X130321785Y-49779577D01*
X130371904Y-49750639D01*
X130458716Y-49700520D01*
X130570520Y-49588716D01*
X130570520Y-49588714D01*
X130580728Y-49578507D01*
X130580730Y-49578504D01*
X130838506Y-49320728D01*
X130838511Y-49320724D01*
X130848714Y-49310520D01*
X130848716Y-49310520D01*
X130960520Y-49198716D01*
X131029976Y-49078414D01*
X131029977Y-49078413D01*
X131039576Y-49061787D01*
X131039576Y-49061786D01*
X131039577Y-49061785D01*
X131080500Y-48909058D01*
X131080500Y-48750943D01*
X131080500Y-47316715D01*
X131100185Y-47249676D01*
X131140349Y-47210598D01*
X131190185Y-47180472D01*
X131310472Y-47060185D01*
X131398478Y-46914606D01*
X131449086Y-46752196D01*
X131455500Y-46681616D01*
X131455500Y-46168384D01*
X131449086Y-46097804D01*
X131398478Y-45935394D01*
X131310472Y-45789815D01*
X131310470Y-45789813D01*
X131310469Y-45789811D01*
X131208339Y-45687681D01*
X131174854Y-45626358D01*
X131179838Y-45556666D01*
X131208339Y-45512319D01*
X131310468Y-45410189D01*
X131310469Y-45410188D01*
X131310472Y-45410185D01*
X131398478Y-45264606D01*
X131449086Y-45102196D01*
X131455500Y-45031616D01*
X131455500Y-44518384D01*
X131449086Y-44447804D01*
X131398478Y-44285394D01*
X131310472Y-44139815D01*
X131310470Y-44139813D01*
X131310469Y-44139811D01*
X131190188Y-44019530D01*
X131044606Y-43931522D01*
X130980082Y-43911416D01*
X130882196Y-43880914D01*
X130882194Y-43880913D01*
X130882192Y-43880913D01*
X130832778Y-43876423D01*
X130811616Y-43874500D01*
X130148384Y-43874500D01*
X130129145Y-43876248D01*
X130077807Y-43880913D01*
X129915393Y-43931522D01*
X129769811Y-44019530D01*
X129649527Y-44139814D01*
X129648109Y-44141625D01*
X129646734Y-44142607D01*
X129644224Y-44145118D01*
X129643806Y-44144700D01*
X129591269Y-44182256D01*
X129521484Y-44185707D01*
X129460912Y-44150882D01*
X129428784Y-44088838D01*
X129426500Y-44065150D01*
X129426500Y-42761153D01*
X132599500Y-42761153D01*
X132599500Y-42918846D01*
X132630261Y-43073489D01*
X132630264Y-43073501D01*
X132690602Y-43219172D01*
X132690609Y-43219185D01*
X132778210Y-43350288D01*
X132778212Y-43350291D01*
X132788178Y-43360256D01*
X132821665Y-43421578D01*
X132824500Y-43447940D01*
X132824500Y-44395765D01*
X132863719Y-44542136D01*
X132894876Y-44596100D01*
X132939485Y-44673365D01*
X132939487Y-44673367D01*
X133774911Y-45508791D01*
X133808396Y-45570114D01*
X133805162Y-45634788D01*
X133782753Y-45703757D01*
X133755650Y-45874884D01*
X133749500Y-45913713D01*
X133749500Y-46126287D01*
X133782754Y-46336243D01*
X133799248Y-46387007D01*
X133848444Y-46538414D01*
X133944951Y-46727820D01*
X134069890Y-46899786D01*
X134220213Y-47050109D01*
X134392182Y-47175050D01*
X134400946Y-47179516D01*
X134451742Y-47227491D01*
X134468536Y-47295312D01*
X134445998Y-47361447D01*
X134400946Y-47400484D01*
X134392182Y-47404949D01*
X134220213Y-47529890D01*
X134069890Y-47680213D01*
X133944951Y-47852179D01*
X133848444Y-48041585D01*
X133782753Y-48243760D01*
X133775633Y-48288714D01*
X133749500Y-48453713D01*
X133749500Y-48666287D01*
X133782754Y-48876243D01*
X133843041Y-49061787D01*
X133848444Y-49078414D01*
X133944951Y-49267820D01*
X134069890Y-49439786D01*
X134220213Y-49590109D01*
X134392179Y-49715048D01*
X134392181Y-49715049D01*
X134392184Y-49715051D01*
X134581588Y-49811557D01*
X134783757Y-49877246D01*
X134993713Y-49910500D01*
X134993714Y-49910500D01*
X135206286Y-49910500D01*
X135206287Y-49910500D01*
X135416243Y-49877246D01*
X135618412Y-49811557D01*
X135807816Y-49715051D01*
X135829789Y-49699086D01*
X135979786Y-49590109D01*
X135979788Y-49590106D01*
X135979792Y-49590104D01*
X136130104Y-49439792D01*
X136130106Y-49439788D01*
X136130109Y-49439786D01*
X136255048Y-49267820D01*
X136255047Y-49267820D01*
X136255051Y-49267816D01*
X136259514Y-49259054D01*
X136307488Y-49208259D01*
X136375308Y-49191463D01*
X136441444Y-49213999D01*
X136480486Y-49259056D01*
X136484951Y-49267820D01*
X136609890Y-49439786D01*
X136760213Y-49590109D01*
X136932179Y-49715048D01*
X136932181Y-49715049D01*
X136932184Y-49715051D01*
X137121588Y-49811557D01*
X137323757Y-49877246D01*
X137533713Y-49910500D01*
X137533714Y-49910500D01*
X137746286Y-49910500D01*
X137746287Y-49910500D01*
X137956243Y-49877246D01*
X138158412Y-49811557D01*
X138347816Y-49715051D01*
X138369789Y-49699086D01*
X138519786Y-49590109D01*
X138519788Y-49590106D01*
X138519792Y-49590104D01*
X138670104Y-49439792D01*
X138670106Y-49439788D01*
X138670109Y-49439786D01*
X138795048Y-49267820D01*
X138795047Y-49267820D01*
X138795051Y-49267816D01*
X138891557Y-49078412D01*
X138957246Y-48876243D01*
X138990500Y-48666287D01*
X138990500Y-48453713D01*
X138957246Y-48243757D01*
X138891557Y-48041588D01*
X138795051Y-47852184D01*
X138795049Y-47852181D01*
X138795048Y-47852179D01*
X138670109Y-47680213D01*
X138519786Y-47529890D01*
X138347820Y-47404951D01*
X138347115Y-47404591D01*
X138339054Y-47400485D01*
X138288259Y-47352512D01*
X138271463Y-47284692D01*
X138293999Y-47218556D01*
X138339054Y-47179515D01*
X138347816Y-47175051D01*
X138437894Y-47109606D01*
X138519786Y-47050109D01*
X138519788Y-47050106D01*
X138519792Y-47050104D01*
X138670104Y-46899792D01*
X138670106Y-46899788D01*
X138670109Y-46899786D01*
X138795048Y-46727820D01*
X138795047Y-46727820D01*
X138795051Y-46727816D01*
X138891557Y-46538412D01*
X138957246Y-46336243D01*
X138990500Y-46126287D01*
X138990500Y-45913713D01*
X138957246Y-45703757D01*
X138891557Y-45501588D01*
X138795051Y-45312184D01*
X138795049Y-45312181D01*
X138795048Y-45312179D01*
X138670109Y-45140213D01*
X138519786Y-44989890D01*
X138347820Y-44864951D01*
X138347115Y-44864591D01*
X138339054Y-44860485D01*
X138288259Y-44812512D01*
X138271463Y-44744692D01*
X138293999Y-44678556D01*
X138339054Y-44639515D01*
X138347816Y-44635051D01*
X138369789Y-44619086D01*
X138519786Y-44510109D01*
X138519788Y-44510106D01*
X138519792Y-44510104D01*
X138670104Y-44359792D01*
X138670106Y-44359788D01*
X138670109Y-44359786D01*
X138795048Y-44187820D01*
X138795047Y-44187820D01*
X138795051Y-44187816D01*
X138891557Y-43998412D01*
X138930450Y-43878711D01*
X142149500Y-43878711D01*
X142149500Y-44121288D01*
X142180431Y-44356243D01*
X142181162Y-44361789D01*
X142204210Y-44447804D01*
X142243947Y-44596104D01*
X142336773Y-44820205D01*
X142336776Y-44820212D01*
X142458064Y-45030289D01*
X142458066Y-45030292D01*
X142458067Y-45030293D01*
X142605733Y-45222736D01*
X142605739Y-45222743D01*
X142777256Y-45394260D01*
X142777263Y-45394266D01*
X142817803Y-45425373D01*
X142969711Y-45541936D01*
X143179788Y-45663224D01*
X143403900Y-45756054D01*
X143638211Y-45818838D01*
X143818586Y-45842584D01*
X143878711Y-45850500D01*
X143878712Y-45850500D01*
X144121289Y-45850500D01*
X144169388Y-45844167D01*
X144361789Y-45818838D01*
X144596100Y-45756054D01*
X144820212Y-45663224D01*
X145030289Y-45541936D01*
X145222738Y-45394265D01*
X145394265Y-45222738D01*
X145541936Y-45030289D01*
X145663224Y-44820212D01*
X145756054Y-44596100D01*
X145818838Y-44361789D01*
X145850500Y-44121288D01*
X145850500Y-43878712D01*
X145849945Y-43874500D01*
X145839643Y-43796243D01*
X145818838Y-43638211D01*
X145756054Y-43403900D01*
X145663224Y-43179788D01*
X145541936Y-42969711D01*
X145436069Y-42831742D01*
X145394266Y-42777263D01*
X145394260Y-42777256D01*
X145222743Y-42605739D01*
X145222736Y-42605733D01*
X145030293Y-42458067D01*
X145030292Y-42458066D01*
X145030289Y-42458064D01*
X144820212Y-42336776D01*
X144791659Y-42324949D01*
X144596104Y-42243947D01*
X144361785Y-42181161D01*
X144121289Y-42149500D01*
X144121288Y-42149500D01*
X143878712Y-42149500D01*
X143878711Y-42149500D01*
X143638214Y-42181161D01*
X143403895Y-42243947D01*
X143179794Y-42336773D01*
X143179785Y-42336777D01*
X143061648Y-42404984D01*
X142970718Y-42457483D01*
X142969706Y-42458067D01*
X142777263Y-42605733D01*
X142777256Y-42605739D01*
X142605739Y-42777256D01*
X142605733Y-42777263D01*
X142458067Y-42969706D01*
X142336777Y-43179785D01*
X142336773Y-43179794D01*
X142243947Y-43403895D01*
X142181161Y-43638214D01*
X142149500Y-43878711D01*
X138930450Y-43878711D01*
X138957246Y-43796243D01*
X138990500Y-43586287D01*
X138990500Y-43373713D01*
X138957246Y-43163757D01*
X138891557Y-42961588D01*
X138795051Y-42772184D01*
X138795049Y-42772181D01*
X138795048Y-42772179D01*
X138670109Y-42600213D01*
X138519786Y-42449890D01*
X138347820Y-42324951D01*
X138347115Y-42324591D01*
X138339054Y-42320485D01*
X138288259Y-42272512D01*
X138271463Y-42204692D01*
X138293999Y-42138556D01*
X138339054Y-42099515D01*
X138347816Y-42095051D01*
X138434471Y-42032093D01*
X138519786Y-41970109D01*
X138519788Y-41970106D01*
X138519792Y-41970104D01*
X138670104Y-41819792D01*
X138670106Y-41819788D01*
X138670109Y-41819786D01*
X138795048Y-41647820D01*
X138795047Y-41647820D01*
X138795051Y-41647816D01*
X138891557Y-41458412D01*
X138957246Y-41256243D01*
X138990500Y-41046287D01*
X138990500Y-40833713D01*
X138957246Y-40623757D01*
X138891557Y-40421588D01*
X138795051Y-40232184D01*
X138795049Y-40232181D01*
X138795048Y-40232179D01*
X138670109Y-40060213D01*
X138519786Y-39909890D01*
X138347820Y-39784951D01*
X138158414Y-39688444D01*
X138158413Y-39688443D01*
X138158412Y-39688443D01*
X137956243Y-39622754D01*
X137956241Y-39622753D01*
X137956240Y-39622753D01*
X137794957Y-39597208D01*
X137746287Y-39589500D01*
X137533713Y-39589500D01*
X137485042Y-39597208D01*
X137323760Y-39622753D01*
X137121585Y-39688444D01*
X136932179Y-39784951D01*
X136760215Y-39909889D01*
X136646285Y-40023819D01*
X136584962Y-40057303D01*
X136515270Y-40052319D01*
X136459337Y-40010447D01*
X136442422Y-39979470D01*
X136393354Y-39847913D01*
X136393350Y-39847906D01*
X136307190Y-39732812D01*
X136307187Y-39732809D01*
X136192093Y-39646649D01*
X136192086Y-39646645D01*
X136057379Y-39596403D01*
X136057372Y-39596401D01*
X135997844Y-39590000D01*
X135350000Y-39590000D01*
X135350000Y-40506988D01*
X135292993Y-40474075D01*
X135165826Y-40440000D01*
X135034174Y-40440000D01*
X134907007Y-40474075D01*
X134850000Y-40506988D01*
X134850000Y-39590000D01*
X134202155Y-39590000D01*
X134142627Y-39596401D01*
X134142620Y-39596403D01*
X134007913Y-39646645D01*
X134007906Y-39646649D01*
X133892812Y-39732809D01*
X133892809Y-39732812D01*
X133806649Y-39847906D01*
X133806645Y-39847913D01*
X133756403Y-39982620D01*
X133756401Y-39982627D01*
X133750000Y-40042155D01*
X133750000Y-40690000D01*
X134666988Y-40690000D01*
X134634075Y-40747007D01*
X134600000Y-40874174D01*
X134600000Y-41005826D01*
X134634075Y-41132993D01*
X134666988Y-41190000D01*
X133750000Y-41190000D01*
X133750000Y-41837844D01*
X133756401Y-41897372D01*
X133756404Y-41897383D01*
X133758199Y-41902196D01*
X133763183Y-41971888D01*
X133729697Y-42033211D01*
X133668373Y-42066695D01*
X133617826Y-42067145D01*
X133478845Y-42039500D01*
X133478842Y-42039500D01*
X133321158Y-42039500D01*
X133321155Y-42039500D01*
X133166510Y-42070261D01*
X133166498Y-42070264D01*
X133020827Y-42130602D01*
X133020814Y-42130609D01*
X132889711Y-42218210D01*
X132889707Y-42218213D01*
X132778213Y-42329707D01*
X132778210Y-42329711D01*
X132690609Y-42460814D01*
X132690602Y-42460827D01*
X132630264Y-42606498D01*
X132630261Y-42606510D01*
X132599500Y-42761153D01*
X129426500Y-42761153D01*
X129426500Y-40935129D01*
X129446185Y-40868090D01*
X129462819Y-40847448D01*
X130198448Y-40111819D01*
X130259771Y-40078334D01*
X130286129Y-40075500D01*
X130974140Y-40075500D01*
X130974142Y-40075500D01*
X131120511Y-40036281D01*
X131156902Y-40015269D01*
X131164709Y-40010763D01*
X131226709Y-39994150D01*
X131393419Y-39994150D01*
X131393420Y-39994149D01*
X131467218Y-39979470D01*
X131567384Y-39959546D01*
X131567387Y-39959544D01*
X131567392Y-39959544D01*
X131652504Y-39924290D01*
X131731267Y-39891666D01*
X131731270Y-39891664D01*
X131731273Y-39891663D01*
X131878761Y-39793114D01*
X132004190Y-39667685D01*
X132102739Y-39520197D01*
X132170620Y-39356316D01*
X132205226Y-39182341D01*
X132205226Y-39004959D01*
X132205226Y-39004956D01*
X132205225Y-39004954D01*
X132170622Y-38830991D01*
X132170619Y-38830982D01*
X132102742Y-38667109D01*
X132102735Y-38667096D01*
X132004190Y-38519615D01*
X132004187Y-38519611D01*
X131878764Y-38394188D01*
X131878760Y-38394185D01*
X131731279Y-38295640D01*
X131731266Y-38295633D01*
X131567393Y-38227756D01*
X131567385Y-38227754D01*
X131408483Y-38196146D01*
X131346572Y-38163761D01*
X131318114Y-38121981D01*
X131298015Y-38073457D01*
X131298014Y-38073455D01*
X131293192Y-38066239D01*
X131199464Y-37925965D01*
X131199461Y-37925961D01*
X131074038Y-37800538D01*
X131074034Y-37800535D01*
X130926553Y-37701990D01*
X130926540Y-37701983D01*
X130762667Y-37634106D01*
X130762658Y-37634103D01*
X130588694Y-37599500D01*
X130588691Y-37599500D01*
X130411309Y-37599500D01*
X130411306Y-37599500D01*
X130237341Y-37634103D01*
X130237332Y-37634106D01*
X130073459Y-37701983D01*
X130073446Y-37701990D01*
X129925965Y-37800535D01*
X129925961Y-37800538D01*
X129800538Y-37925961D01*
X129800535Y-37925965D01*
X129701990Y-38073446D01*
X129701983Y-38073459D01*
X129634106Y-38237332D01*
X129634103Y-38237341D01*
X129599500Y-38411304D01*
X129599500Y-38535258D01*
X129579815Y-38602297D01*
X129563181Y-38622939D01*
X128039487Y-40146632D01*
X128039485Y-40146635D01*
X127963719Y-40277863D01*
X127924500Y-40424234D01*
X127924500Y-44251369D01*
X127904815Y-44318408D01*
X127852011Y-44364163D01*
X127793893Y-44372876D01*
X127793893Y-44374500D01*
X127634231Y-44374500D01*
X127575358Y-44390275D01*
X127543266Y-44394500D01*
X127466489Y-44394500D01*
X127399450Y-44374815D01*
X127365762Y-44340191D01*
X127365094Y-44340715D01*
X127360468Y-44334810D01*
X127240188Y-44214530D01*
X127094606Y-44126522D01*
X126973671Y-44088838D01*
X126932196Y-44075914D01*
X126932194Y-44075913D01*
X126932192Y-44075913D01*
X126882778Y-44071423D01*
X126861616Y-44069500D01*
X126198384Y-44069500D01*
X126179145Y-44071248D01*
X126127807Y-44075913D01*
X125965393Y-44126522D01*
X125819811Y-44214530D01*
X125699530Y-44334811D01*
X125611522Y-44480393D01*
X125560913Y-44642807D01*
X125554500Y-44713386D01*
X125554500Y-45226613D01*
X125560913Y-45297192D01*
X125560913Y-45297194D01*
X125560914Y-45297196D01*
X125611522Y-45459606D01*
X125677373Y-45568537D01*
X125699530Y-45605188D01*
X125801661Y-45707319D01*
X125805999Y-45715264D01*
X125813247Y-45720690D01*
X125822481Y-45745449D01*
X125835146Y-45768642D01*
X125834500Y-45777671D01*
X125837664Y-45786154D01*
X125832047Y-45811974D01*
X125830162Y-45838334D01*
X125824343Y-45847387D01*
X125822812Y-45854427D01*
X125801661Y-45882681D01*
X125701161Y-45983181D01*
X125639838Y-46016666D01*
X125613480Y-46019500D01*
X125075097Y-46019500D01*
X125008058Y-45999815D01*
X124987416Y-45983181D01*
X120988757Y-41984522D01*
X120955272Y-41923199D01*
X120958507Y-41858523D01*
X120972246Y-41816243D01*
X121005500Y-41606287D01*
X121005500Y-41393713D01*
X120972246Y-41183757D01*
X120906557Y-40981588D01*
X120810051Y-40792184D01*
X120810049Y-40792181D01*
X120810048Y-40792179D01*
X120685109Y-40620213D01*
X120534786Y-40469890D01*
X120362820Y-40344951D01*
X120173414Y-40248444D01*
X120173413Y-40248443D01*
X120173412Y-40248443D01*
X119971243Y-40182754D01*
X119971241Y-40182753D01*
X119971240Y-40182753D01*
X119809957Y-40157208D01*
X119761287Y-40149500D01*
X119548713Y-40149500D01*
X119500042Y-40157208D01*
X119338760Y-40182753D01*
X119136585Y-40248444D01*
X118947179Y-40344951D01*
X118775215Y-40469889D01*
X118661673Y-40583431D01*
X118600350Y-40616915D01*
X118530658Y-40611931D01*
X118474725Y-40570059D01*
X118457810Y-40539082D01*
X118408797Y-40407671D01*
X118408793Y-40407664D01*
X118322547Y-40292455D01*
X118322544Y-40292452D01*
X118207335Y-40206206D01*
X118207328Y-40206202D01*
X118072482Y-40155908D01*
X118072483Y-40155908D01*
X118012883Y-40149501D01*
X118012881Y-40149500D01*
X118012873Y-40149500D01*
X118012864Y-40149500D01*
X116217129Y-40149500D01*
X116217123Y-40149501D01*
X116157516Y-40155908D01*
X116022671Y-40206202D01*
X116022664Y-40206206D01*
X115907455Y-40292452D01*
X115907452Y-40292455D01*
X115821206Y-40407664D01*
X115821202Y-40407671D01*
X115770908Y-40542517D01*
X115764501Y-40602116D01*
X115764500Y-40602135D01*
X114500500Y-40602135D01*
X114500500Y-37643713D01*
X115754500Y-37643713D01*
X115754500Y-37856287D01*
X115787754Y-38066243D01*
X115843347Y-38237341D01*
X115853444Y-38268414D01*
X115949951Y-38457820D01*
X116074890Y-38629786D01*
X116225213Y-38780109D01*
X116397179Y-38905048D01*
X116397181Y-38905049D01*
X116397184Y-38905051D01*
X116586588Y-39001557D01*
X116788757Y-39067246D01*
X116998713Y-39100500D01*
X116998714Y-39100500D01*
X117211286Y-39100500D01*
X117211287Y-39100500D01*
X117421243Y-39067246D01*
X117623412Y-39001557D01*
X117812816Y-38905051D01*
X117899478Y-38842088D01*
X117984784Y-38780110D01*
X117984784Y-38780109D01*
X117984792Y-38780104D01*
X118098717Y-38666178D01*
X118160036Y-38632696D01*
X118229728Y-38637680D01*
X118285662Y-38679551D01*
X118302577Y-38710528D01*
X118351646Y-38842088D01*
X118351649Y-38842093D01*
X118437809Y-38957187D01*
X118437812Y-38957190D01*
X118552906Y-39043350D01*
X118552913Y-39043354D01*
X118687620Y-39093596D01*
X118687627Y-39093598D01*
X118747155Y-39099999D01*
X118747172Y-39100000D01*
X119395000Y-39100000D01*
X119395000Y-38183012D01*
X119452007Y-38215925D01*
X119579174Y-38250000D01*
X119710826Y-38250000D01*
X119837993Y-38215925D01*
X119895000Y-38183012D01*
X119895000Y-39100000D01*
X120542828Y-39100000D01*
X120542844Y-39099999D01*
X120602372Y-39093598D01*
X120602379Y-39093596D01*
X120737086Y-39043354D01*
X120737093Y-39043350D01*
X120852187Y-38957190D01*
X120852190Y-38957187D01*
X120938350Y-38842093D01*
X120938354Y-38842086D01*
X120988596Y-38707379D01*
X120988598Y-38707372D01*
X120994999Y-38647844D01*
X120995000Y-38647827D01*
X120995000Y-38000000D01*
X120078012Y-38000000D01*
X120110925Y-37942993D01*
X120145000Y-37815826D01*
X120145000Y-37684174D01*
X120110925Y-37557007D01*
X120078012Y-37500000D01*
X120995000Y-37500000D01*
X120995000Y-36852172D01*
X120994999Y-36852155D01*
X120988598Y-36792627D01*
X120988596Y-36792620D01*
X120938354Y-36657913D01*
X120938350Y-36657906D01*
X120852190Y-36542812D01*
X120852187Y-36542809D01*
X120737093Y-36456649D01*
X120737086Y-36456645D01*
X120602379Y-36406403D01*
X120602372Y-36406401D01*
X120542844Y-36400000D01*
X119895000Y-36400000D01*
X119895000Y-37316988D01*
X119837993Y-37284075D01*
X119710826Y-37250000D01*
X119579174Y-37250000D01*
X119452007Y-37284075D01*
X119395000Y-37316988D01*
X119395000Y-36400000D01*
X118747155Y-36400000D01*
X118687627Y-36406401D01*
X118687620Y-36406403D01*
X118552913Y-36456645D01*
X118552906Y-36456649D01*
X118437812Y-36542809D01*
X118437809Y-36542812D01*
X118351649Y-36657906D01*
X118351646Y-36657912D01*
X118302577Y-36789471D01*
X118260705Y-36845404D01*
X118195241Y-36869821D01*
X118126968Y-36854969D01*
X118098714Y-36833818D01*
X117984786Y-36719890D01*
X117812820Y-36594951D01*
X117623414Y-36498444D01*
X117623413Y-36498443D01*
X117623412Y-36498443D01*
X117421243Y-36432754D01*
X117421241Y-36432753D01*
X117421240Y-36432753D01*
X117259957Y-36407208D01*
X117211287Y-36399500D01*
X116998713Y-36399500D01*
X116950042Y-36407208D01*
X116788760Y-36432753D01*
X116586585Y-36498444D01*
X116397179Y-36594951D01*
X116225213Y-36719890D01*
X116074890Y-36870213D01*
X115949951Y-37042179D01*
X115853444Y-37231585D01*
X115787753Y-37433760D01*
X115786291Y-37442993D01*
X115754500Y-37643713D01*
X114500500Y-37643713D01*
X114500500Y-34624500D01*
X114520185Y-34557461D01*
X114572989Y-34511706D01*
X114624500Y-34500500D01*
X147934878Y-34500500D01*
X148001917Y-34520185D01*
G37*
%TD.AperFunction*%
%TD*%
D18*
X134280000Y-35180000D03*
X126950000Y-38710000D03*
X131110000Y-34880000D03*
X124020000Y-49110000D03*
X140810000Y-39270000D03*
X135040000Y-38160000D03*
X126420000Y-36230000D03*
X132520000Y-39750000D03*
X123830000Y-40520000D03*
X120540000Y-48750000D03*
X121740000Y-49080000D03*
X128860000Y-39080000D03*
X133400000Y-42840000D03*
X128500000Y-47720000D03*
X130500000Y-38500000D03*
X131304726Y-39093650D03*
X129398205Y-47776848D03*
D19*
X119645000Y-37750000D03*
X117105000Y-37750000D03*
X117115000Y-41500000D03*
X119655000Y-41500000D03*
X117115000Y-44040000D03*
X119655000Y-44040000D03*
X117115000Y-46580000D03*
X119655000Y-46580000D03*
X144000000Y-44000000D03*
X135100000Y-40940000D03*
X137640000Y-40940000D03*
X135100000Y-43480000D03*
X137640000Y-43480000D03*
X135100000Y-46020000D03*
X137640000Y-46020000D03*
X135100000Y-48560000D03*
X137640000Y-48560000D03*
M02*
