M48
; DRILL file {KiCad 9.0.5} date 2025-11-26T19:59:54+0100
; FORMAT={-:-/ absolute / metric / decimal}
; #@! TF.CreationDate,2025-11-26T19:59:54+01:00
; #@! TF.GenerationSoftware,Kicad,Pcbnew,9.0.5
; #@! TF.FileFunction,Plated,1,2,PTH
FMAT,2
METRIC
; #@! TA.AperFunction,Plated,PTH,ComponentDrill
T1C0.200
; #@! TA.AperFunction,Plated,PTH,ViaDrill
T2C0.300
; #@! TA.AperFunction,Plated,PTH,ComponentDrill
T3C0.500
; #@! TA.AperFunction,Plated,PTH,ComponentDrill
T4C0.550
; #@! TA.AperFunction,Plated,PTH,ComponentDrill
T5C0.600
; #@! TA.AperFunction,Plated,PTH,ComponentDrill
T6C1.000
; #@! TA.AperFunction,Plated,PTH,ComponentDrill
T7C1.100
%
G90
G05
T1
X155.16Y-67.07
X155.16Y-68.47
X155.86Y-66.37
X155.86Y-67.77
X155.86Y-69.17
X156.56Y-67.07
X156.56Y-68.47
X157.26Y-66.37
X157.26Y-67.77
X157.26Y-69.17
X157.96Y-67.07
X157.96Y-68.47
T2
X105.43Y-99.13
X105.48Y-73.96
X107.69Y-94.4
X107.75Y-88.3
X108.34Y-78.4
X108.55Y-75.19
X109.67Y-80.18
X110.17Y-68.31
X114.28Y-59.92
X117.93Y-67.52
X118.43Y-75.22
X118.43Y-76.64
X118.59Y-73.44
X119.09Y-69.9
X119.35Y-109.25
X120.99Y-104.47
X122.39Y-70.89
X124.33Y-67.66
X126.88Y-79.87
X126.92Y-63.64
X126.96Y-95.36
X127.5Y-114.95
X127.88Y-99.83
X128.97Y-101.01
X129.77Y-104.79
X130.9Y-109.15
X132.02Y-61.02
X133.61Y-112.14
X133.64Y-68.49
X133.79Y-99.47
X137.18Y-110.37
X138.5Y-103.02
X139.9Y-92.96
X139.99Y-111.51
X143.27Y-100.8
X143.62Y-97.89
X144.71Y-112.44
X145.019Y-102.359
X145.621Y-102.961
X146.499Y-98.059
X146.88Y-60.35
X146.89Y-71.19
X147.101Y-98.661
X147.33Y-81.74
X147.35Y-77.88
X148.08Y-105.45
X149.83Y-85.78
X150.558Y-71.973
X150.56Y-74.3
X150.83Y-69.82
X151.03Y-61.57
X151.26Y-59.8
X151.81Y-98.44
X152.41Y-65.5
X153.56Y-75.0
X155.79Y-95.49
X156.79Y-73.53
X156.83Y-71.99
X157.6Y-99.2
X158.87Y-93.72
X159.555Y-85.24
X159.91Y-63.89
X162.94Y-62.09
X162.94Y-75.87
X165.08Y-87.1
X165.19Y-95.04
X166.34Y-93.75
X168.71Y-60.22
X169.05Y-69.07
X169.15Y-70.33
X169.535Y-84.18
X169.83Y-102.1
X169.92Y-62.86
X170.385Y-84.18
X172.49Y-104.2
X172.569Y-72.409
X173.171Y-73.011
X176.1Y-105.87
X177.87Y-72.81
X185.85Y-59.99
X187.02Y-74.06
X190.32Y-76.92
X190.47Y-103.23
X190.53Y-114.11
X190.56Y-109.47
X190.92Y-108.64
X191.13Y-110.68
X192.36Y-72.73
X193.93Y-105.0
X193.96Y-102.37
X194.78Y-77.59
X195.06Y-99.57
X195.59Y-109.7
X198.09Y-109.7
T3
X145.36Y-67.37
X145.36Y-69.27
T6
X103.42Y-68.4
X103.42Y-70.94
X103.42Y-73.48
X103.42Y-76.02
X103.42Y-78.56
X103.42Y-81.1
X103.42Y-83.64
X103.42Y-86.18
X103.42Y-88.72
X103.42Y-91.26
X103.42Y-93.8
X103.42Y-96.34
X103.42Y-98.88
X103.42Y-101.42
X107.92Y-113.44
X110.46Y-113.44
X113.0Y-113.44
X115.54Y-113.44
X116.55Y-62.3
X116.55Y-64.84
X118.08Y-113.44
X119.09Y-62.3
X119.09Y-64.84
X120.62Y-113.44
X121.63Y-62.3
X121.63Y-64.84
X124.17Y-62.3
X124.17Y-64.84
X181.518Y-81.1
X181.518Y-83.64
X181.518Y-86.18
X181.518Y-88.72
T7
X187.94Y-90.19
X187.94Y-96.69
X187.98Y-80.37
X187.98Y-86.87
X187.99Y-60.96
X187.99Y-67.46
X187.99Y-70.68
X187.99Y-77.18
X192.44Y-90.19
X192.44Y-96.69
X192.48Y-80.37
X192.48Y-86.87
X192.49Y-60.96
X192.49Y-67.46
X192.49Y-70.68
X192.49Y-77.18
T3
G00X192.09Y-113.665
M15
G01X192.09Y-114.315
M16
G05
G00X199.09Y-113.665
M15
G01X199.09Y-114.315
M16
G05
T4
G00X192.94Y-111.29
M15
G01X193.24Y-111.29
M16
G05
G00X197.94Y-111.29
M15
G01X198.24Y-111.29
M16
G05
T5
G00X192.625Y-99.44
M15
G01X193.725Y-99.44
M16
G05
G00X192.625Y-108.08
M15
G01X193.725Y-108.08
M16
G05
G00X196.955Y-99.44
M15
G01X197.755Y-99.44
M16
G05
G00X196.955Y-108.08
M15
G01X197.755Y-108.08
M16
G05
M30
