%TF.GenerationSoftware,KiCad,Pcbnew,9.0.5*%
%TF.CreationDate,2025-11-26T19:59:54+01:00*%
%TF.ProjectId,stacja_pogody_modu__wew,73746163-6a61-45f7-906f-676f64795f6d,rev?*%
%TF.SameCoordinates,Original*%
%TF.FileFunction,Paste,Bot*%
%TF.FilePolarity,Positive*%
%FSLAX46Y46*%
G04 Gerber Fmt 4.6, Leading zero omitted, Abs format (unit mm)*
G04 Created by KiCad (PCBNEW 9.0.5) date 2025-11-26 19:59:54*
%MOMM*%
%LPD*%
G01*
G04 APERTURE LIST*
G04 Aperture macros list*
%AMRoundRect*
0 Rectangle with rounded corners*
0 $1 Rounding radius*
0 $2 $3 $4 $5 $6 $7 $8 $9 X,Y pos of 4 corners*
0 Add a 4 corners polygon primitive as box body*
4,1,4,$2,$3,$4,$5,$6,$7,$8,$9,$2,$3,0*
0 Add four circle primitives for the rounded corners*
1,1,$1+$1,$2,$3*
1,1,$1+$1,$4,$5*
1,1,$1+$1,$6,$7*
1,1,$1+$1,$8,$9*
0 Add four rect primitives between the rounded corners*
20,1,$1+$1,$2,$3,$4,$5,0*
20,1,$1+$1,$4,$5,$6,$7,0*
20,1,$1+$1,$6,$7,$8,$9,0*
20,1,$1+$1,$8,$9,$2,$3,0*%
G04 Aperture macros list end*
%ADD10RoundRect,0.200000X0.200000X0.275000X-0.200000X0.275000X-0.200000X-0.275000X0.200000X-0.275000X0*%
%ADD11RoundRect,0.200000X0.275000X-0.200000X0.275000X0.200000X-0.275000X0.200000X-0.275000X-0.200000X0*%
%ADD12RoundRect,0.200000X0.750000X0.200000X-0.750000X0.200000X-0.750000X-0.200000X0.750000X-0.200000X0*%
%ADD13RoundRect,0.250000X0.337500X0.475000X-0.337500X0.475000X-0.337500X-0.475000X0.337500X-0.475000X0*%
%ADD14RoundRect,0.250000X-0.475000X0.337500X-0.475000X-0.337500X0.475000X-0.337500X0.475000X0.337500X0*%
%ADD15RoundRect,0.237500X0.300000X0.237500X-0.300000X0.237500X-0.300000X-0.237500X0.300000X-0.237500X0*%
%ADD16RoundRect,0.237500X-0.300000X-0.237500X0.300000X-0.237500X0.300000X0.237500X-0.300000X0.237500X0*%
%ADD17RoundRect,0.200000X-0.200000X-0.275000X0.200000X-0.275000X0.200000X0.275000X-0.200000X0.275000X0*%
%ADD18RoundRect,0.237500X-0.237500X0.300000X-0.237500X-0.300000X0.237500X-0.300000X0.237500X0.300000X0*%
%ADD19RoundRect,0.200000X-0.275000X0.200000X-0.275000X-0.200000X0.275000X-0.200000X0.275000X0.200000X0*%
%ADD20RoundRect,0.250000X-0.337500X-0.475000X0.337500X-0.475000X0.337500X0.475000X-0.337500X0.475000X0*%
%ADD21RoundRect,0.250000X1.125000X-1.275000X1.125000X1.275000X-1.125000X1.275000X-1.125000X-1.275000X0*%
%ADD22RoundRect,0.200000X0.200000X-0.900000X0.200000X0.900000X-0.200000X0.900000X-0.200000X-0.900000X0*%
%ADD23RoundRect,0.250001X0.944999X-0.507499X0.944999X0.507499X-0.944999X0.507499X-0.944999X-0.507499X0*%
%ADD24RoundRect,0.243750X0.243750X0.456250X-0.243750X0.456250X-0.243750X-0.456250X0.243750X-0.456250X0*%
%ADD25R,2.100000X1.800000*%
%ADD26RoundRect,0.150000X0.825000X0.150000X-0.825000X0.150000X-0.825000X-0.150000X0.825000X-0.150000X0*%
%ADD27C,0.350000*%
%ADD28C,0.200000*%
%ADD29O,1.700000X0.600000*%
%ADD30O,1.400000X0.600000*%
%ADD31O,0.500000X1.150000*%
%ADD32O,0.850000X0.550000*%
G04 APERTURE END LIST*
D10*
%TO.C,R5*%
X197455000Y-105670000D03*
X195805000Y-105670000D03*
%TD*%
%TO.C,R2*%
X185625000Y-71140000D03*
X183975000Y-71140000D03*
%TD*%
D11*
%TO.C,R9*%
X131940000Y-101095000D03*
X131940000Y-99445000D03*
%TD*%
%TO.C,R8*%
X131910000Y-105405000D03*
X131910000Y-103755000D03*
%TD*%
D12*
%TO.C,Q1*%
X124430000Y-106440000D03*
X124430000Y-108340000D03*
X121430000Y-107390000D03*
%TD*%
D10*
%TO.C,R18*%
X122495000Y-67390000D03*
X120845000Y-67390000D03*
%TD*%
D13*
%TO.C,C9*%
X142197500Y-108690000D03*
X140122500Y-108690000D03*
%TD*%
D14*
%TO.C,C5*%
X156700000Y-60402500D03*
X156700000Y-62477500D03*
%TD*%
D15*
%TO.C,C13*%
X131302500Y-94310000D03*
X129577500Y-94310000D03*
%TD*%
%TO.C,C7*%
X107712500Y-68510000D03*
X105987500Y-68510000D03*
%TD*%
D16*
%TO.C,C11*%
X135747500Y-95410000D03*
X137472500Y-95410000D03*
%TD*%
D15*
%TO.C,C6*%
X129175000Y-61560000D03*
X127450000Y-61560000D03*
%TD*%
D17*
%TO.C,R7*%
X159065000Y-95860000D03*
X160715000Y-95860000D03*
%TD*%
D18*
%TO.C,C2*%
X152840000Y-60357500D03*
X152840000Y-62082500D03*
%TD*%
D19*
%TO.C,R12*%
X129830000Y-96050000D03*
X129830000Y-97700000D03*
%TD*%
D11*
%TO.C,R10*%
X132820000Y-97765000D03*
X132820000Y-96115000D03*
%TD*%
%TO.C,R11*%
X135340000Y-111375000D03*
X135340000Y-109725000D03*
%TD*%
D12*
%TO.C,Q2*%
X124520000Y-100790000D03*
X124520000Y-102690000D03*
X121520000Y-101740000D03*
%TD*%
D10*
%TO.C,R4*%
X185635000Y-68070000D03*
X183985000Y-68070000D03*
%TD*%
D13*
%TO.C,C10*%
X166057500Y-91870000D03*
X163982500Y-91870000D03*
%TD*%
D17*
%TO.C,R15*%
X159085000Y-98640000D03*
X160735000Y-98640000D03*
%TD*%
D20*
%TO.C,C8*%
X143342500Y-105420000D03*
X145417500Y-105420000D03*
%TD*%
D21*
%TO.C,U7*%
X158030000Y-86880000D03*
X161080000Y-86880000D03*
X158030000Y-83530000D03*
X161080000Y-83530000D03*
D22*
X161835000Y-91505000D03*
X160695000Y-91505000D03*
X159555000Y-91505000D03*
X158415000Y-91505000D03*
X157275000Y-91505000D03*
%TD*%
D10*
%TO.C,R6*%
X197500000Y-102480000D03*
X195850000Y-102480000D03*
%TD*%
D19*
%TO.C,R14*%
X130800000Y-112495000D03*
X130800000Y-114145000D03*
%TD*%
D23*
%TO.C,C12*%
X154270000Y-91885000D03*
X154270000Y-88630000D03*
%TD*%
D24*
%TO.C,D2*%
X164387500Y-96930000D03*
X162512500Y-96930000D03*
%TD*%
D14*
%TO.C,C4*%
X154670000Y-60402500D03*
X154670000Y-62477500D03*
%TD*%
D25*
%TO.C,Y1*%
X144680000Y-108470000D03*
X147580000Y-108470000D03*
X147580000Y-110770000D03*
X144680000Y-110770000D03*
%TD*%
D26*
%TO.C,U6*%
X141090000Y-97830000D03*
X141090000Y-99100000D03*
X141090000Y-100370000D03*
X141090000Y-101640000D03*
X141090000Y-102910000D03*
X141090000Y-104180000D03*
X141090000Y-105450000D03*
X141090000Y-106720000D03*
X136140000Y-106720000D03*
X136140000Y-105450000D03*
X136140000Y-104180000D03*
X136140000Y-102910000D03*
X136140000Y-101640000D03*
X136140000Y-100370000D03*
X136140000Y-99100000D03*
X136140000Y-97830000D03*
%TD*%
D15*
%TO.C,C14*%
X128662500Y-112420000D03*
X126937500Y-112420000D03*
%TD*%
D27*
X174500000Y-87000000D03*
X180918400Y-106995026D03*
X180918044Y-62894849D03*
X105024743Y-62907515D03*
X105018400Y-106995026D03*
X103419672Y-68399569D03*
X103419672Y-70939569D03*
X103419672Y-73479569D03*
X103419672Y-76019569D03*
X103419672Y-78559569D03*
X103419672Y-81099569D03*
X103419672Y-83639569D03*
X103419672Y-86179569D03*
X103419672Y-88719569D03*
X103419672Y-91259569D03*
X103419672Y-93799569D03*
X103419672Y-96339569D03*
X103419672Y-98879569D03*
X103419672Y-101419569D03*
X181518044Y-81099849D03*
X181518044Y-83639849D03*
X181518044Y-86179849D03*
X181518044Y-88719849D03*
X120620000Y-113440000D03*
X118080000Y-113440000D03*
X115540000Y-113440000D03*
X113000000Y-113440000D03*
X110460000Y-113440000D03*
X107920000Y-113440000D03*
X192440000Y-90190000D03*
X192440000Y-96690000D03*
X187940000Y-90190000D03*
X187940000Y-96690000D03*
X145360000Y-67370000D03*
X145360000Y-69270000D03*
X192480000Y-80370000D03*
X192480000Y-86870000D03*
X187980000Y-80370000D03*
X187980000Y-86870000D03*
X187990000Y-67460000D03*
X187990000Y-60960000D03*
X192490000Y-67460000D03*
X192490000Y-60960000D03*
X125000000Y-87000000D03*
D28*
X155160000Y-67070000D03*
X155160000Y-68470000D03*
X155860000Y-66370000D03*
X155860000Y-67770000D03*
X155860000Y-69170000D03*
X156560000Y-67070000D03*
X156560000Y-68470000D03*
X157260000Y-66370000D03*
X157260000Y-67770000D03*
X157260000Y-69170000D03*
X157960000Y-67070000D03*
X157960000Y-68470000D03*
D27*
X193675000Y-106650000D03*
X193675000Y-100870000D03*
D29*
X193175000Y-108080000D03*
D30*
X197355000Y-108080000D03*
D29*
X193175000Y-99440000D03*
D30*
X197355000Y-99440000D03*
D31*
X192090000Y-113990000D03*
D32*
X193090000Y-111290000D03*
X198090000Y-111290000D03*
D31*
X199090000Y-113990000D03*
D27*
X187990000Y-77180000D03*
X187990000Y-70680000D03*
X192490000Y-77180000D03*
X192490000Y-70680000D03*
X124170000Y-64840000D03*
X124170000Y-62300000D03*
X121630000Y-64840000D03*
X121630000Y-62300000D03*
X119090000Y-64840000D03*
X119090000Y-62300000D03*
X116550000Y-64840000D03*
X116550000Y-62300000D03*
M02*
