%TF.GenerationSoftware,KiCad,Pcbnew,9.0.1*%
%TF.CreationDate,2025-12-02T19:06:14+01:00*%
%TF.ProjectId,stacja_pogody_modu__wew,73746163-6a61-45f7-906f-676f64795f6d,rev?*%
%TF.SameCoordinates,Original*%
%TF.FileFunction,Profile,NP*%
%FSLAX46Y46*%
G04 Gerber Fmt 4.6, Leading zero omitted, Abs format (unit mm)*
G04 Created by KiCad (PCBNEW 9.0.1) date 2025-12-02 19:06:14*
%MOMM*%
%LPD*%
G01*
G04 APERTURE LIST*
%TA.AperFunction,Profile*%
%ADD10C,0.050000*%
%TD*%
%ADD11O,1.400000X0.600000*%
%ADD12O,1.800000X0.600000*%
%ADD13C,0.350000*%
%ADD14C,0.200000*%
%ADD15O,0.500000X1.150000*%
%ADD16O,0.850000X0.550000*%
G04 APERTURE END LIST*
D10*
X101000000Y-59000000D02*
X200500000Y-59000000D01*
X200500000Y-116000000D01*
X101000000Y-116000000D01*
X101000000Y-59000000D01*
D11*
X193175000Y-108080000D03*
D12*
X197155000Y-108080000D03*
D11*
X193175000Y-99440000D03*
D12*
X197155000Y-99440000D03*
D13*
X174500000Y-87000000D03*
X180918400Y-106995026D03*
X180918044Y-62894849D03*
X105024743Y-62907515D03*
X105018400Y-106995026D03*
X103419672Y-68399569D03*
X103419672Y-70939569D03*
X103419672Y-73479569D03*
X103419672Y-76019569D03*
X103419672Y-78559569D03*
X103419672Y-81099569D03*
X103419672Y-83639569D03*
X103419672Y-86179569D03*
X103419672Y-88719569D03*
X103419672Y-91259569D03*
X103419672Y-93799569D03*
X103419672Y-96339569D03*
X103419672Y-98879569D03*
X103419672Y-101419569D03*
X181518044Y-81099849D03*
X181518044Y-83639849D03*
X181518044Y-86179849D03*
X181518044Y-88719849D03*
X120620000Y-113440000D03*
X118080000Y-113440000D03*
X115540000Y-113440000D03*
X113000000Y-113440000D03*
X110460000Y-113440000D03*
X107920000Y-113440000D03*
X192440000Y-90190000D03*
X192440000Y-96690000D03*
X187940000Y-90190000D03*
X187940000Y-96690000D03*
X145360000Y-67370000D03*
X145360000Y-69270000D03*
X192480000Y-80370000D03*
X192480000Y-86870000D03*
X187980000Y-80370000D03*
X187980000Y-86870000D03*
X187990000Y-67460000D03*
X187990000Y-60960000D03*
X192490000Y-67460000D03*
X192490000Y-60960000D03*
X125000000Y-87000000D03*
D14*
X155160000Y-67070000D03*
X155160000Y-68470000D03*
X155860000Y-66370000D03*
X155860000Y-67770000D03*
X155860000Y-69170000D03*
X156560000Y-67070000D03*
X156560000Y-68470000D03*
X157260000Y-66370000D03*
X157260000Y-67770000D03*
X157260000Y-69170000D03*
X157960000Y-67070000D03*
X157960000Y-68470000D03*
D15*
X192090000Y-113990000D03*
D16*
X193090000Y-111290000D03*
X198090000Y-111290000D03*
D15*
X199090000Y-113990000D03*
D13*
X187990000Y-77180000D03*
X187990000Y-70680000D03*
X192490000Y-77180000D03*
X192490000Y-70680000D03*
X124170000Y-64840000D03*
X124170000Y-62300000D03*
X121630000Y-64840000D03*
X121630000Y-62300000D03*
X119090000Y-64840000D03*
X119090000Y-62300000D03*
X116550000Y-64840000D03*
X116550000Y-62300000D03*
M02*
