%TF.GenerationSoftware,KiCad,Pcbnew,9.0.1*%
%TF.CreationDate,2025-12-02T19:06:14+01:00*%
%TF.ProjectId,stacja_pogody_modu__wew,73746163-6a61-45f7-906f-676f64795f6d,rev?*%
%TF.SameCoordinates,Original*%
%TF.FileFunction,Paste,Top*%
%TF.FilePolarity,Positive*%
%FSLAX46Y46*%
G04 Gerber Fmt 4.6, Leading zero omitted, Abs format (unit mm)*
G04 Created by KiCad (PCBNEW 9.0.1) date 2025-12-02 19:06:14*
%MOMM*%
%LPD*%
G01*
G04 APERTURE LIST*
G04 Aperture macros list*
%AMRoundRect*
0 Rectangle with rounded corners*
0 $1 Rounding radius*
0 $2 $3 $4 $5 $6 $7 $8 $9 X,Y pos of 4 corners*
0 Add a 4 corners polygon primitive as box body*
4,1,4,$2,$3,$4,$5,$6,$7,$8,$9,$2,$3,0*
0 Add four circle primitives for the rounded corners*
1,1,$1+$1,$2,$3*
1,1,$1+$1,$4,$5*
1,1,$1+$1,$6,$7*
1,1,$1+$1,$8,$9*
0 Add four rect primitives between the rounded corners*
20,1,$1+$1,$2,$3,$4,$5,0*
20,1,$1+$1,$4,$5,$6,$7,0*
20,1,$1+$1,$6,$7,$8,$9,0*
20,1,$1+$1,$8,$9,$2,$3,0*%
G04 Aperture macros list end*
%ADD10RoundRect,0.150000X0.425000X-0.150000X0.425000X0.150000X-0.425000X0.150000X-0.425000X-0.150000X0*%
%ADD11RoundRect,0.075000X0.500000X-0.075000X0.500000X0.075000X-0.500000X0.075000X-0.500000X-0.075000X0*%
%ADD12O,1.800000X1.000000*%
%ADD13O,2.200000X1.000000*%
%ADD14RoundRect,0.237500X-0.237500X0.300000X-0.237500X-0.300000X0.237500X-0.300000X0.237500X0.300000X0*%
%ADD15RoundRect,0.200000X0.275000X-0.200000X0.275000X0.200000X-0.275000X0.200000X-0.275000X-0.200000X0*%
%ADD16RoundRect,0.243750X0.456250X-0.243750X0.456250X0.243750X-0.456250X0.243750X-0.456250X-0.243750X0*%
%ADD17RoundRect,0.200000X-0.275000X0.200000X-0.275000X-0.200000X0.275000X-0.200000X0.275000X0.200000X0*%
%ADD18RoundRect,0.150000X0.512500X0.150000X-0.512500X0.150000X-0.512500X-0.150000X0.512500X-0.150000X0*%
%ADD19R,1.500000X0.900000*%
%ADD20R,0.900000X1.500000*%
%ADD21R,0.900000X0.900000*%
%ADD22RoundRect,0.237500X-0.300000X-0.237500X0.300000X-0.237500X0.300000X0.237500X-0.300000X0.237500X0*%
%ADD23O,0.890000X1.550000*%
%ADD24O,1.250000X0.950000*%
%ADD25RoundRect,0.100000X-0.100000X-0.575000X0.100000X-0.575000X0.100000X0.575000X-0.100000X0.575000X0*%
%ADD26RoundRect,0.250000X-0.475000X-0.525000X0.475000X-0.525000X0.475000X0.525000X-0.475000X0.525000X0*%
%ADD27RoundRect,0.250000X-0.500000X-0.525000X0.500000X-0.525000X0.500000X0.525000X-0.500000X0.525000X0*%
%ADD28RoundRect,0.243750X-0.456250X0.243750X-0.456250X-0.243750X0.456250X-0.243750X0.456250X0.243750X0*%
G04 APERTURE END LIST*
D10*
%TO.C,J3*%
X192600000Y-106960000D03*
X192600000Y-106160000D03*
D11*
X192600000Y-105010000D03*
X192600000Y-104010000D03*
X192600000Y-103510000D03*
X192600000Y-102510000D03*
D10*
X192600000Y-101360000D03*
X192600000Y-100560000D03*
X192600000Y-100560000D03*
X192600000Y-101360000D03*
D11*
X192600000Y-102010000D03*
X192600000Y-103010000D03*
X192600000Y-104510000D03*
X192600000Y-105510000D03*
D10*
X192600000Y-106160000D03*
X192600000Y-106960000D03*
D12*
X193175000Y-108080000D03*
D13*
X197155000Y-108080000D03*
D12*
X193175000Y-99440000D03*
D13*
X197155000Y-99440000D03*
%TD*%
D14*
%TO.C,C16*%
X145280000Y-63957500D03*
X145280000Y-65682500D03*
%TD*%
D15*
%TO.C,R16*%
X195490000Y-90010000D03*
X195490000Y-88360000D03*
%TD*%
D14*
%TO.C,C3*%
X194910000Y-63217500D03*
X194910000Y-64942500D03*
%TD*%
D16*
%TO.C,D1*%
X195770000Y-82857500D03*
X195770000Y-80982500D03*
%TD*%
D17*
%TO.C,R13*%
X196770000Y-77735000D03*
X196770000Y-79385000D03*
%TD*%
D18*
%TO.C,U4*%
X189115000Y-104200000D03*
X189115000Y-103250000D03*
X189115000Y-102300000D03*
X186840000Y-102300000D03*
X186840000Y-103250000D03*
X186840000Y-104200000D03*
%TD*%
%TO.C,U1*%
X189145000Y-110400000D03*
X189145000Y-109450000D03*
X189145000Y-108500000D03*
X186870000Y-108500000D03*
X186870000Y-109450000D03*
X186870000Y-110400000D03*
%TD*%
D19*
%TO.C,U2*%
X149310000Y-60050000D03*
X149310000Y-61320000D03*
X149310000Y-62590000D03*
X149310000Y-63860000D03*
X149310000Y-65130000D03*
X149310000Y-66400000D03*
X149310000Y-67670000D03*
X149310000Y-68940000D03*
X149310000Y-70210000D03*
X149310000Y-71480000D03*
X149310000Y-72750000D03*
X149310000Y-74020000D03*
X149310000Y-75290000D03*
X149310000Y-76560000D03*
D20*
X152345000Y-77810000D03*
X153615000Y-77810000D03*
X154885000Y-77810000D03*
X156155000Y-77810000D03*
X157425000Y-77810000D03*
X158695000Y-77810000D03*
X159965000Y-77810000D03*
X161235000Y-77810000D03*
X162505000Y-77810000D03*
X163775000Y-77810000D03*
D19*
X166810000Y-76560000D03*
X166810000Y-75290000D03*
X166810000Y-74020000D03*
X166810000Y-72750000D03*
X166810000Y-71480000D03*
X166810000Y-70210000D03*
X166810000Y-68940000D03*
X166810000Y-67670000D03*
X166810000Y-66400000D03*
X166810000Y-65130000D03*
X166810000Y-63860000D03*
X166810000Y-62590000D03*
X166810000Y-61320000D03*
X166810000Y-60050000D03*
D21*
X155160000Y-66370000D03*
X155160000Y-67770000D03*
X155160000Y-69170000D03*
X156560000Y-66370000D03*
X156560000Y-67770000D03*
X156560000Y-69170000D03*
X157960000Y-66370000D03*
X157960000Y-67770000D03*
X157960000Y-69170000D03*
%TD*%
D17*
%TO.C,R17*%
X147000000Y-67645000D03*
X147000000Y-69295000D03*
%TD*%
%TO.C,R1*%
X195170000Y-74445000D03*
X195170000Y-76095000D03*
%TD*%
D22*
%TO.C,C15*%
X143517500Y-70880000D03*
X145242500Y-70880000D03*
%TD*%
D23*
%TO.C,J1*%
X192090000Y-113990000D03*
D24*
X193090000Y-111290000D03*
X198090000Y-111290000D03*
D23*
X199090000Y-113990000D03*
D25*
X194290000Y-111290000D03*
X194940000Y-111290000D03*
X195590000Y-111290000D03*
X196240000Y-111290000D03*
X196890000Y-111290000D03*
D26*
X192565000Y-113990000D03*
D27*
X194590000Y-113990000D03*
X196590000Y-113990000D03*
D26*
X198615000Y-113990000D03*
%TD*%
D28*
%TO.C,D3*%
X195740000Y-84722500D03*
X195740000Y-86597500D03*
%TD*%
D17*
%TO.C,R3*%
X194930000Y-66665000D03*
X194930000Y-68315000D03*
%TD*%
D14*
%TO.C,C1*%
X195170000Y-71067500D03*
X195170000Y-72792500D03*
%TD*%
M02*
