%TF.GenerationSoftware,KiCad,Pcbnew,9.0.1*%
%TF.CreationDate,2025-11-17T15:11:09+01:00*%
%TF.ProjectId,stacja_pogody_modu__wew,73746163-6a61-45f7-906f-676f64795f6d,rev?*%
%TF.SameCoordinates,Original*%
%TF.FileFunction,Soldermask,Top*%
%TF.FilePolarity,Negative*%
%FSLAX46Y46*%
G04 Gerber Fmt 4.6, Leading zero omitted, Abs format (unit mm)*
G04 Created by KiCad (PCBNEW 9.0.1) date 2025-11-17 15:11:09*
%MOMM*%
%LPD*%
G01*
G04 APERTURE LIST*
G04 Aperture macros list*
%AMRoundRect*
0 Rectangle with rounded corners*
0 $1 Rounding radius*
0 $2 $3 $4 $5 $6 $7 $8 $9 X,Y pos of 4 corners*
0 Add a 4 corners polygon primitive as box body*
4,1,4,$2,$3,$4,$5,$6,$7,$8,$9,$2,$3,0*
0 Add four circle primitives for the rounded corners*
1,1,$1+$1,$2,$3*
1,1,$1+$1,$4,$5*
1,1,$1+$1,$6,$7*
1,1,$1+$1,$8,$9*
0 Add four rect primitives between the rounded corners*
20,1,$1+$1,$2,$3,$4,$5,0*
20,1,$1+$1,$4,$5,$6,$7,0*
20,1,$1+$1,$6,$7,$8,$9,0*
20,1,$1+$1,$8,$9,$2,$3,0*%
G04 Aperture macros list end*
%ADD10RoundRect,0.150000X0.425000X-0.150000X0.425000X0.150000X-0.425000X0.150000X-0.425000X-0.150000X0*%
%ADD11RoundRect,0.075000X0.500000X-0.075000X0.500000X0.075000X-0.500000X0.075000X-0.500000X-0.075000X0*%
%ADD12O,1.800000X1.000000*%
%ADD13O,2.200000X1.000000*%
%ADD14C,3.200000*%
%ADD15C,1.800000*%
%ADD16R,1.700000X1.700000*%
%ADD17C,1.700000*%
%ADD18C,2.000000*%
%ADD19RoundRect,0.200000X0.275000X-0.200000X0.275000X0.200000X-0.275000X0.200000X-0.275000X-0.200000X0*%
%ADD20RoundRect,0.237500X-0.237500X0.300000X-0.237500X-0.300000X0.237500X-0.300000X0.237500X0.300000X0*%
%ADD21RoundRect,0.243750X0.456250X-0.243750X0.456250X0.243750X-0.456250X0.243750X-0.456250X-0.243750X0*%
%ADD22RoundRect,0.200000X-0.275000X0.200000X-0.275000X-0.200000X0.275000X-0.200000X0.275000X0.200000X0*%
%ADD23RoundRect,0.150000X0.512500X0.150000X-0.512500X0.150000X-0.512500X-0.150000X0.512500X-0.150000X0*%
%ADD24R,1.500000X0.900000*%
%ADD25R,0.900000X1.500000*%
%ADD26R,0.900000X0.900000*%
%ADD27C,0.600000*%
%ADD28RoundRect,0.100000X-0.100000X-0.575000X0.100000X-0.575000X0.100000X0.575000X-0.100000X0.575000X0*%
%ADD29O,0.890000X1.550000*%
%ADD30RoundRect,0.250000X-0.475000X-0.525000X0.475000X-0.525000X0.475000X0.525000X-0.475000X0.525000X0*%
%ADD31O,1.250000X0.950000*%
%ADD32RoundRect,0.250000X-0.500000X-0.525000X0.500000X-0.525000X0.500000X0.525000X-0.500000X0.525000X0*%
%ADD33RoundRect,0.243750X-0.456250X0.243750X-0.456250X-0.243750X0.456250X-0.243750X0.456250X0.243750X0*%
G04 APERTURE END LIST*
D10*
%TO.C,J2*%
X192600000Y-106960000D03*
X192600000Y-106160000D03*
D11*
X192600000Y-105010000D03*
X192600000Y-104010000D03*
X192600000Y-103510000D03*
X192600000Y-102510000D03*
D10*
X192600000Y-101360000D03*
X192600000Y-100560000D03*
X192600000Y-100560000D03*
X192600000Y-101360000D03*
D11*
X192600000Y-102010000D03*
X192600000Y-103010000D03*
X192600000Y-104510000D03*
X192600000Y-105510000D03*
D10*
X192600000Y-106160000D03*
X192600000Y-106960000D03*
D12*
X193175000Y-108080000D03*
D13*
X197155000Y-108080000D03*
D12*
X193175000Y-99440000D03*
D13*
X197155000Y-99440000D03*
%TD*%
D14*
%TO.C,H2*%
X174500000Y-87000000D03*
%TD*%
%TO.C,U2*%
X180913657Y-106997511D03*
X180913301Y-62897334D03*
X105020000Y-62910000D03*
X105013657Y-106997511D03*
D15*
X103414929Y-68402054D03*
X103414929Y-70942054D03*
X103414929Y-73482054D03*
X103414929Y-76022054D03*
X103414929Y-78562054D03*
X103414929Y-81102054D03*
X103414929Y-83642054D03*
X103414929Y-86182054D03*
X103414929Y-88722054D03*
X103414929Y-91262054D03*
X103414929Y-93802054D03*
X103414929Y-96342054D03*
X103414929Y-98882054D03*
X103414929Y-101422054D03*
X181513301Y-81102334D03*
X181513301Y-83642334D03*
X181513301Y-86182334D03*
X181513301Y-88722334D03*
%TD*%
D16*
%TO.C,J3*%
X120620000Y-113440000D03*
D17*
X118080000Y-113440000D03*
X115540000Y-113440000D03*
X113000000Y-113440000D03*
X110460000Y-113440000D03*
X107920000Y-113440000D03*
%TD*%
D18*
%TO.C,SW3*%
X192440000Y-90190000D03*
X192440000Y-96690000D03*
X187940000Y-90190000D03*
X187940000Y-96690000D03*
%TD*%
D19*
%TO.C,R13*%
X195490000Y-90010000D03*
X195490000Y-88360000D03*
%TD*%
D20*
%TO.C,C6*%
X194910000Y-63217500D03*
X194910000Y-64942500D03*
%TD*%
D21*
%TO.C,D1*%
X195770000Y-82857500D03*
X195770000Y-80982500D03*
%TD*%
D22*
%TO.C,R14*%
X196770000Y-77735000D03*
X196770000Y-79385000D03*
%TD*%
D18*
%TO.C,SW4*%
X192480000Y-80370000D03*
X192480000Y-86870000D03*
X187980000Y-80370000D03*
X187980000Y-86870000D03*
%TD*%
D23*
%TO.C,U7*%
X189115000Y-104200000D03*
X189115000Y-103250000D03*
X189115000Y-102300000D03*
X186840000Y-102300000D03*
X186840000Y-103250000D03*
X186840000Y-104200000D03*
%TD*%
D18*
%TO.C,SW2*%
X187990000Y-67460000D03*
X187990000Y-60960000D03*
X192490000Y-67460000D03*
X192490000Y-60960000D03*
%TD*%
D23*
%TO.C,U6*%
X189145000Y-110400000D03*
X189145000Y-109450000D03*
X189145000Y-108500000D03*
X186870000Y-108500000D03*
X186870000Y-109450000D03*
X186870000Y-110400000D03*
%TD*%
D14*
%TO.C,H1*%
X125000000Y-87000000D03*
%TD*%
D24*
%TO.C,U4*%
X148970000Y-60160000D03*
X148970000Y-61430000D03*
X148970000Y-62700000D03*
X148970000Y-63970000D03*
X148970000Y-65240000D03*
X148970000Y-66510000D03*
X148970000Y-67780000D03*
X148970000Y-69050000D03*
X148970000Y-70320000D03*
X148970000Y-71590000D03*
X148970000Y-72860000D03*
X148970000Y-74130000D03*
X148970000Y-75400000D03*
X148970000Y-76670000D03*
D25*
X152005000Y-77920000D03*
X153275000Y-77920000D03*
X154545000Y-77920000D03*
X155815000Y-77920000D03*
X157085000Y-77920000D03*
X158355000Y-77920000D03*
X159625000Y-77920000D03*
X160895000Y-77920000D03*
X162165000Y-77920000D03*
X163435000Y-77920000D03*
D24*
X166470000Y-76670000D03*
X166470000Y-75400000D03*
X166470000Y-74130000D03*
X166470000Y-72860000D03*
X166470000Y-71590000D03*
X166470000Y-70320000D03*
X166470000Y-69050000D03*
X166470000Y-67780000D03*
X166470000Y-66510000D03*
X166470000Y-65240000D03*
X166470000Y-63970000D03*
X166470000Y-62700000D03*
X166470000Y-61430000D03*
X166470000Y-60160000D03*
D26*
X154820000Y-66480000D03*
D27*
X154820000Y-67180000D03*
D26*
X154820000Y-67880000D03*
D27*
X154820000Y-68580000D03*
D26*
X154820000Y-69280000D03*
D27*
X155520000Y-66480000D03*
X155520000Y-67880000D03*
X155520000Y-69280000D03*
D26*
X156220000Y-66480000D03*
D27*
X156220000Y-67180000D03*
D26*
X156220000Y-67880000D03*
D27*
X156220000Y-68580000D03*
D26*
X156220000Y-69280000D03*
D27*
X156920000Y-66480000D03*
X156920000Y-67880000D03*
X156920000Y-69280000D03*
D26*
X157620000Y-66480000D03*
D27*
X157620000Y-67180000D03*
D26*
X157620000Y-67880000D03*
D27*
X157620000Y-68580000D03*
D26*
X157620000Y-69280000D03*
%TD*%
D22*
%TO.C,R4*%
X195170000Y-74445000D03*
X195170000Y-76095000D03*
%TD*%
D28*
%TO.C,J1*%
X194290000Y-111290000D03*
X194940000Y-111290000D03*
X195590000Y-111290000D03*
X196240000Y-111290000D03*
X196890000Y-111290000D03*
D29*
X192090000Y-113990000D03*
D30*
X192565000Y-113990000D03*
D31*
X193090000Y-111290000D03*
D32*
X194590000Y-113990000D03*
X196590000Y-113990000D03*
D31*
X198090000Y-111290000D03*
D30*
X198615000Y-113990000D03*
D29*
X199090000Y-113990000D03*
%TD*%
D33*
%TO.C,D2*%
X195740000Y-84722500D03*
X195740000Y-86597500D03*
%TD*%
D22*
%TO.C,R5*%
X194930000Y-66665000D03*
X194930000Y-68315000D03*
%TD*%
D18*
%TO.C,SW1*%
X187990000Y-77180000D03*
X187990000Y-70680000D03*
X192490000Y-77180000D03*
X192490000Y-70680000D03*
%TD*%
D20*
%TO.C,C5*%
X195170000Y-71067500D03*
X195170000Y-72792500D03*
%TD*%
D16*
%TO.C,U1*%
X124170000Y-64840000D03*
D17*
X124170000Y-62300000D03*
X121630000Y-64840000D03*
X121630000Y-62300000D03*
X119090000Y-64840000D03*
X119090000Y-62300000D03*
X116550000Y-64840000D03*
X116550000Y-62300000D03*
%TD*%
M02*
