%TF.GenerationSoftware,KiCad,Pcbnew,9.0.1*%
%TF.CreationDate,2025-11-26T22:59:04+01:00*%
%TF.ProjectId,stacja_pogody_modu__wew,73746163-6a61-45f7-906f-676f64795f6d,rev?*%
%TF.SameCoordinates,Original*%
%TF.FileFunction,Legend,Top*%
%TF.FilePolarity,Positive*%
%FSLAX46Y46*%
G04 Gerber Fmt 4.6, Leading zero omitted, Abs format (unit mm)*
G04 Created by KiCad (PCBNEW 9.0.1) date 2025-11-26 22:59:04*
%MOMM*%
%LPD*%
G01*
G04 APERTURE LIST*
%ADD10C,0.300000*%
%ADD11C,0.250000*%
%ADD12C,0.150000*%
%ADD13C,0.100000*%
%ADD14C,0.120000*%
%ADD15C,0.350000*%
%ADD16O,1.700000X0.600000*%
%ADD17O,1.400000X0.600000*%
%ADD18O,0.500000X1.150000*%
%ADD19O,0.850000X0.550000*%
%ADD20C,0.200000*%
G04 APERTURE END LIST*
D10*
G36*
X146835962Y-112899374D02*
G01*
X146835962Y-113111316D01*
X146284034Y-113111316D01*
X146250136Y-113116142D01*
X146221019Y-113130275D01*
X146196319Y-113152330D01*
X146174857Y-113182757D01*
X146158588Y-113218013D01*
X146146556Y-113259327D01*
X146137122Y-113350552D01*
X146142104Y-113422507D01*
X146155820Y-113480406D01*
X146176964Y-113526864D01*
X146207856Y-113565286D01*
X146242964Y-113586795D01*
X146284034Y-113594001D01*
X146567325Y-113594001D01*
X146649475Y-113603263D01*
X146718359Y-113629721D01*
X146777979Y-113671985D01*
X146827535Y-113728365D01*
X146865425Y-113795870D01*
X146893572Y-113878391D01*
X146909937Y-113967743D01*
X146915646Y-114068259D01*
X146909418Y-114177089D01*
X146891466Y-114274980D01*
X146861698Y-114366073D01*
X146823322Y-114441768D01*
X146774186Y-114506440D01*
X146718359Y-114554058D01*
X146654399Y-114584759D01*
X146584086Y-114595000D01*
X145883231Y-114595000D01*
X145883231Y-114387271D01*
X146447707Y-114387271D01*
X146483475Y-114381737D01*
X146514843Y-114365289D01*
X146541632Y-114339898D01*
X146565218Y-114305480D01*
X146583173Y-114265355D01*
X146596634Y-114216270D01*
X146607167Y-114106086D01*
X146604021Y-114039424D01*
X146595627Y-113988483D01*
X146579349Y-113944166D01*
X146555785Y-113911913D01*
X146523837Y-113888015D01*
X146481229Y-113871064D01*
X146431860Y-113861927D01*
X146363718Y-113858424D01*
X146181177Y-113858424D01*
X146098645Y-113849490D01*
X146027945Y-113823803D01*
X145966403Y-113782443D01*
X145915655Y-113727266D01*
X145876729Y-113660715D01*
X145847511Y-113579346D01*
X145830440Y-113490523D01*
X145824430Y-113388379D01*
X145830327Y-113289475D01*
X145847511Y-113198419D01*
X145875980Y-113113408D01*
X145912540Y-113043172D01*
X145959613Y-112983260D01*
X146014390Y-112938209D01*
X146077353Y-112909151D01*
X146147563Y-112899374D01*
X146835962Y-112899374D01*
G37*
G36*
X147763504Y-112899374D02*
G01*
X147763504Y-113249801D01*
X148185373Y-113249801D01*
X148185373Y-113461835D01*
X147763504Y-113461835D01*
X147763504Y-114194197D01*
X147768725Y-114302274D01*
X147779212Y-114337046D01*
X147798126Y-114359977D01*
X147826027Y-114374507D01*
X147869475Y-114383058D01*
X148002740Y-114387271D01*
X148002740Y-114595000D01*
X147784570Y-114595000D01*
X147684337Y-114590614D01*
X147612471Y-114579246D01*
X147550779Y-114556760D01*
X147505401Y-114523650D01*
X147472405Y-114478058D01*
X147449805Y-114414565D01*
X147438424Y-114340530D01*
X147434051Y-114238252D01*
X147434051Y-113461835D01*
X147121359Y-113461835D01*
X147121359Y-113249801D01*
X147434051Y-113249801D01*
X147434051Y-112899374D01*
X147763504Y-112899374D01*
G37*
G36*
X149239096Y-113254976D02*
G01*
X149309195Y-113268761D01*
X149369847Y-113295076D01*
X149417273Y-113334890D01*
X149452378Y-113388230D01*
X149478089Y-113462842D01*
X149491817Y-113548763D01*
X149497049Y-113665350D01*
X149497049Y-114595000D01*
X148678591Y-114595000D01*
X148613948Y-114587051D01*
X148555767Y-114563584D01*
X148504292Y-114526466D01*
X148459230Y-114476481D01*
X148423635Y-114416747D01*
X148396307Y-114344223D01*
X148379992Y-114265529D01*
X148374325Y-114177436D01*
X148375557Y-114158476D01*
X148691139Y-114158476D01*
X148699630Y-114280840D01*
X148719345Y-114346818D01*
X148744575Y-114377902D01*
X148775128Y-114387271D01*
X149169610Y-114387271D01*
X149169610Y-113959174D01*
X148907294Y-113959174D01*
X148845170Y-113962099D01*
X148800315Y-113969707D01*
X148761826Y-113984103D01*
X148734187Y-114004329D01*
X148714024Y-114031329D01*
X148700573Y-114066244D01*
X148693713Y-114106118D01*
X148691139Y-114158476D01*
X148375557Y-114158476D01*
X148379942Y-114090980D01*
X148396307Y-114011656D01*
X148423594Y-113937866D01*
X148459230Y-113876284D01*
X148504392Y-113824360D01*
X148555767Y-113786067D01*
X148614017Y-113761692D01*
X148678591Y-113753461D01*
X149171717Y-113753461D01*
X149171717Y-113638056D01*
X149162965Y-113542831D01*
X149143415Y-113497555D01*
X149121861Y-113478803D01*
X149090512Y-113466495D01*
X149045779Y-113461835D01*
X148544318Y-113461835D01*
X148544318Y-113249801D01*
X149146530Y-113249801D01*
X149239096Y-113254976D01*
G37*
G36*
X150747816Y-113249801D02*
G01*
X150747816Y-113461835D01*
X150145513Y-113461835D01*
X150109591Y-113464695D01*
X150082590Y-113472368D01*
X150060409Y-113486385D01*
X150043756Y-113507997D01*
X150032530Y-113535893D01*
X150023789Y-113577240D01*
X150017561Y-113688431D01*
X150017561Y-114177436D01*
X150023561Y-114261463D01*
X150038742Y-114316985D01*
X150060120Y-114352068D01*
X150086803Y-114372525D01*
X150138618Y-114383361D01*
X150307080Y-114389378D01*
X150394183Y-114388370D01*
X150529555Y-114387271D01*
X150747816Y-114387271D01*
X150747816Y-114595000D01*
X150036428Y-114595000D01*
X149947816Y-114588807D01*
X149877976Y-114571919D01*
X149817528Y-114541511D01*
X149769898Y-114497455D01*
X149734488Y-114440132D01*
X149707983Y-114362083D01*
X149693496Y-114273072D01*
X149688016Y-114154263D01*
X149688016Y-113688431D01*
X149693474Y-113571491D01*
X149707983Y-113482809D01*
X149734497Y-113404695D01*
X149769898Y-113347438D01*
X149817535Y-113303308D01*
X149877976Y-113272882D01*
X149947816Y-113255994D01*
X150036428Y-113249801D01*
X150747816Y-113249801D01*
G37*
G36*
X151899940Y-113249801D02*
G01*
X151899940Y-114691536D01*
X151894762Y-114804282D01*
X151881072Y-114888732D01*
X151855445Y-114962643D01*
X151820164Y-115016776D01*
X151772688Y-115057642D01*
X151712087Y-115085012D01*
X151642259Y-115099565D01*
X151551619Y-115104979D01*
X151100442Y-115104979D01*
X151100442Y-114895052D01*
X151364865Y-114895052D01*
X151430665Y-114891802D01*
X151476057Y-114883511D01*
X151513703Y-114867445D01*
X151538980Y-114844677D01*
X151555753Y-114814025D01*
X151566274Y-114770213D01*
X151572594Y-114649588D01*
X151572594Y-113461835D01*
X151100442Y-113461835D01*
X151100442Y-113249801D01*
X151899940Y-113249801D01*
G37*
G36*
X151935661Y-112821705D02*
G01*
X151935661Y-113081915D01*
X151551619Y-113081915D01*
X151551619Y-112821705D01*
X151935661Y-112821705D01*
G37*
G36*
X153085921Y-113254976D02*
G01*
X153156020Y-113268761D01*
X153216672Y-113295076D01*
X153264098Y-113334890D01*
X153299203Y-113388230D01*
X153324914Y-113462842D01*
X153338642Y-113548763D01*
X153343873Y-113665350D01*
X153343873Y-114595000D01*
X152525416Y-114595000D01*
X152460772Y-114587051D01*
X152402592Y-114563584D01*
X152351117Y-114526466D01*
X152306055Y-114476481D01*
X152270460Y-114416747D01*
X152243132Y-114344223D01*
X152226817Y-114265529D01*
X152221150Y-114177436D01*
X152222382Y-114158476D01*
X152537964Y-114158476D01*
X152546455Y-114280840D01*
X152566170Y-114346818D01*
X152591400Y-114377902D01*
X152621953Y-114387271D01*
X153016435Y-114387271D01*
X153016435Y-113959174D01*
X152754118Y-113959174D01*
X152691994Y-113962099D01*
X152647140Y-113969707D01*
X152608651Y-113984103D01*
X152581011Y-114004329D01*
X152560849Y-114031329D01*
X152547397Y-114066244D01*
X152540537Y-114106118D01*
X152537964Y-114158476D01*
X152222382Y-114158476D01*
X152226767Y-114090980D01*
X152243132Y-114011656D01*
X152270419Y-113937866D01*
X152306055Y-113876284D01*
X152351217Y-113824360D01*
X152402592Y-113786067D01*
X152460842Y-113761692D01*
X152525416Y-113753461D01*
X153018542Y-113753461D01*
X153018542Y-113638056D01*
X153009790Y-113542831D01*
X152990240Y-113497555D01*
X152968686Y-113478803D01*
X152937337Y-113466495D01*
X152892604Y-113461835D01*
X152391143Y-113461835D01*
X152391143Y-113249801D01*
X152993354Y-113249801D01*
X153085921Y-113254976D01*
G37*
G36*
X155642804Y-113255675D02*
G01*
X155713243Y-113271875D01*
X155774700Y-113301521D01*
X155823335Y-113345331D01*
X155859762Y-113402792D01*
X155887357Y-113481710D01*
X155902662Y-113571643D01*
X155908423Y-113690538D01*
X155908423Y-114154263D01*
X155902944Y-114273072D01*
X155888456Y-114362083D01*
X155861951Y-114440132D01*
X155826541Y-114497455D01*
X155778740Y-114541442D01*
X155717364Y-114571919D01*
X155646401Y-114588792D01*
X155555798Y-114595000D01*
X155108833Y-114595000D01*
X155108833Y-115104979D01*
X154785700Y-115104979D01*
X154785700Y-114387271D01*
X155108833Y-114387271D01*
X155453032Y-114387271D01*
X155487157Y-114384737D01*
X155513849Y-114377837D01*
X155536285Y-114364839D01*
X155553691Y-114344315D01*
X155565777Y-114317564D01*
X155574665Y-114279193D01*
X155580985Y-114173223D01*
X155580985Y-113659030D01*
X155577962Y-113591624D01*
X155570452Y-113547839D01*
X155555268Y-113512426D01*
X155532717Y-113489129D01*
X155502030Y-113474457D01*
X155457154Y-113466048D01*
X155335521Y-113461835D01*
X155108833Y-113461835D01*
X155108833Y-114387271D01*
X154785700Y-114387271D01*
X154785700Y-113249801D01*
X155555798Y-113249801D01*
X155642804Y-113255675D01*
G37*
G36*
X156941536Y-113255980D02*
G01*
X157010172Y-113272882D01*
X157069893Y-113303190D01*
X157118250Y-113347438D01*
X157154726Y-113404766D01*
X157182272Y-113482809D01*
X157197517Y-113571526D01*
X157203246Y-113688431D01*
X157203246Y-114154263D01*
X157197766Y-114273072D01*
X157183279Y-114362083D01*
X157156598Y-114440033D01*
X157120356Y-114497455D01*
X157071834Y-114541560D01*
X157011180Y-114571919D01*
X156941660Y-114588844D01*
X156854925Y-114595000D01*
X156405763Y-114595000D01*
X156315159Y-114588792D01*
X156244196Y-114571919D01*
X156182898Y-114541448D01*
X156135111Y-114497455D01*
X156099924Y-114440107D01*
X156074203Y-114362083D01*
X156060516Y-114273103D01*
X156055335Y-114154263D01*
X156055335Y-113688431D01*
X156384788Y-113688431D01*
X156384788Y-114150142D01*
X156393240Y-114266734D01*
X156413090Y-114331675D01*
X156436427Y-114362244D01*
X156468652Y-114380632D01*
X156512833Y-114387271D01*
X156743642Y-114387271D01*
X156789180Y-114380537D01*
X156821619Y-114362079D01*
X156844392Y-114331675D01*
X156863587Y-114267286D01*
X156871687Y-114154263D01*
X156871687Y-113688431D01*
X156863557Y-113577562D01*
X156844392Y-113515324D01*
X156821788Y-113486217D01*
X156789382Y-113468379D01*
X156743642Y-113461835D01*
X156512833Y-113461835D01*
X156468458Y-113468286D01*
X156436260Y-113486055D01*
X156413090Y-113515324D01*
X156393205Y-113577635D01*
X156384788Y-113688431D01*
X156055335Y-113688431D01*
X156060496Y-113571457D01*
X156074203Y-113482809D01*
X156099933Y-113404721D01*
X156135111Y-113347438D01*
X156182905Y-113303371D01*
X156244196Y-113272882D01*
X156315159Y-113256009D01*
X156405763Y-113249801D01*
X156854925Y-113249801D01*
X156941536Y-113255980D01*
G37*
G36*
X158456120Y-114664242D02*
G01*
X158450917Y-114784923D01*
X158437253Y-114874077D01*
X158411573Y-114952156D01*
X158376345Y-115009449D01*
X158328855Y-115053346D01*
X158269366Y-115082905D01*
X158200310Y-115098989D01*
X158109906Y-115104979D01*
X157583166Y-115104979D01*
X157583166Y-114895052D01*
X157870670Y-114895052D01*
X158003844Y-114888732D01*
X158051428Y-114877853D01*
X158083620Y-114860430D01*
X158107121Y-114834358D01*
X158122454Y-114797507D01*
X158129982Y-114752763D01*
X158132987Y-114685217D01*
X158132987Y-114595000D01*
X157715332Y-114595000D01*
X157624729Y-114588792D01*
X157553765Y-114571919D01*
X157492450Y-114541452D01*
X157444589Y-114497455D01*
X157409422Y-114440105D01*
X157383772Y-114362083D01*
X157370085Y-114273103D01*
X157364904Y-114154263D01*
X157364904Y-113690538D01*
X157366119Y-113665350D01*
X157688038Y-113665350D01*
X157688038Y-114173223D01*
X157696103Y-114285043D01*
X157714233Y-114341109D01*
X157735770Y-114365520D01*
X157768876Y-114381274D01*
X157818189Y-114387271D01*
X158132987Y-114387271D01*
X158132987Y-113461835D01*
X157908406Y-113461835D01*
X157799321Y-113469162D01*
X157760539Y-113480629D01*
X157732185Y-113498563D01*
X157711369Y-113524226D01*
X157697472Y-113560478D01*
X157690690Y-113603465D01*
X157688038Y-113665350D01*
X157366119Y-113665350D01*
X157370641Y-113571639D01*
X157385879Y-113481710D01*
X157413227Y-113402693D01*
X157448802Y-113345331D01*
X157496522Y-113301493D01*
X157556879Y-113271875D01*
X157626662Y-113255732D01*
X157715332Y-113249801D01*
X158456120Y-113249801D01*
X158456120Y-114664242D01*
G37*
G36*
X159506086Y-113255980D02*
G01*
X159574722Y-113272882D01*
X159634443Y-113303190D01*
X159682800Y-113347438D01*
X159719276Y-113404766D01*
X159746822Y-113482809D01*
X159762067Y-113571526D01*
X159767796Y-113688431D01*
X159767796Y-114154263D01*
X159762316Y-114273072D01*
X159747829Y-114362083D01*
X159721148Y-114440033D01*
X159684906Y-114497455D01*
X159636384Y-114541560D01*
X159575730Y-114571919D01*
X159506210Y-114588844D01*
X159419475Y-114595000D01*
X158970313Y-114595000D01*
X158879709Y-114588792D01*
X158808746Y-114571919D01*
X158747448Y-114541448D01*
X158699661Y-114497455D01*
X158664474Y-114440107D01*
X158638753Y-114362083D01*
X158625066Y-114273103D01*
X158619885Y-114154263D01*
X158619885Y-113688431D01*
X158949338Y-113688431D01*
X158949338Y-114150142D01*
X158957790Y-114266734D01*
X158977640Y-114331675D01*
X159000977Y-114362244D01*
X159033202Y-114380632D01*
X159077383Y-114387271D01*
X159308192Y-114387271D01*
X159353730Y-114380537D01*
X159386169Y-114362079D01*
X159408942Y-114331675D01*
X159428137Y-114267286D01*
X159436236Y-114154263D01*
X159436236Y-113688431D01*
X159428107Y-113577562D01*
X159408942Y-113515324D01*
X159386338Y-113486217D01*
X159353932Y-113468379D01*
X159308192Y-113461835D01*
X159077383Y-113461835D01*
X159033008Y-113468286D01*
X159000810Y-113486055D01*
X158977640Y-113515324D01*
X158957755Y-113577635D01*
X158949338Y-113688431D01*
X158619885Y-113688431D01*
X158625046Y-113571457D01*
X158638753Y-113482809D01*
X158664483Y-113404721D01*
X158699661Y-113347438D01*
X158747455Y-113303371D01*
X158808746Y-113272882D01*
X158879709Y-113256009D01*
X158970313Y-113249801D01*
X159419475Y-113249801D01*
X159506086Y-113255980D01*
G37*
G36*
X161018564Y-114595000D02*
G01*
X160284095Y-114595000D01*
X160195666Y-114588003D01*
X160125642Y-114568804D01*
X160065551Y-114534897D01*
X160017565Y-114485915D01*
X159982148Y-114423510D01*
X159955649Y-114340010D01*
X159941173Y-114246180D01*
X159935774Y-114124954D01*
X159935774Y-113719938D01*
X159937083Y-113690538D01*
X160254694Y-113690538D01*
X160254694Y-114009549D01*
X160257677Y-114128960D01*
X160265227Y-114209951D01*
X160280795Y-114279192D01*
X160301955Y-114324348D01*
X160333152Y-114357121D01*
X160374312Y-114375730D01*
X160423645Y-114384069D01*
X160491823Y-114387271D01*
X160693324Y-114387271D01*
X160693324Y-113461835D01*
X160386952Y-113461835D01*
X160352746Y-113464370D01*
X160326044Y-113471269D01*
X160303554Y-113484621D01*
X160285102Y-113506989D01*
X160272087Y-113535894D01*
X160262021Y-113577240D01*
X160254694Y-113690538D01*
X159937083Y-113690538D01*
X159941174Y-113598632D01*
X159955649Y-113504791D01*
X159982152Y-113421305D01*
X160017565Y-113358978D01*
X160065561Y-113309942D01*
X160125642Y-113276088D01*
X160195671Y-113256821D01*
X160284095Y-113249801D01*
X160693324Y-113249801D01*
X160693324Y-112821705D01*
X161018564Y-112821705D01*
X161018564Y-114595000D01*
G37*
G36*
X161503447Y-113249801D02*
G01*
X161793058Y-114124954D01*
X161803499Y-114124954D01*
X162095217Y-113249801D01*
X162372188Y-113249801D01*
X161698627Y-115104979D01*
X161409016Y-115104979D01*
X161627278Y-114559279D01*
X161150913Y-113249801D01*
X161503447Y-113249801D01*
G37*
G36*
X164844414Y-113700979D02*
G01*
X164844414Y-113915119D01*
X163799360Y-113915119D01*
X163799360Y-113700979D01*
X164844414Y-113700979D01*
G37*
G36*
X167352361Y-112899374D02*
G01*
X167352361Y-113111316D01*
X166800433Y-113111316D01*
X166766535Y-113116142D01*
X166737418Y-113130275D01*
X166712718Y-113152330D01*
X166691256Y-113182757D01*
X166674987Y-113218013D01*
X166662955Y-113259327D01*
X166653521Y-113350552D01*
X166658503Y-113422507D01*
X166672219Y-113480406D01*
X166693363Y-113526864D01*
X166724255Y-113565286D01*
X166759363Y-113586795D01*
X166800433Y-113594001D01*
X167083724Y-113594001D01*
X167165874Y-113603263D01*
X167234758Y-113629721D01*
X167294378Y-113671985D01*
X167343934Y-113728365D01*
X167381824Y-113795870D01*
X167409972Y-113878391D01*
X167426336Y-113967743D01*
X167432045Y-114068259D01*
X167425817Y-114177089D01*
X167407865Y-114274980D01*
X167378097Y-114366073D01*
X167339721Y-114441768D01*
X167290585Y-114506440D01*
X167234758Y-114554058D01*
X167170798Y-114584759D01*
X167100485Y-114595000D01*
X166399631Y-114595000D01*
X166399631Y-114387271D01*
X166964106Y-114387271D01*
X166999874Y-114381737D01*
X167031243Y-114365289D01*
X167058031Y-114339898D01*
X167081618Y-114305480D01*
X167099572Y-114265355D01*
X167113033Y-114216270D01*
X167123566Y-114106086D01*
X167120420Y-114039424D01*
X167112026Y-113988483D01*
X167095748Y-113944166D01*
X167072184Y-113911913D01*
X167040236Y-113888015D01*
X166997629Y-113871064D01*
X166948259Y-113861927D01*
X166880117Y-113858424D01*
X166697576Y-113858424D01*
X166615045Y-113849490D01*
X166544344Y-113823803D01*
X166482802Y-113782443D01*
X166432054Y-113727266D01*
X166393128Y-113660715D01*
X166363910Y-113579346D01*
X166346840Y-113490523D01*
X166340829Y-113388379D01*
X166346726Y-113289475D01*
X166363910Y-113198419D01*
X166392379Y-113113408D01*
X166428940Y-113043172D01*
X166476012Y-112983260D01*
X166530789Y-112938209D01*
X166593752Y-112909151D01*
X166663962Y-112899374D01*
X167352361Y-112899374D01*
G37*
G36*
X168682904Y-113249801D02*
G01*
X168682904Y-113417688D01*
X168067962Y-114387271D01*
X168682904Y-114387271D01*
X168682904Y-114595000D01*
X167654611Y-114595000D01*
X167654611Y-114466955D01*
X168303076Y-113461835D01*
X167654611Y-113461835D01*
X167654611Y-113249801D01*
X168682904Y-113249801D01*
G37*
G36*
X169197096Y-113249801D02*
G01*
X169486707Y-114124954D01*
X169497149Y-114124954D01*
X169788866Y-113249801D01*
X170065838Y-113249801D01*
X169392277Y-115104979D01*
X169102666Y-115104979D01*
X169320928Y-114559279D01*
X168844562Y-113249801D01*
X169197096Y-113249801D01*
G37*
G36*
X170947310Y-113249801D02*
G01*
X171038082Y-113255193D01*
X171108877Y-113269768D01*
X171170411Y-113297204D01*
X171218053Y-113338004D01*
X171253263Y-113392129D01*
X171278870Y-113466048D01*
X171292536Y-113550750D01*
X171297738Y-113665350D01*
X171297738Y-114595000D01*
X171014446Y-114595000D01*
X171014446Y-113688431D01*
X171008127Y-113577240D01*
X170998924Y-113536069D01*
X170986145Y-113507997D01*
X170967982Y-113486227D01*
X170946211Y-113472368D01*
X170920411Y-113464680D01*
X170886494Y-113461835D01*
X170836119Y-113461835D01*
X170836119Y-114595000D01*
X170615751Y-114595000D01*
X170615751Y-113461835D01*
X170466732Y-113461835D01*
X170466732Y-114595000D01*
X170172999Y-114595000D01*
X170172999Y-113249801D01*
X170947310Y-113249801D01*
G37*
G36*
X172328836Y-113255980D02*
G01*
X172397472Y-113272882D01*
X172457192Y-113303190D01*
X172505549Y-113347438D01*
X172542026Y-113404766D01*
X172569571Y-113482809D01*
X172584816Y-113571526D01*
X172590546Y-113688431D01*
X172590546Y-114154263D01*
X172585066Y-114273072D01*
X172570579Y-114362083D01*
X172543897Y-114440033D01*
X172507656Y-114497455D01*
X172459134Y-114541560D01*
X172398479Y-114571919D01*
X172328960Y-114588844D01*
X172242225Y-114595000D01*
X171793062Y-114595000D01*
X171702459Y-114588792D01*
X171631495Y-114571919D01*
X171570197Y-114541448D01*
X171522411Y-114497455D01*
X171487224Y-114440107D01*
X171461502Y-114362083D01*
X171447816Y-114273103D01*
X171442635Y-114154263D01*
X171442635Y-113688431D01*
X171772088Y-113688431D01*
X171772088Y-114150142D01*
X171780540Y-114266734D01*
X171800389Y-114331675D01*
X171823727Y-114362244D01*
X171855951Y-114380632D01*
X171900132Y-114387271D01*
X172130942Y-114387271D01*
X172176480Y-114380537D01*
X172208918Y-114362079D01*
X172231692Y-114331675D01*
X172250886Y-114267286D01*
X172258986Y-114154263D01*
X172258986Y-113688431D01*
X172250856Y-113577562D01*
X172231692Y-113515324D01*
X172209087Y-113486217D01*
X172176681Y-113468379D01*
X172130942Y-113461835D01*
X171900132Y-113461835D01*
X171855757Y-113468286D01*
X171823560Y-113486055D01*
X171800389Y-113515324D01*
X171780504Y-113577635D01*
X171772088Y-113688431D01*
X171442635Y-113688431D01*
X171447795Y-113571457D01*
X171461502Y-113482809D01*
X171487233Y-113404721D01*
X171522411Y-113347438D01*
X171570204Y-113303371D01*
X171631495Y-113272882D01*
X171702459Y-113256009D01*
X171793062Y-113249801D01*
X172242225Y-113249801D01*
X172328836Y-113255980D01*
G37*
G36*
X173499312Y-113249801D02*
G01*
X173590002Y-113254948D01*
X173659780Y-113268761D01*
X173720246Y-113295120D01*
X173766850Y-113334890D01*
X173801174Y-113388138D01*
X173826659Y-113462842D01*
X173840320Y-113548760D01*
X173845526Y-113665350D01*
X173845526Y-114595000D01*
X173524500Y-114595000D01*
X173524500Y-113688431D01*
X173518180Y-113577240D01*
X173508906Y-113536067D01*
X173496106Y-113507997D01*
X173478017Y-113486231D01*
X173456264Y-113472368D01*
X173430699Y-113464636D01*
X173398562Y-113461835D01*
X173075337Y-113461835D01*
X173075337Y-114595000D01*
X172750097Y-114595000D01*
X172750097Y-113249801D01*
X173499312Y-113249801D01*
G37*
G36*
X176153327Y-112908387D02*
G01*
X176214896Y-112935095D01*
X176268887Y-112976987D01*
X176315646Y-113033738D01*
X176352485Y-113100741D01*
X176381683Y-113181658D01*
X176399653Y-113268821D01*
X176405863Y-113365298D01*
X176405863Y-114135396D01*
X176399946Y-114229938D01*
X176382782Y-114315922D01*
X176354368Y-114395700D01*
X176317752Y-114461734D01*
X176270896Y-114517525D01*
X176215995Y-114559371D01*
X176153500Y-114586038D01*
X176084836Y-114595000D01*
X175323073Y-114595000D01*
X175323073Y-114387271D01*
X175648313Y-114387271D01*
X175946351Y-114387271D01*
X175978375Y-114382092D01*
X176008175Y-114366297D01*
X176034009Y-114342093D01*
X176056443Y-114309602D01*
X176073797Y-114272159D01*
X176086851Y-114228818D01*
X176097384Y-114135396D01*
X176097384Y-113365298D01*
X176086851Y-113268761D01*
X176073703Y-113224624D01*
X176056443Y-113187978D01*
X176034065Y-113156270D01*
X176008175Y-113132290D01*
X175978375Y-113116494D01*
X175946351Y-113111316D01*
X175648313Y-113111316D01*
X175648313Y-114387271D01*
X175323073Y-114387271D01*
X175323073Y-112899374D01*
X176084836Y-112899374D01*
X176153327Y-112908387D01*
G37*
G36*
X177457935Y-113255980D02*
G01*
X177526571Y-113272882D01*
X177586292Y-113303190D01*
X177634649Y-113347438D01*
X177671125Y-113404766D01*
X177698671Y-113482809D01*
X177713916Y-113571526D01*
X177719645Y-113688431D01*
X177719645Y-114154263D01*
X177714166Y-114273072D01*
X177699678Y-114362083D01*
X177672997Y-114440033D01*
X177636755Y-114497455D01*
X177588233Y-114541560D01*
X177527579Y-114571919D01*
X177458059Y-114588844D01*
X177371325Y-114595000D01*
X176922162Y-114595000D01*
X176831559Y-114588792D01*
X176760595Y-114571919D01*
X176699297Y-114541448D01*
X176651510Y-114497455D01*
X176616324Y-114440107D01*
X176590602Y-114362083D01*
X176576916Y-114273103D01*
X176571734Y-114154263D01*
X176571734Y-113688431D01*
X176901188Y-113688431D01*
X176901188Y-114150142D01*
X176909640Y-114266734D01*
X176929489Y-114331675D01*
X176952826Y-114362244D01*
X176985051Y-114380632D01*
X177029232Y-114387271D01*
X177260041Y-114387271D01*
X177305579Y-114380537D01*
X177338018Y-114362079D01*
X177360792Y-114331675D01*
X177379986Y-114267286D01*
X177388086Y-114154263D01*
X177388086Y-113688431D01*
X177379956Y-113577562D01*
X177360792Y-113515324D01*
X177338187Y-113486217D01*
X177305781Y-113468379D01*
X177260041Y-113461835D01*
X177029232Y-113461835D01*
X176984857Y-113468286D01*
X176952659Y-113486055D01*
X176929489Y-113515324D01*
X176909604Y-113577635D01*
X176901188Y-113688431D01*
X176571734Y-113688431D01*
X176576895Y-113571457D01*
X176590602Y-113482809D01*
X176616332Y-113404721D01*
X176651510Y-113347438D01*
X176699304Y-113303371D01*
X176760595Y-113272882D01*
X176831559Y-113256009D01*
X176922162Y-113249801D01*
X177371325Y-113249801D01*
X177457935Y-113255980D01*
G37*
G36*
X178208650Y-113249801D02*
G01*
X178626305Y-113249801D01*
X178719125Y-113257857D01*
X178792073Y-113279980D01*
X178849336Y-113314377D01*
X178893843Y-113361085D01*
X178925760Y-113417249D01*
X178951119Y-113492454D01*
X178968243Y-113591489D01*
X178974626Y-113719938D01*
X178974626Y-114124954D01*
X178968245Y-114253346D01*
X178951124Y-114352371D01*
X178925766Y-114427599D01*
X178893843Y-114483808D01*
X178849343Y-114530473D01*
X178792083Y-114564842D01*
X178719133Y-114586949D01*
X178626305Y-114595000D01*
X177881304Y-114595000D01*
X177881304Y-114387271D01*
X178208650Y-114387271D01*
X178439551Y-114387271D01*
X178545430Y-114380951D01*
X178582880Y-114369988D01*
X178609453Y-114351550D01*
X178628165Y-114324318D01*
X178640960Y-114282308D01*
X178649386Y-114154263D01*
X178649386Y-113690538D01*
X178643066Y-113577240D01*
X178634111Y-113535832D01*
X178622092Y-113506989D01*
X178604518Y-113484661D01*
X178582250Y-113471269D01*
X178555548Y-113464370D01*
X178521342Y-113461835D01*
X178208650Y-113461835D01*
X178208650Y-114387271D01*
X177881304Y-114387271D01*
X177881304Y-112821705D01*
X178208650Y-112821705D01*
X178208650Y-113249801D01*
G37*
G36*
X180217059Y-113461835D02*
G01*
X179725948Y-113461835D01*
X179626297Y-113469162D01*
X179591012Y-113481299D01*
X179565389Y-113501677D01*
X179547852Y-113530964D01*
X179536079Y-113576232D01*
X179528752Y-113709405D01*
X179528752Y-114595000D01*
X179203421Y-114595000D01*
X179203421Y-113659030D01*
X179211851Y-113550489D01*
X179234915Y-113465130D01*
X179270412Y-113398255D01*
X179317818Y-113346338D01*
X179376822Y-113306802D01*
X179450994Y-113276657D01*
X179543651Y-113256970D01*
X179658811Y-113249801D01*
X180217059Y-113249801D01*
X180217059Y-113461835D01*
G37*
G36*
X181304760Y-113255980D02*
G01*
X181373396Y-113272882D01*
X181433117Y-113303190D01*
X181481474Y-113347438D01*
X181517950Y-113404766D01*
X181545496Y-113482809D01*
X181560741Y-113571526D01*
X181566470Y-113688431D01*
X181566470Y-114154263D01*
X181560990Y-114273072D01*
X181546503Y-114362083D01*
X181519822Y-114440033D01*
X181483580Y-114497455D01*
X181435058Y-114541560D01*
X181374404Y-114571919D01*
X181304884Y-114588844D01*
X181218149Y-114595000D01*
X180768987Y-114595000D01*
X180678383Y-114588792D01*
X180607420Y-114571919D01*
X180546122Y-114541448D01*
X180498335Y-114497455D01*
X180463148Y-114440107D01*
X180437427Y-114362083D01*
X180423740Y-114273103D01*
X180418559Y-114154263D01*
X180418559Y-113688431D01*
X180748012Y-113688431D01*
X180748012Y-114150142D01*
X180756464Y-114266734D01*
X180776314Y-114331675D01*
X180799651Y-114362244D01*
X180831876Y-114380632D01*
X180876057Y-114387271D01*
X181106866Y-114387271D01*
X181152404Y-114380537D01*
X181184843Y-114362079D01*
X181207616Y-114331675D01*
X181226811Y-114267286D01*
X181234911Y-114154263D01*
X181234911Y-113688431D01*
X181226781Y-113577562D01*
X181207616Y-113515324D01*
X181185012Y-113486217D01*
X181152606Y-113468379D01*
X181106866Y-113461835D01*
X180876057Y-113461835D01*
X180831682Y-113468286D01*
X180799484Y-113486055D01*
X180776314Y-113515324D01*
X180756429Y-113577635D01*
X180748012Y-113688431D01*
X180418559Y-113688431D01*
X180423720Y-113571457D01*
X180437427Y-113482809D01*
X180463157Y-113404721D01*
X180498335Y-113347438D01*
X180546129Y-113303371D01*
X180607420Y-113272882D01*
X180678383Y-113256009D01*
X180768987Y-113249801D01*
X181218149Y-113249801D01*
X181304760Y-113255980D01*
G37*
G36*
X181961045Y-113249801D02*
G01*
X182026166Y-114210958D01*
X182036607Y-114210958D01*
X182172986Y-113587681D01*
X182376593Y-113587681D01*
X182508759Y-114206745D01*
X182521399Y-114206745D01*
X182584322Y-113249801D01*
X182894907Y-113249801D01*
X182727021Y-114595000D01*
X182376593Y-114595000D01*
X182277950Y-114091340D01*
X182267417Y-114091340D01*
X182172986Y-114595000D01*
X181822559Y-114595000D01*
X181654672Y-113249801D01*
X181961045Y-113249801D01*
G37*
G36*
X183869310Y-113255980D02*
G01*
X183937946Y-113272882D01*
X183997667Y-113303190D01*
X184046024Y-113347438D01*
X184082500Y-113404766D01*
X184110046Y-113482809D01*
X184125291Y-113571526D01*
X184131020Y-113688431D01*
X184131020Y-114154263D01*
X184125540Y-114273072D01*
X184111053Y-114362083D01*
X184084372Y-114440033D01*
X184048130Y-114497455D01*
X183999608Y-114541560D01*
X183938954Y-114571919D01*
X183869434Y-114588844D01*
X183782699Y-114595000D01*
X183333537Y-114595000D01*
X183242933Y-114588792D01*
X183171970Y-114571919D01*
X183110672Y-114541448D01*
X183062885Y-114497455D01*
X183027698Y-114440107D01*
X183001977Y-114362083D01*
X182988290Y-114273103D01*
X182983109Y-114154263D01*
X182983109Y-113688431D01*
X183312562Y-113688431D01*
X183312562Y-114150142D01*
X183321014Y-114266734D01*
X183340864Y-114331675D01*
X183364201Y-114362244D01*
X183396426Y-114380632D01*
X183440607Y-114387271D01*
X183671416Y-114387271D01*
X183716954Y-114380537D01*
X183749393Y-114362079D01*
X183772166Y-114331675D01*
X183791361Y-114267286D01*
X183799460Y-114154263D01*
X183799460Y-113688431D01*
X183791331Y-113577562D01*
X183772166Y-113515324D01*
X183749562Y-113486217D01*
X183717156Y-113468379D01*
X183671416Y-113461835D01*
X183440607Y-113461835D01*
X183396232Y-113468286D01*
X183364034Y-113486055D01*
X183340864Y-113515324D01*
X183320979Y-113577635D01*
X183312562Y-113688431D01*
X182983109Y-113688431D01*
X182988270Y-113571457D01*
X183001977Y-113482809D01*
X183027707Y-113404721D01*
X183062885Y-113347438D01*
X183110679Y-113303371D01*
X183171970Y-113272882D01*
X183242933Y-113256009D01*
X183333537Y-113249801D01*
X183782699Y-113249801D01*
X183869310Y-113255980D01*
G37*
G36*
X184997746Y-112821705D02*
G01*
X184997746Y-114387271D01*
X185371346Y-114387271D01*
X185371346Y-114595000D01*
X184307333Y-114595000D01*
X184307333Y-114387271D01*
X184672506Y-114387271D01*
X184672506Y-113033647D01*
X184307333Y-113033647D01*
X184307333Y-112821705D01*
X184997746Y-112821705D01*
G37*
G36*
X186596926Y-113249801D02*
G01*
X186596926Y-113461835D01*
X185952675Y-113461835D01*
X185903284Y-113471126D01*
X185867678Y-113497555D01*
X185846222Y-113541130D01*
X185837270Y-113621295D01*
X185846355Y-113698223D01*
X185869258Y-113745000D01*
X185903550Y-113771404D01*
X185952675Y-113780755D01*
X186395518Y-113780755D01*
X186463696Y-113788635D01*
X186521364Y-113811255D01*
X186571626Y-113846807D01*
X186613688Y-113893046D01*
X186646539Y-113948144D01*
X186671390Y-114014770D01*
X186686223Y-114086853D01*
X186691357Y-114166903D01*
X186681413Y-114300862D01*
X186654516Y-114403962D01*
X186613688Y-114482709D01*
X186570559Y-114531496D01*
X186518993Y-114566043D01*
X186457329Y-114587434D01*
X186382878Y-114595000D01*
X185598034Y-114595000D01*
X185598034Y-114387271D01*
X186313635Y-114387271D01*
X186350682Y-114377222D01*
X186380771Y-114345322D01*
X186398637Y-114296790D01*
X186405959Y-114215171D01*
X186398564Y-114133860D01*
X186380771Y-114087219D01*
X186350851Y-114056949D01*
X186313635Y-114047285D01*
X185854031Y-114047285D01*
X185781938Y-114039376D01*
X185721865Y-114016877D01*
X185670291Y-113980540D01*
X185628442Y-113931880D01*
X185596719Y-113873569D01*
X185572847Y-113802828D01*
X185558828Y-113726523D01*
X185553979Y-113642269D01*
X185564001Y-113521461D01*
X185591390Y-113427157D01*
X185633663Y-113353757D01*
X185677249Y-113309580D01*
X185731088Y-113277456D01*
X185797360Y-113257108D01*
X185879219Y-113249801D01*
X186596926Y-113249801D01*
G37*
G36*
X187159387Y-112821705D02*
G01*
X187159387Y-113715725D01*
X187180362Y-113715725D01*
X187589590Y-113249801D01*
X187929576Y-113249801D01*
X187400730Y-113866851D01*
X187979952Y-114595000D01*
X187602230Y-114595000D01*
X187176240Y-114030524D01*
X187159387Y-114030524D01*
X187159387Y-114595000D01*
X186829934Y-114595000D01*
X186829934Y-112821705D01*
X187159387Y-112821705D01*
G37*
G36*
X188880292Y-112821705D02*
G01*
X188880292Y-113081915D01*
X188496250Y-113081915D01*
X188496250Y-112821705D01*
X188880292Y-112821705D01*
G37*
G36*
X188850891Y-113249801D02*
G01*
X188850891Y-114387271D01*
X189216065Y-114387271D01*
X189216065Y-114595000D01*
X188154158Y-114595000D01*
X188154158Y-114387271D01*
X188525651Y-114387271D01*
X188525651Y-113461835D01*
X188154158Y-113461835D01*
X188154158Y-113249801D01*
X188850891Y-113249801D01*
G37*
D11*
X110073996Y-111784619D02*
X109740663Y-111308428D01*
X109502568Y-111784619D02*
X109502568Y-110784619D01*
X109502568Y-110784619D02*
X109883520Y-110784619D01*
X109883520Y-110784619D02*
X109978758Y-110832238D01*
X109978758Y-110832238D02*
X110026377Y-110879857D01*
X110026377Y-110879857D02*
X110073996Y-110975095D01*
X110073996Y-110975095D02*
X110073996Y-111117952D01*
X110073996Y-111117952D02*
X110026377Y-111213190D01*
X110026377Y-111213190D02*
X109978758Y-111260809D01*
X109978758Y-111260809D02*
X109883520Y-111308428D01*
X109883520Y-111308428D02*
X109502568Y-111308428D01*
X110359711Y-110784619D02*
X110931139Y-110784619D01*
X110645425Y-111784619D02*
X110645425Y-110784619D01*
X111216854Y-111737000D02*
X111359711Y-111784619D01*
X111359711Y-111784619D02*
X111597806Y-111784619D01*
X111597806Y-111784619D02*
X111693044Y-111737000D01*
X111693044Y-111737000D02*
X111740663Y-111689380D01*
X111740663Y-111689380D02*
X111788282Y-111594142D01*
X111788282Y-111594142D02*
X111788282Y-111498904D01*
X111788282Y-111498904D02*
X111740663Y-111403666D01*
X111740663Y-111403666D02*
X111693044Y-111356047D01*
X111693044Y-111356047D02*
X111597806Y-111308428D01*
X111597806Y-111308428D02*
X111407330Y-111260809D01*
X111407330Y-111260809D02*
X111312092Y-111213190D01*
X111312092Y-111213190D02*
X111264473Y-111165571D01*
X111264473Y-111165571D02*
X111216854Y-111070333D01*
X111216854Y-111070333D02*
X111216854Y-110975095D01*
X111216854Y-110975095D02*
X111264473Y-110879857D01*
X111264473Y-110879857D02*
X111312092Y-110832238D01*
X111312092Y-110832238D02*
X111407330Y-110784619D01*
X111407330Y-110784619D02*
X111645425Y-110784619D01*
X111645425Y-110784619D02*
X111788282Y-110832238D01*
X197900809Y-83334098D02*
X197948428Y-83191241D01*
X197948428Y-83191241D02*
X197996047Y-83143622D01*
X197996047Y-83143622D02*
X198091285Y-83096003D01*
X198091285Y-83096003D02*
X198234142Y-83096003D01*
X198234142Y-83096003D02*
X198329380Y-83143622D01*
X198329380Y-83143622D02*
X198377000Y-83191241D01*
X198377000Y-83191241D02*
X198424619Y-83286479D01*
X198424619Y-83286479D02*
X198424619Y-83667431D01*
X198424619Y-83667431D02*
X197424619Y-83667431D01*
X197424619Y-83667431D02*
X197424619Y-83334098D01*
X197424619Y-83334098D02*
X197472238Y-83238860D01*
X197472238Y-83238860D02*
X197519857Y-83191241D01*
X197519857Y-83191241D02*
X197615095Y-83143622D01*
X197615095Y-83143622D02*
X197710333Y-83143622D01*
X197710333Y-83143622D02*
X197805571Y-83191241D01*
X197805571Y-83191241D02*
X197853190Y-83238860D01*
X197853190Y-83238860D02*
X197900809Y-83334098D01*
X197900809Y-83334098D02*
X197900809Y-83667431D01*
X197424619Y-82476955D02*
X197424619Y-82286479D01*
X197424619Y-82286479D02*
X197472238Y-82191241D01*
X197472238Y-82191241D02*
X197567476Y-82096003D01*
X197567476Y-82096003D02*
X197757952Y-82048384D01*
X197757952Y-82048384D02*
X198091285Y-82048384D01*
X198091285Y-82048384D02*
X198281761Y-82096003D01*
X198281761Y-82096003D02*
X198377000Y-82191241D01*
X198377000Y-82191241D02*
X198424619Y-82286479D01*
X198424619Y-82286479D02*
X198424619Y-82476955D01*
X198424619Y-82476955D02*
X198377000Y-82572193D01*
X198377000Y-82572193D02*
X198281761Y-82667431D01*
X198281761Y-82667431D02*
X198091285Y-82715050D01*
X198091285Y-82715050D02*
X197757952Y-82715050D01*
X197757952Y-82715050D02*
X197567476Y-82667431D01*
X197567476Y-82667431D02*
X197472238Y-82572193D01*
X197472238Y-82572193D02*
X197424619Y-82476955D01*
X197424619Y-81429336D02*
X197424619Y-81238860D01*
X197424619Y-81238860D02*
X197472238Y-81143622D01*
X197472238Y-81143622D02*
X197567476Y-81048384D01*
X197567476Y-81048384D02*
X197757952Y-81000765D01*
X197757952Y-81000765D02*
X198091285Y-81000765D01*
X198091285Y-81000765D02*
X198281761Y-81048384D01*
X198281761Y-81048384D02*
X198377000Y-81143622D01*
X198377000Y-81143622D02*
X198424619Y-81238860D01*
X198424619Y-81238860D02*
X198424619Y-81429336D01*
X198424619Y-81429336D02*
X198377000Y-81524574D01*
X198377000Y-81524574D02*
X198281761Y-81619812D01*
X198281761Y-81619812D02*
X198091285Y-81667431D01*
X198091285Y-81667431D02*
X197757952Y-81667431D01*
X197757952Y-81667431D02*
X197567476Y-81619812D01*
X197567476Y-81619812D02*
X197472238Y-81524574D01*
X197472238Y-81524574D02*
X197424619Y-81429336D01*
X197424619Y-80715050D02*
X197424619Y-80143622D01*
X198424619Y-80429336D02*
X197424619Y-80429336D01*
X114759711Y-110764619D02*
X115331139Y-110764619D01*
X115045425Y-111764619D02*
X115045425Y-110764619D01*
X115569235Y-110764619D02*
X116235901Y-111764619D01*
X116235901Y-110764619D02*
X115569235Y-111764619D01*
X106522568Y-111774619D02*
X106522568Y-110774619D01*
X106522568Y-110774619D02*
X106760663Y-110774619D01*
X106760663Y-110774619D02*
X106903520Y-110822238D01*
X106903520Y-110822238D02*
X106998758Y-110917476D01*
X106998758Y-110917476D02*
X107046377Y-111012714D01*
X107046377Y-111012714D02*
X107093996Y-111203190D01*
X107093996Y-111203190D02*
X107093996Y-111346047D01*
X107093996Y-111346047D02*
X107046377Y-111536523D01*
X107046377Y-111536523D02*
X106998758Y-111631761D01*
X106998758Y-111631761D02*
X106903520Y-111727000D01*
X106903520Y-111727000D02*
X106760663Y-111774619D01*
X106760663Y-111774619D02*
X106522568Y-111774619D01*
X107379711Y-110774619D02*
X107951139Y-110774619D01*
X107665425Y-111774619D02*
X107665425Y-110774619D01*
X108855901Y-111774619D02*
X108522568Y-111298428D01*
X108284473Y-111774619D02*
X108284473Y-110774619D01*
X108284473Y-110774619D02*
X108665425Y-110774619D01*
X108665425Y-110774619D02*
X108760663Y-110822238D01*
X108760663Y-110822238D02*
X108808282Y-110869857D01*
X108808282Y-110869857D02*
X108855901Y-110965095D01*
X108855901Y-110965095D02*
X108855901Y-111107952D01*
X108855901Y-111107952D02*
X108808282Y-111203190D01*
X108808282Y-111203190D02*
X108760663Y-111250809D01*
X108760663Y-111250809D02*
X108665425Y-111298428D01*
X108665425Y-111298428D02*
X108284473Y-111298428D01*
X117436377Y-110792238D02*
X117341139Y-110744619D01*
X117341139Y-110744619D02*
X117198282Y-110744619D01*
X117198282Y-110744619D02*
X117055425Y-110792238D01*
X117055425Y-110792238D02*
X116960187Y-110887476D01*
X116960187Y-110887476D02*
X116912568Y-110982714D01*
X116912568Y-110982714D02*
X116864949Y-111173190D01*
X116864949Y-111173190D02*
X116864949Y-111316047D01*
X116864949Y-111316047D02*
X116912568Y-111506523D01*
X116912568Y-111506523D02*
X116960187Y-111601761D01*
X116960187Y-111601761D02*
X117055425Y-111697000D01*
X117055425Y-111697000D02*
X117198282Y-111744619D01*
X117198282Y-111744619D02*
X117293520Y-111744619D01*
X117293520Y-111744619D02*
X117436377Y-111697000D01*
X117436377Y-111697000D02*
X117483996Y-111649380D01*
X117483996Y-111649380D02*
X117483996Y-111316047D01*
X117483996Y-111316047D02*
X117293520Y-111316047D01*
X117912568Y-111744619D02*
X117912568Y-110744619D01*
X117912568Y-110744619D02*
X118483996Y-111744619D01*
X118483996Y-111744619D02*
X118483996Y-110744619D01*
X118960187Y-111744619D02*
X118960187Y-110744619D01*
X118960187Y-110744619D02*
X119198282Y-110744619D01*
X119198282Y-110744619D02*
X119341139Y-110792238D01*
X119341139Y-110792238D02*
X119436377Y-110887476D01*
X119436377Y-110887476D02*
X119483996Y-110982714D01*
X119483996Y-110982714D02*
X119531615Y-111173190D01*
X119531615Y-111173190D02*
X119531615Y-111316047D01*
X119531615Y-111316047D02*
X119483996Y-111506523D01*
X119483996Y-111506523D02*
X119436377Y-111601761D01*
X119436377Y-111601761D02*
X119341139Y-111697000D01*
X119341139Y-111697000D02*
X119198282Y-111744619D01*
X119198282Y-111744619D02*
X118960187Y-111744619D01*
X185340809Y-97897431D02*
X185340809Y-97564098D01*
X185864619Y-97421241D02*
X185864619Y-97897431D01*
X185864619Y-97897431D02*
X184864619Y-97897431D01*
X184864619Y-97897431D02*
X184864619Y-97421241D01*
X185817000Y-97040288D02*
X185864619Y-96897431D01*
X185864619Y-96897431D02*
X185864619Y-96659336D01*
X185864619Y-96659336D02*
X185817000Y-96564098D01*
X185817000Y-96564098D02*
X185769380Y-96516479D01*
X185769380Y-96516479D02*
X185674142Y-96468860D01*
X185674142Y-96468860D02*
X185578904Y-96468860D01*
X185578904Y-96468860D02*
X185483666Y-96516479D01*
X185483666Y-96516479D02*
X185436047Y-96564098D01*
X185436047Y-96564098D02*
X185388428Y-96659336D01*
X185388428Y-96659336D02*
X185340809Y-96849812D01*
X185340809Y-96849812D02*
X185293190Y-96945050D01*
X185293190Y-96945050D02*
X185245571Y-96992669D01*
X185245571Y-96992669D02*
X185150333Y-97040288D01*
X185150333Y-97040288D02*
X185055095Y-97040288D01*
X185055095Y-97040288D02*
X184959857Y-96992669D01*
X184959857Y-96992669D02*
X184912238Y-96945050D01*
X184912238Y-96945050D02*
X184864619Y-96849812D01*
X184864619Y-96849812D02*
X184864619Y-96611717D01*
X184864619Y-96611717D02*
X184912238Y-96468860D01*
X185864619Y-96040288D02*
X184864619Y-96040288D01*
X184864619Y-96040288D02*
X184864619Y-95659336D01*
X184864619Y-95659336D02*
X184912238Y-95564098D01*
X184912238Y-95564098D02*
X184959857Y-95516479D01*
X184959857Y-95516479D02*
X185055095Y-95468860D01*
X185055095Y-95468860D02*
X185197952Y-95468860D01*
X185197952Y-95468860D02*
X185293190Y-95516479D01*
X185293190Y-95516479D02*
X185340809Y-95564098D01*
X185340809Y-95564098D02*
X185388428Y-95659336D01*
X185388428Y-95659336D02*
X185388428Y-96040288D01*
X185340809Y-94278383D02*
X185340809Y-93945050D01*
X185864619Y-93802193D02*
X185864619Y-94278383D01*
X185864619Y-94278383D02*
X184864619Y-94278383D01*
X184864619Y-94278383D02*
X184864619Y-93802193D01*
X185864619Y-93373621D02*
X184864619Y-93373621D01*
X184864619Y-93373621D02*
X185864619Y-92802193D01*
X185864619Y-92802193D02*
X184864619Y-92802193D01*
X185578904Y-92373621D02*
X185578904Y-91897431D01*
X185864619Y-92468859D02*
X184864619Y-92135526D01*
X184864619Y-92135526D02*
X185864619Y-91802193D01*
X185340809Y-91135526D02*
X185388428Y-90992669D01*
X185388428Y-90992669D02*
X185436047Y-90945050D01*
X185436047Y-90945050D02*
X185531285Y-90897431D01*
X185531285Y-90897431D02*
X185674142Y-90897431D01*
X185674142Y-90897431D02*
X185769380Y-90945050D01*
X185769380Y-90945050D02*
X185817000Y-90992669D01*
X185817000Y-90992669D02*
X185864619Y-91087907D01*
X185864619Y-91087907D02*
X185864619Y-91468859D01*
X185864619Y-91468859D02*
X184864619Y-91468859D01*
X184864619Y-91468859D02*
X184864619Y-91135526D01*
X184864619Y-91135526D02*
X184912238Y-91040288D01*
X184912238Y-91040288D02*
X184959857Y-90992669D01*
X184959857Y-90992669D02*
X185055095Y-90945050D01*
X185055095Y-90945050D02*
X185150333Y-90945050D01*
X185150333Y-90945050D02*
X185245571Y-90992669D01*
X185245571Y-90992669D02*
X185293190Y-91040288D01*
X185293190Y-91040288D02*
X185340809Y-91135526D01*
X185340809Y-91135526D02*
X185340809Y-91468859D01*
X185864619Y-89992669D02*
X185864619Y-90468859D01*
X185864619Y-90468859D02*
X184864619Y-90468859D01*
X185340809Y-89659335D02*
X185340809Y-89326002D01*
X185864619Y-89183145D02*
X185864619Y-89659335D01*
X185864619Y-89659335D02*
X184864619Y-89659335D01*
X184864619Y-89659335D02*
X184864619Y-89183145D01*
X113163996Y-111794619D02*
X112830663Y-111318428D01*
X112592568Y-111794619D02*
X112592568Y-110794619D01*
X112592568Y-110794619D02*
X112973520Y-110794619D01*
X112973520Y-110794619D02*
X113068758Y-110842238D01*
X113068758Y-110842238D02*
X113116377Y-110889857D01*
X113116377Y-110889857D02*
X113163996Y-110985095D01*
X113163996Y-110985095D02*
X113163996Y-111127952D01*
X113163996Y-111127952D02*
X113116377Y-111223190D01*
X113116377Y-111223190D02*
X113068758Y-111270809D01*
X113068758Y-111270809D02*
X112973520Y-111318428D01*
X112973520Y-111318428D02*
X112592568Y-111318428D01*
X113497330Y-110794619D02*
X114163996Y-111794619D01*
X114163996Y-110794619D02*
X113497330Y-111794619D01*
X197900809Y-86857431D02*
X197900809Y-86524098D01*
X198424619Y-86381241D02*
X198424619Y-86857431D01*
X198424619Y-86857431D02*
X197424619Y-86857431D01*
X197424619Y-86857431D02*
X197424619Y-86381241D01*
X198424619Y-85952669D02*
X197424619Y-85952669D01*
X197424619Y-85952669D02*
X198424619Y-85381241D01*
X198424619Y-85381241D02*
X197424619Y-85381241D01*
X197900809Y-84571717D02*
X197948428Y-84428860D01*
X197948428Y-84428860D02*
X197996047Y-84381241D01*
X197996047Y-84381241D02*
X198091285Y-84333622D01*
X198091285Y-84333622D02*
X198234142Y-84333622D01*
X198234142Y-84333622D02*
X198329380Y-84381241D01*
X198329380Y-84381241D02*
X198377000Y-84428860D01*
X198377000Y-84428860D02*
X198424619Y-84524098D01*
X198424619Y-84524098D02*
X198424619Y-84905050D01*
X198424619Y-84905050D02*
X197424619Y-84905050D01*
X197424619Y-84905050D02*
X197424619Y-84571717D01*
X197424619Y-84571717D02*
X197472238Y-84476479D01*
X197472238Y-84476479D02*
X197519857Y-84428860D01*
X197519857Y-84428860D02*
X197615095Y-84381241D01*
X197615095Y-84381241D02*
X197710333Y-84381241D01*
X197710333Y-84381241D02*
X197805571Y-84428860D01*
X197805571Y-84428860D02*
X197853190Y-84476479D01*
X197853190Y-84476479D02*
X197900809Y-84571717D01*
X197900809Y-84571717D02*
X197900809Y-84905050D01*
X120029711Y-110704619D02*
X120363044Y-111704619D01*
X120363044Y-111704619D02*
X120696377Y-110704619D01*
X121601139Y-111609380D02*
X121553520Y-111657000D01*
X121553520Y-111657000D02*
X121410663Y-111704619D01*
X121410663Y-111704619D02*
X121315425Y-111704619D01*
X121315425Y-111704619D02*
X121172568Y-111657000D01*
X121172568Y-111657000D02*
X121077330Y-111561761D01*
X121077330Y-111561761D02*
X121029711Y-111466523D01*
X121029711Y-111466523D02*
X120982092Y-111276047D01*
X120982092Y-111276047D02*
X120982092Y-111133190D01*
X120982092Y-111133190D02*
X121029711Y-110942714D01*
X121029711Y-110942714D02*
X121077330Y-110847476D01*
X121077330Y-110847476D02*
X121172568Y-110752238D01*
X121172568Y-110752238D02*
X121315425Y-110704619D01*
X121315425Y-110704619D02*
X121410663Y-110704619D01*
X121410663Y-110704619D02*
X121553520Y-110752238D01*
X121553520Y-110752238D02*
X121601139Y-110799857D01*
X122601139Y-111609380D02*
X122553520Y-111657000D01*
X122553520Y-111657000D02*
X122410663Y-111704619D01*
X122410663Y-111704619D02*
X122315425Y-111704619D01*
X122315425Y-111704619D02*
X122172568Y-111657000D01*
X122172568Y-111657000D02*
X122077330Y-111561761D01*
X122077330Y-111561761D02*
X122029711Y-111466523D01*
X122029711Y-111466523D02*
X121982092Y-111276047D01*
X121982092Y-111276047D02*
X121982092Y-111133190D01*
X121982092Y-111133190D02*
X122029711Y-110942714D01*
X122029711Y-110942714D02*
X122077330Y-110847476D01*
X122077330Y-110847476D02*
X122172568Y-110752238D01*
X122172568Y-110752238D02*
X122315425Y-110704619D01*
X122315425Y-110704619D02*
X122410663Y-110704619D01*
X122410663Y-110704619D02*
X122553520Y-110752238D01*
X122553520Y-110752238D02*
X122601139Y-110799857D01*
X185340809Y-87167431D02*
X185340809Y-86834098D01*
X185864619Y-86691241D02*
X185864619Y-87167431D01*
X185864619Y-87167431D02*
X184864619Y-87167431D01*
X184864619Y-87167431D02*
X184864619Y-86691241D01*
X185817000Y-86310288D02*
X185864619Y-86167431D01*
X185864619Y-86167431D02*
X185864619Y-85929336D01*
X185864619Y-85929336D02*
X185817000Y-85834098D01*
X185817000Y-85834098D02*
X185769380Y-85786479D01*
X185769380Y-85786479D02*
X185674142Y-85738860D01*
X185674142Y-85738860D02*
X185578904Y-85738860D01*
X185578904Y-85738860D02*
X185483666Y-85786479D01*
X185483666Y-85786479D02*
X185436047Y-85834098D01*
X185436047Y-85834098D02*
X185388428Y-85929336D01*
X185388428Y-85929336D02*
X185340809Y-86119812D01*
X185340809Y-86119812D02*
X185293190Y-86215050D01*
X185293190Y-86215050D02*
X185245571Y-86262669D01*
X185245571Y-86262669D02*
X185150333Y-86310288D01*
X185150333Y-86310288D02*
X185055095Y-86310288D01*
X185055095Y-86310288D02*
X184959857Y-86262669D01*
X184959857Y-86262669D02*
X184912238Y-86215050D01*
X184912238Y-86215050D02*
X184864619Y-86119812D01*
X184864619Y-86119812D02*
X184864619Y-85881717D01*
X184864619Y-85881717D02*
X184912238Y-85738860D01*
X185864619Y-85310288D02*
X184864619Y-85310288D01*
X184864619Y-85310288D02*
X184864619Y-84929336D01*
X184864619Y-84929336D02*
X184912238Y-84834098D01*
X184912238Y-84834098D02*
X184959857Y-84786479D01*
X184959857Y-84786479D02*
X185055095Y-84738860D01*
X185055095Y-84738860D02*
X185197952Y-84738860D01*
X185197952Y-84738860D02*
X185293190Y-84786479D01*
X185293190Y-84786479D02*
X185340809Y-84834098D01*
X185340809Y-84834098D02*
X185388428Y-84929336D01*
X185388428Y-84929336D02*
X185388428Y-85310288D01*
X185340809Y-83215050D02*
X185388428Y-83072193D01*
X185388428Y-83072193D02*
X185436047Y-83024574D01*
X185436047Y-83024574D02*
X185531285Y-82976955D01*
X185531285Y-82976955D02*
X185674142Y-82976955D01*
X185674142Y-82976955D02*
X185769380Y-83024574D01*
X185769380Y-83024574D02*
X185817000Y-83072193D01*
X185817000Y-83072193D02*
X185864619Y-83167431D01*
X185864619Y-83167431D02*
X185864619Y-83548383D01*
X185864619Y-83548383D02*
X184864619Y-83548383D01*
X184864619Y-83548383D02*
X184864619Y-83215050D01*
X184864619Y-83215050D02*
X184912238Y-83119812D01*
X184912238Y-83119812D02*
X184959857Y-83072193D01*
X184959857Y-83072193D02*
X185055095Y-83024574D01*
X185055095Y-83024574D02*
X185150333Y-83024574D01*
X185150333Y-83024574D02*
X185245571Y-83072193D01*
X185245571Y-83072193D02*
X185293190Y-83119812D01*
X185293190Y-83119812D02*
X185340809Y-83215050D01*
X185340809Y-83215050D02*
X185340809Y-83548383D01*
X184864619Y-82357907D02*
X184864619Y-82167431D01*
X184864619Y-82167431D02*
X184912238Y-82072193D01*
X184912238Y-82072193D02*
X185007476Y-81976955D01*
X185007476Y-81976955D02*
X185197952Y-81929336D01*
X185197952Y-81929336D02*
X185531285Y-81929336D01*
X185531285Y-81929336D02*
X185721761Y-81976955D01*
X185721761Y-81976955D02*
X185817000Y-82072193D01*
X185817000Y-82072193D02*
X185864619Y-82167431D01*
X185864619Y-82167431D02*
X185864619Y-82357907D01*
X185864619Y-82357907D02*
X185817000Y-82453145D01*
X185817000Y-82453145D02*
X185721761Y-82548383D01*
X185721761Y-82548383D02*
X185531285Y-82596002D01*
X185531285Y-82596002D02*
X185197952Y-82596002D01*
X185197952Y-82596002D02*
X185007476Y-82548383D01*
X185007476Y-82548383D02*
X184912238Y-82453145D01*
X184912238Y-82453145D02*
X184864619Y-82357907D01*
X184864619Y-81310288D02*
X184864619Y-81119812D01*
X184864619Y-81119812D02*
X184912238Y-81024574D01*
X184912238Y-81024574D02*
X185007476Y-80929336D01*
X185007476Y-80929336D02*
X185197952Y-80881717D01*
X185197952Y-80881717D02*
X185531285Y-80881717D01*
X185531285Y-80881717D02*
X185721761Y-80929336D01*
X185721761Y-80929336D02*
X185817000Y-81024574D01*
X185817000Y-81024574D02*
X185864619Y-81119812D01*
X185864619Y-81119812D02*
X185864619Y-81310288D01*
X185864619Y-81310288D02*
X185817000Y-81405526D01*
X185817000Y-81405526D02*
X185721761Y-81500764D01*
X185721761Y-81500764D02*
X185531285Y-81548383D01*
X185531285Y-81548383D02*
X185197952Y-81548383D01*
X185197952Y-81548383D02*
X185007476Y-81500764D01*
X185007476Y-81500764D02*
X184912238Y-81405526D01*
X184912238Y-81405526D02*
X184864619Y-81310288D01*
X184864619Y-80596002D02*
X184864619Y-80024574D01*
X185864619Y-80310288D02*
X184864619Y-80310288D01*
D12*
X173738095Y-83254819D02*
X173738095Y-82254819D01*
X173738095Y-82731009D02*
X174309523Y-82731009D01*
X174309523Y-83254819D02*
X174309523Y-82254819D01*
X174738095Y-82350057D02*
X174785714Y-82302438D01*
X174785714Y-82302438D02*
X174880952Y-82254819D01*
X174880952Y-82254819D02*
X175119047Y-82254819D01*
X175119047Y-82254819D02*
X175214285Y-82302438D01*
X175214285Y-82302438D02*
X175261904Y-82350057D01*
X175261904Y-82350057D02*
X175309523Y-82445295D01*
X175309523Y-82445295D02*
X175309523Y-82540533D01*
X175309523Y-82540533D02*
X175261904Y-82683390D01*
X175261904Y-82683390D02*
X174690476Y-83254819D01*
X174690476Y-83254819D02*
X175309523Y-83254819D01*
X122844819Y-113773333D02*
X123559104Y-113773333D01*
X123559104Y-113773333D02*
X123701961Y-113820952D01*
X123701961Y-113820952D02*
X123797200Y-113916190D01*
X123797200Y-113916190D02*
X123844819Y-114059047D01*
X123844819Y-114059047D02*
X123844819Y-114154285D01*
X122940057Y-113344761D02*
X122892438Y-113297142D01*
X122892438Y-113297142D02*
X122844819Y-113201904D01*
X122844819Y-113201904D02*
X122844819Y-112963809D01*
X122844819Y-112963809D02*
X122892438Y-112868571D01*
X122892438Y-112868571D02*
X122940057Y-112820952D01*
X122940057Y-112820952D02*
X123035295Y-112773333D01*
X123035295Y-112773333D02*
X123130533Y-112773333D01*
X123130533Y-112773333D02*
X123273390Y-112820952D01*
X123273390Y-112820952D02*
X123844819Y-113392380D01*
X123844819Y-113392380D02*
X123844819Y-112773333D01*
X190637200Y-94923332D02*
X190684819Y-94780475D01*
X190684819Y-94780475D02*
X190684819Y-94542380D01*
X190684819Y-94542380D02*
X190637200Y-94447142D01*
X190637200Y-94447142D02*
X190589580Y-94399523D01*
X190589580Y-94399523D02*
X190494342Y-94351904D01*
X190494342Y-94351904D02*
X190399104Y-94351904D01*
X190399104Y-94351904D02*
X190303866Y-94399523D01*
X190303866Y-94399523D02*
X190256247Y-94447142D01*
X190256247Y-94447142D02*
X190208628Y-94542380D01*
X190208628Y-94542380D02*
X190161009Y-94732856D01*
X190161009Y-94732856D02*
X190113390Y-94828094D01*
X190113390Y-94828094D02*
X190065771Y-94875713D01*
X190065771Y-94875713D02*
X189970533Y-94923332D01*
X189970533Y-94923332D02*
X189875295Y-94923332D01*
X189875295Y-94923332D02*
X189780057Y-94875713D01*
X189780057Y-94875713D02*
X189732438Y-94828094D01*
X189732438Y-94828094D02*
X189684819Y-94732856D01*
X189684819Y-94732856D02*
X189684819Y-94494761D01*
X189684819Y-94494761D02*
X189732438Y-94351904D01*
X189684819Y-94018570D02*
X190684819Y-93780475D01*
X190684819Y-93780475D02*
X189970533Y-93589999D01*
X189970533Y-93589999D02*
X190684819Y-93399523D01*
X190684819Y-93399523D02*
X189684819Y-93161428D01*
X190018152Y-92351904D02*
X190684819Y-92351904D01*
X189637200Y-92589999D02*
X190351485Y-92828094D01*
X190351485Y-92828094D02*
X190351485Y-92209047D01*
X144647142Y-62819580D02*
X144599523Y-62867200D01*
X144599523Y-62867200D02*
X144456666Y-62914819D01*
X144456666Y-62914819D02*
X144361428Y-62914819D01*
X144361428Y-62914819D02*
X144218571Y-62867200D01*
X144218571Y-62867200D02*
X144123333Y-62771961D01*
X144123333Y-62771961D02*
X144075714Y-62676723D01*
X144075714Y-62676723D02*
X144028095Y-62486247D01*
X144028095Y-62486247D02*
X144028095Y-62343390D01*
X144028095Y-62343390D02*
X144075714Y-62152914D01*
X144075714Y-62152914D02*
X144123333Y-62057676D01*
X144123333Y-62057676D02*
X144218571Y-61962438D01*
X144218571Y-61962438D02*
X144361428Y-61914819D01*
X144361428Y-61914819D02*
X144456666Y-61914819D01*
X144456666Y-61914819D02*
X144599523Y-61962438D01*
X144599523Y-61962438D02*
X144647142Y-62010057D01*
X145599523Y-62914819D02*
X145028095Y-62914819D01*
X145313809Y-62914819D02*
X145313809Y-61914819D01*
X145313809Y-61914819D02*
X145218571Y-62057676D01*
X145218571Y-62057676D02*
X145123333Y-62152914D01*
X145123333Y-62152914D02*
X145028095Y-62200533D01*
X146456666Y-61914819D02*
X146266190Y-61914819D01*
X146266190Y-61914819D02*
X146170952Y-61962438D01*
X146170952Y-61962438D02*
X146123333Y-62010057D01*
X146123333Y-62010057D02*
X146028095Y-62152914D01*
X146028095Y-62152914D02*
X145980476Y-62343390D01*
X145980476Y-62343390D02*
X145980476Y-62724342D01*
X145980476Y-62724342D02*
X146028095Y-62819580D01*
X146028095Y-62819580D02*
X146075714Y-62867200D01*
X146075714Y-62867200D02*
X146170952Y-62914819D01*
X146170952Y-62914819D02*
X146361428Y-62914819D01*
X146361428Y-62914819D02*
X146456666Y-62867200D01*
X146456666Y-62867200D02*
X146504285Y-62819580D01*
X146504285Y-62819580D02*
X146551904Y-62724342D01*
X146551904Y-62724342D02*
X146551904Y-62486247D01*
X146551904Y-62486247D02*
X146504285Y-62391009D01*
X146504285Y-62391009D02*
X146456666Y-62343390D01*
X146456666Y-62343390D02*
X146361428Y-62295771D01*
X146361428Y-62295771D02*
X146170952Y-62295771D01*
X146170952Y-62295771D02*
X146075714Y-62343390D01*
X146075714Y-62343390D02*
X146028095Y-62391009D01*
X146028095Y-62391009D02*
X145980476Y-62486247D01*
X197444819Y-89897857D02*
X196968628Y-90231190D01*
X197444819Y-90469285D02*
X196444819Y-90469285D01*
X196444819Y-90469285D02*
X196444819Y-90088333D01*
X196444819Y-90088333D02*
X196492438Y-89993095D01*
X196492438Y-89993095D02*
X196540057Y-89945476D01*
X196540057Y-89945476D02*
X196635295Y-89897857D01*
X196635295Y-89897857D02*
X196778152Y-89897857D01*
X196778152Y-89897857D02*
X196873390Y-89945476D01*
X196873390Y-89945476D02*
X196921009Y-89993095D01*
X196921009Y-89993095D02*
X196968628Y-90088333D01*
X196968628Y-90088333D02*
X196968628Y-90469285D01*
X197444819Y-88945476D02*
X197444819Y-89516904D01*
X197444819Y-89231190D02*
X196444819Y-89231190D01*
X196444819Y-89231190D02*
X196587676Y-89326428D01*
X196587676Y-89326428D02*
X196682914Y-89421666D01*
X196682914Y-89421666D02*
X196730533Y-89516904D01*
X196444819Y-88088333D02*
X196444819Y-88278809D01*
X196444819Y-88278809D02*
X196492438Y-88374047D01*
X196492438Y-88374047D02*
X196540057Y-88421666D01*
X196540057Y-88421666D02*
X196682914Y-88516904D01*
X196682914Y-88516904D02*
X196873390Y-88564523D01*
X196873390Y-88564523D02*
X197254342Y-88564523D01*
X197254342Y-88564523D02*
X197349580Y-88516904D01*
X197349580Y-88516904D02*
X197397200Y-88469285D01*
X197397200Y-88469285D02*
X197444819Y-88374047D01*
X197444819Y-88374047D02*
X197444819Y-88183571D01*
X197444819Y-88183571D02*
X197397200Y-88088333D01*
X197397200Y-88088333D02*
X197349580Y-88040714D01*
X197349580Y-88040714D02*
X197254342Y-87993095D01*
X197254342Y-87993095D02*
X197016247Y-87993095D01*
X197016247Y-87993095D02*
X196921009Y-88040714D01*
X196921009Y-88040714D02*
X196873390Y-88088333D01*
X196873390Y-88088333D02*
X196825771Y-88183571D01*
X196825771Y-88183571D02*
X196825771Y-88374047D01*
X196825771Y-88374047D02*
X196873390Y-88469285D01*
X196873390Y-88469285D02*
X196921009Y-88516904D01*
X196921009Y-88516904D02*
X197016247Y-88564523D01*
X196919580Y-64376666D02*
X196967200Y-64424285D01*
X196967200Y-64424285D02*
X197014819Y-64567142D01*
X197014819Y-64567142D02*
X197014819Y-64662380D01*
X197014819Y-64662380D02*
X196967200Y-64805237D01*
X196967200Y-64805237D02*
X196871961Y-64900475D01*
X196871961Y-64900475D02*
X196776723Y-64948094D01*
X196776723Y-64948094D02*
X196586247Y-64995713D01*
X196586247Y-64995713D02*
X196443390Y-64995713D01*
X196443390Y-64995713D02*
X196252914Y-64948094D01*
X196252914Y-64948094D02*
X196157676Y-64900475D01*
X196157676Y-64900475D02*
X196062438Y-64805237D01*
X196062438Y-64805237D02*
X196014819Y-64662380D01*
X196014819Y-64662380D02*
X196014819Y-64567142D01*
X196014819Y-64567142D02*
X196062438Y-64424285D01*
X196062438Y-64424285D02*
X196110057Y-64376666D01*
X196014819Y-64043332D02*
X196014819Y-63424285D01*
X196014819Y-63424285D02*
X196395771Y-63757618D01*
X196395771Y-63757618D02*
X196395771Y-63614761D01*
X196395771Y-63614761D02*
X196443390Y-63519523D01*
X196443390Y-63519523D02*
X196491009Y-63471904D01*
X196491009Y-63471904D02*
X196586247Y-63424285D01*
X196586247Y-63424285D02*
X196824342Y-63424285D01*
X196824342Y-63424285D02*
X196919580Y-63471904D01*
X196919580Y-63471904D02*
X196967200Y-63519523D01*
X196967200Y-63519523D02*
X197014819Y-63614761D01*
X197014819Y-63614761D02*
X197014819Y-63900475D01*
X197014819Y-63900475D02*
X196967200Y-63995713D01*
X196967200Y-63995713D02*
X196919580Y-64043332D01*
X194624819Y-82658094D02*
X193624819Y-82658094D01*
X193624819Y-82658094D02*
X193624819Y-82419999D01*
X193624819Y-82419999D02*
X193672438Y-82277142D01*
X193672438Y-82277142D02*
X193767676Y-82181904D01*
X193767676Y-82181904D02*
X193862914Y-82134285D01*
X193862914Y-82134285D02*
X194053390Y-82086666D01*
X194053390Y-82086666D02*
X194196247Y-82086666D01*
X194196247Y-82086666D02*
X194386723Y-82134285D01*
X194386723Y-82134285D02*
X194481961Y-82181904D01*
X194481961Y-82181904D02*
X194577200Y-82277142D01*
X194577200Y-82277142D02*
X194624819Y-82419999D01*
X194624819Y-82419999D02*
X194624819Y-82658094D01*
X194624819Y-81134285D02*
X194624819Y-81705713D01*
X194624819Y-81419999D02*
X193624819Y-81419999D01*
X193624819Y-81419999D02*
X193767676Y-81515237D01*
X193767676Y-81515237D02*
X193862914Y-81610475D01*
X193862914Y-81610475D02*
X193910533Y-81705713D01*
X198794819Y-79202857D02*
X198318628Y-79536190D01*
X198794819Y-79774285D02*
X197794819Y-79774285D01*
X197794819Y-79774285D02*
X197794819Y-79393333D01*
X197794819Y-79393333D02*
X197842438Y-79298095D01*
X197842438Y-79298095D02*
X197890057Y-79250476D01*
X197890057Y-79250476D02*
X197985295Y-79202857D01*
X197985295Y-79202857D02*
X198128152Y-79202857D01*
X198128152Y-79202857D02*
X198223390Y-79250476D01*
X198223390Y-79250476D02*
X198271009Y-79298095D01*
X198271009Y-79298095D02*
X198318628Y-79393333D01*
X198318628Y-79393333D02*
X198318628Y-79774285D01*
X198794819Y-78250476D02*
X198794819Y-78821904D01*
X198794819Y-78536190D02*
X197794819Y-78536190D01*
X197794819Y-78536190D02*
X197937676Y-78631428D01*
X197937676Y-78631428D02*
X198032914Y-78726666D01*
X198032914Y-78726666D02*
X198080533Y-78821904D01*
X197794819Y-77917142D02*
X197794819Y-77298095D01*
X197794819Y-77298095D02*
X198175771Y-77631428D01*
X198175771Y-77631428D02*
X198175771Y-77488571D01*
X198175771Y-77488571D02*
X198223390Y-77393333D01*
X198223390Y-77393333D02*
X198271009Y-77345714D01*
X198271009Y-77345714D02*
X198366247Y-77298095D01*
X198366247Y-77298095D02*
X198604342Y-77298095D01*
X198604342Y-77298095D02*
X198699580Y-77345714D01*
X198699580Y-77345714D02*
X198747200Y-77393333D01*
X198747200Y-77393333D02*
X198794819Y-77488571D01*
X198794819Y-77488571D02*
X198794819Y-77774285D01*
X198794819Y-77774285D02*
X198747200Y-77869523D01*
X198747200Y-77869523D02*
X198699580Y-77917142D01*
X139883809Y-68298628D02*
X139883809Y-68774819D01*
X139550476Y-67774819D02*
X139883809Y-68298628D01*
X139883809Y-68298628D02*
X140217142Y-67774819D01*
X140502857Y-67870057D02*
X140550476Y-67822438D01*
X140550476Y-67822438D02*
X140645714Y-67774819D01*
X140645714Y-67774819D02*
X140883809Y-67774819D01*
X140883809Y-67774819D02*
X140979047Y-67822438D01*
X140979047Y-67822438D02*
X141026666Y-67870057D01*
X141026666Y-67870057D02*
X141074285Y-67965295D01*
X141074285Y-67965295D02*
X141074285Y-68060533D01*
X141074285Y-68060533D02*
X141026666Y-68203390D01*
X141026666Y-68203390D02*
X140455238Y-68774819D01*
X140455238Y-68774819D02*
X141074285Y-68774819D01*
X190637200Y-84953332D02*
X190684819Y-84810475D01*
X190684819Y-84810475D02*
X190684819Y-84572380D01*
X190684819Y-84572380D02*
X190637200Y-84477142D01*
X190637200Y-84477142D02*
X190589580Y-84429523D01*
X190589580Y-84429523D02*
X190494342Y-84381904D01*
X190494342Y-84381904D02*
X190399104Y-84381904D01*
X190399104Y-84381904D02*
X190303866Y-84429523D01*
X190303866Y-84429523D02*
X190256247Y-84477142D01*
X190256247Y-84477142D02*
X190208628Y-84572380D01*
X190208628Y-84572380D02*
X190161009Y-84762856D01*
X190161009Y-84762856D02*
X190113390Y-84858094D01*
X190113390Y-84858094D02*
X190065771Y-84905713D01*
X190065771Y-84905713D02*
X189970533Y-84953332D01*
X189970533Y-84953332D02*
X189875295Y-84953332D01*
X189875295Y-84953332D02*
X189780057Y-84905713D01*
X189780057Y-84905713D02*
X189732438Y-84858094D01*
X189732438Y-84858094D02*
X189684819Y-84762856D01*
X189684819Y-84762856D02*
X189684819Y-84524761D01*
X189684819Y-84524761D02*
X189732438Y-84381904D01*
X189684819Y-84048570D02*
X190684819Y-83810475D01*
X190684819Y-83810475D02*
X189970533Y-83619999D01*
X189970533Y-83619999D02*
X190684819Y-83429523D01*
X190684819Y-83429523D02*
X189684819Y-83191428D01*
X189684819Y-82905713D02*
X189684819Y-82286666D01*
X189684819Y-82286666D02*
X190065771Y-82619999D01*
X190065771Y-82619999D02*
X190065771Y-82477142D01*
X190065771Y-82477142D02*
X190113390Y-82381904D01*
X190113390Y-82381904D02*
X190161009Y-82334285D01*
X190161009Y-82334285D02*
X190256247Y-82286666D01*
X190256247Y-82286666D02*
X190494342Y-82286666D01*
X190494342Y-82286666D02*
X190589580Y-82334285D01*
X190589580Y-82334285D02*
X190637200Y-82381904D01*
X190637200Y-82381904D02*
X190684819Y-82477142D01*
X190684819Y-82477142D02*
X190684819Y-82762856D01*
X190684819Y-82762856D02*
X190637200Y-82858094D01*
X190637200Y-82858094D02*
X190589580Y-82905713D01*
X187215595Y-105104819D02*
X187215595Y-105914342D01*
X187215595Y-105914342D02*
X187263214Y-106009580D01*
X187263214Y-106009580D02*
X187310833Y-106057200D01*
X187310833Y-106057200D02*
X187406071Y-106104819D01*
X187406071Y-106104819D02*
X187596547Y-106104819D01*
X187596547Y-106104819D02*
X187691785Y-106057200D01*
X187691785Y-106057200D02*
X187739404Y-106009580D01*
X187739404Y-106009580D02*
X187787023Y-105914342D01*
X187787023Y-105914342D02*
X187787023Y-105104819D01*
X188691785Y-105438152D02*
X188691785Y-106104819D01*
X188453690Y-105057200D02*
X188215595Y-105771485D01*
X188215595Y-105771485D02*
X188834642Y-105771485D01*
X190647200Y-65543332D02*
X190694819Y-65400475D01*
X190694819Y-65400475D02*
X190694819Y-65162380D01*
X190694819Y-65162380D02*
X190647200Y-65067142D01*
X190647200Y-65067142D02*
X190599580Y-65019523D01*
X190599580Y-65019523D02*
X190504342Y-64971904D01*
X190504342Y-64971904D02*
X190409104Y-64971904D01*
X190409104Y-64971904D02*
X190313866Y-65019523D01*
X190313866Y-65019523D02*
X190266247Y-65067142D01*
X190266247Y-65067142D02*
X190218628Y-65162380D01*
X190218628Y-65162380D02*
X190171009Y-65352856D01*
X190171009Y-65352856D02*
X190123390Y-65448094D01*
X190123390Y-65448094D02*
X190075771Y-65495713D01*
X190075771Y-65495713D02*
X189980533Y-65543332D01*
X189980533Y-65543332D02*
X189885295Y-65543332D01*
X189885295Y-65543332D02*
X189790057Y-65495713D01*
X189790057Y-65495713D02*
X189742438Y-65448094D01*
X189742438Y-65448094D02*
X189694819Y-65352856D01*
X189694819Y-65352856D02*
X189694819Y-65114761D01*
X189694819Y-65114761D02*
X189742438Y-64971904D01*
X189694819Y-64638570D02*
X190694819Y-64400475D01*
X190694819Y-64400475D02*
X189980533Y-64209999D01*
X189980533Y-64209999D02*
X190694819Y-64019523D01*
X190694819Y-64019523D02*
X189694819Y-63781428D01*
X189790057Y-63448094D02*
X189742438Y-63400475D01*
X189742438Y-63400475D02*
X189694819Y-63305237D01*
X189694819Y-63305237D02*
X189694819Y-63067142D01*
X189694819Y-63067142D02*
X189742438Y-62971904D01*
X189742438Y-62971904D02*
X189790057Y-62924285D01*
X189790057Y-62924285D02*
X189885295Y-62876666D01*
X189885295Y-62876666D02*
X189980533Y-62876666D01*
X189980533Y-62876666D02*
X190123390Y-62924285D01*
X190123390Y-62924285D02*
X190694819Y-63495713D01*
X190694819Y-63495713D02*
X190694819Y-62876666D01*
X187245595Y-111304819D02*
X187245595Y-112114342D01*
X187245595Y-112114342D02*
X187293214Y-112209580D01*
X187293214Y-112209580D02*
X187340833Y-112257200D01*
X187340833Y-112257200D02*
X187436071Y-112304819D01*
X187436071Y-112304819D02*
X187626547Y-112304819D01*
X187626547Y-112304819D02*
X187721785Y-112257200D01*
X187721785Y-112257200D02*
X187769404Y-112209580D01*
X187769404Y-112209580D02*
X187817023Y-112114342D01*
X187817023Y-112114342D02*
X187817023Y-111304819D01*
X188817023Y-112304819D02*
X188245595Y-112304819D01*
X188531309Y-112304819D02*
X188531309Y-111304819D01*
X188531309Y-111304819D02*
X188436071Y-111447676D01*
X188436071Y-111447676D02*
X188340833Y-111542914D01*
X188340833Y-111542914D02*
X188245595Y-111590533D01*
X124238095Y-83254819D02*
X124238095Y-82254819D01*
X124238095Y-82731009D02*
X124809523Y-82731009D01*
X124809523Y-83254819D02*
X124809523Y-82254819D01*
X125809523Y-83254819D02*
X125238095Y-83254819D01*
X125523809Y-83254819D02*
X125523809Y-82254819D01*
X125523809Y-82254819D02*
X125428571Y-82397676D01*
X125428571Y-82397676D02*
X125333333Y-82492914D01*
X125333333Y-82492914D02*
X125238095Y-82540533D01*
X147574819Y-66202857D02*
X147098628Y-66536190D01*
X147574819Y-66774285D02*
X146574819Y-66774285D01*
X146574819Y-66774285D02*
X146574819Y-66393333D01*
X146574819Y-66393333D02*
X146622438Y-66298095D01*
X146622438Y-66298095D02*
X146670057Y-66250476D01*
X146670057Y-66250476D02*
X146765295Y-66202857D01*
X146765295Y-66202857D02*
X146908152Y-66202857D01*
X146908152Y-66202857D02*
X147003390Y-66250476D01*
X147003390Y-66250476D02*
X147051009Y-66298095D01*
X147051009Y-66298095D02*
X147098628Y-66393333D01*
X147098628Y-66393333D02*
X147098628Y-66774285D01*
X147574819Y-65250476D02*
X147574819Y-65821904D01*
X147574819Y-65536190D02*
X146574819Y-65536190D01*
X146574819Y-65536190D02*
X146717676Y-65631428D01*
X146717676Y-65631428D02*
X146812914Y-65726666D01*
X146812914Y-65726666D02*
X146860533Y-65821904D01*
X146574819Y-64917142D02*
X146574819Y-64250476D01*
X146574819Y-64250476D02*
X147574819Y-64679047D01*
X197234819Y-75436666D02*
X196758628Y-75769999D01*
X197234819Y-76008094D02*
X196234819Y-76008094D01*
X196234819Y-76008094D02*
X196234819Y-75627142D01*
X196234819Y-75627142D02*
X196282438Y-75531904D01*
X196282438Y-75531904D02*
X196330057Y-75484285D01*
X196330057Y-75484285D02*
X196425295Y-75436666D01*
X196425295Y-75436666D02*
X196568152Y-75436666D01*
X196568152Y-75436666D02*
X196663390Y-75484285D01*
X196663390Y-75484285D02*
X196711009Y-75531904D01*
X196711009Y-75531904D02*
X196758628Y-75627142D01*
X196758628Y-75627142D02*
X196758628Y-76008094D01*
X197234819Y-74484285D02*
X197234819Y-75055713D01*
X197234819Y-74769999D02*
X196234819Y-74769999D01*
X196234819Y-74769999D02*
X196377676Y-74865237D01*
X196377676Y-74865237D02*
X196472914Y-74960475D01*
X196472914Y-74960475D02*
X196520533Y-75055713D01*
X198484819Y-101203333D02*
X199199104Y-101203333D01*
X199199104Y-101203333D02*
X199341961Y-101250952D01*
X199341961Y-101250952D02*
X199437200Y-101346190D01*
X199437200Y-101346190D02*
X199484819Y-101489047D01*
X199484819Y-101489047D02*
X199484819Y-101584285D01*
X198484819Y-100822380D02*
X198484819Y-100203333D01*
X198484819Y-100203333D02*
X198865771Y-100536666D01*
X198865771Y-100536666D02*
X198865771Y-100393809D01*
X198865771Y-100393809D02*
X198913390Y-100298571D01*
X198913390Y-100298571D02*
X198961009Y-100250952D01*
X198961009Y-100250952D02*
X199056247Y-100203333D01*
X199056247Y-100203333D02*
X199294342Y-100203333D01*
X199294342Y-100203333D02*
X199389580Y-100250952D01*
X199389580Y-100250952D02*
X199437200Y-100298571D01*
X199437200Y-100298571D02*
X199484819Y-100393809D01*
X199484819Y-100393809D02*
X199484819Y-100679523D01*
X199484819Y-100679523D02*
X199437200Y-100774761D01*
X199437200Y-100774761D02*
X199389580Y-100822380D01*
X143757142Y-72659580D02*
X143709523Y-72707200D01*
X143709523Y-72707200D02*
X143566666Y-72754819D01*
X143566666Y-72754819D02*
X143471428Y-72754819D01*
X143471428Y-72754819D02*
X143328571Y-72707200D01*
X143328571Y-72707200D02*
X143233333Y-72611961D01*
X143233333Y-72611961D02*
X143185714Y-72516723D01*
X143185714Y-72516723D02*
X143138095Y-72326247D01*
X143138095Y-72326247D02*
X143138095Y-72183390D01*
X143138095Y-72183390D02*
X143185714Y-71992914D01*
X143185714Y-71992914D02*
X143233333Y-71897676D01*
X143233333Y-71897676D02*
X143328571Y-71802438D01*
X143328571Y-71802438D02*
X143471428Y-71754819D01*
X143471428Y-71754819D02*
X143566666Y-71754819D01*
X143566666Y-71754819D02*
X143709523Y-71802438D01*
X143709523Y-71802438D02*
X143757142Y-71850057D01*
X144709523Y-72754819D02*
X144138095Y-72754819D01*
X144423809Y-72754819D02*
X144423809Y-71754819D01*
X144423809Y-71754819D02*
X144328571Y-71897676D01*
X144328571Y-71897676D02*
X144233333Y-71992914D01*
X144233333Y-71992914D02*
X144138095Y-72040533D01*
X145614285Y-71754819D02*
X145138095Y-71754819D01*
X145138095Y-71754819D02*
X145090476Y-72231009D01*
X145090476Y-72231009D02*
X145138095Y-72183390D01*
X145138095Y-72183390D02*
X145233333Y-72135771D01*
X145233333Y-72135771D02*
X145471428Y-72135771D01*
X145471428Y-72135771D02*
X145566666Y-72183390D01*
X145566666Y-72183390D02*
X145614285Y-72231009D01*
X145614285Y-72231009D02*
X145661904Y-72326247D01*
X145661904Y-72326247D02*
X145661904Y-72564342D01*
X145661904Y-72564342D02*
X145614285Y-72659580D01*
X145614285Y-72659580D02*
X145566666Y-72707200D01*
X145566666Y-72707200D02*
X145471428Y-72754819D01*
X145471428Y-72754819D02*
X145233333Y-72754819D01*
X145233333Y-72754819D02*
X145138095Y-72707200D01*
X145138095Y-72707200D02*
X145090476Y-72659580D01*
D13*
X195256666Y-112147419D02*
X195256666Y-112861704D01*
X195256666Y-112861704D02*
X195209047Y-113004561D01*
X195209047Y-113004561D02*
X195113809Y-113099800D01*
X195113809Y-113099800D02*
X194970952Y-113147419D01*
X194970952Y-113147419D02*
X194875714Y-113147419D01*
X196256666Y-113147419D02*
X195685238Y-113147419D01*
X195970952Y-113147419D02*
X195970952Y-112147419D01*
X195970952Y-112147419D02*
X195875714Y-112290276D01*
X195875714Y-112290276D02*
X195780476Y-112385514D01*
X195780476Y-112385514D02*
X195685238Y-112433133D01*
D12*
X194624819Y-86348094D02*
X193624819Y-86348094D01*
X193624819Y-86348094D02*
X193624819Y-86109999D01*
X193624819Y-86109999D02*
X193672438Y-85967142D01*
X193672438Y-85967142D02*
X193767676Y-85871904D01*
X193767676Y-85871904D02*
X193862914Y-85824285D01*
X193862914Y-85824285D02*
X194053390Y-85776666D01*
X194053390Y-85776666D02*
X194196247Y-85776666D01*
X194196247Y-85776666D02*
X194386723Y-85824285D01*
X194386723Y-85824285D02*
X194481961Y-85871904D01*
X194481961Y-85871904D02*
X194577200Y-85967142D01*
X194577200Y-85967142D02*
X194624819Y-86109999D01*
X194624819Y-86109999D02*
X194624819Y-86348094D01*
X193624819Y-85443332D02*
X193624819Y-84824285D01*
X193624819Y-84824285D02*
X194005771Y-85157618D01*
X194005771Y-85157618D02*
X194005771Y-85014761D01*
X194005771Y-85014761D02*
X194053390Y-84919523D01*
X194053390Y-84919523D02*
X194101009Y-84871904D01*
X194101009Y-84871904D02*
X194196247Y-84824285D01*
X194196247Y-84824285D02*
X194434342Y-84824285D01*
X194434342Y-84824285D02*
X194529580Y-84871904D01*
X194529580Y-84871904D02*
X194577200Y-84919523D01*
X194577200Y-84919523D02*
X194624819Y-85014761D01*
X194624819Y-85014761D02*
X194624819Y-85300475D01*
X194624819Y-85300475D02*
X194577200Y-85395713D01*
X194577200Y-85395713D02*
X194529580Y-85443332D01*
X197064819Y-67656666D02*
X196588628Y-67989999D01*
X197064819Y-68228094D02*
X196064819Y-68228094D01*
X196064819Y-68228094D02*
X196064819Y-67847142D01*
X196064819Y-67847142D02*
X196112438Y-67751904D01*
X196112438Y-67751904D02*
X196160057Y-67704285D01*
X196160057Y-67704285D02*
X196255295Y-67656666D01*
X196255295Y-67656666D02*
X196398152Y-67656666D01*
X196398152Y-67656666D02*
X196493390Y-67704285D01*
X196493390Y-67704285D02*
X196541009Y-67751904D01*
X196541009Y-67751904D02*
X196588628Y-67847142D01*
X196588628Y-67847142D02*
X196588628Y-68228094D01*
X196064819Y-67323332D02*
X196064819Y-66704285D01*
X196064819Y-66704285D02*
X196445771Y-67037618D01*
X196445771Y-67037618D02*
X196445771Y-66894761D01*
X196445771Y-66894761D02*
X196493390Y-66799523D01*
X196493390Y-66799523D02*
X196541009Y-66751904D01*
X196541009Y-66751904D02*
X196636247Y-66704285D01*
X196636247Y-66704285D02*
X196874342Y-66704285D01*
X196874342Y-66704285D02*
X196969580Y-66751904D01*
X196969580Y-66751904D02*
X197017200Y-66799523D01*
X197017200Y-66799523D02*
X197064819Y-66894761D01*
X197064819Y-66894761D02*
X197064819Y-67180475D01*
X197064819Y-67180475D02*
X197017200Y-67275713D01*
X197017200Y-67275713D02*
X196969580Y-67323332D01*
X190647200Y-75263332D02*
X190694819Y-75120475D01*
X190694819Y-75120475D02*
X190694819Y-74882380D01*
X190694819Y-74882380D02*
X190647200Y-74787142D01*
X190647200Y-74787142D02*
X190599580Y-74739523D01*
X190599580Y-74739523D02*
X190504342Y-74691904D01*
X190504342Y-74691904D02*
X190409104Y-74691904D01*
X190409104Y-74691904D02*
X190313866Y-74739523D01*
X190313866Y-74739523D02*
X190266247Y-74787142D01*
X190266247Y-74787142D02*
X190218628Y-74882380D01*
X190218628Y-74882380D02*
X190171009Y-75072856D01*
X190171009Y-75072856D02*
X190123390Y-75168094D01*
X190123390Y-75168094D02*
X190075771Y-75215713D01*
X190075771Y-75215713D02*
X189980533Y-75263332D01*
X189980533Y-75263332D02*
X189885295Y-75263332D01*
X189885295Y-75263332D02*
X189790057Y-75215713D01*
X189790057Y-75215713D02*
X189742438Y-75168094D01*
X189742438Y-75168094D02*
X189694819Y-75072856D01*
X189694819Y-75072856D02*
X189694819Y-74834761D01*
X189694819Y-74834761D02*
X189742438Y-74691904D01*
X189694819Y-74358570D02*
X190694819Y-74120475D01*
X190694819Y-74120475D02*
X189980533Y-73929999D01*
X189980533Y-73929999D02*
X190694819Y-73739523D01*
X190694819Y-73739523D02*
X189694819Y-73501428D01*
X190694819Y-72596666D02*
X190694819Y-73168094D01*
X190694819Y-72882380D02*
X189694819Y-72882380D01*
X189694819Y-72882380D02*
X189837676Y-72977618D01*
X189837676Y-72977618D02*
X189932914Y-73072856D01*
X189932914Y-73072856D02*
X189980533Y-73168094D01*
X197139580Y-72096666D02*
X197187200Y-72144285D01*
X197187200Y-72144285D02*
X197234819Y-72287142D01*
X197234819Y-72287142D02*
X197234819Y-72382380D01*
X197234819Y-72382380D02*
X197187200Y-72525237D01*
X197187200Y-72525237D02*
X197091961Y-72620475D01*
X197091961Y-72620475D02*
X196996723Y-72668094D01*
X196996723Y-72668094D02*
X196806247Y-72715713D01*
X196806247Y-72715713D02*
X196663390Y-72715713D01*
X196663390Y-72715713D02*
X196472914Y-72668094D01*
X196472914Y-72668094D02*
X196377676Y-72620475D01*
X196377676Y-72620475D02*
X196282438Y-72525237D01*
X196282438Y-72525237D02*
X196234819Y-72382380D01*
X196234819Y-72382380D02*
X196234819Y-72287142D01*
X196234819Y-72287142D02*
X196282438Y-72144285D01*
X196282438Y-72144285D02*
X196330057Y-72096666D01*
X197234819Y-71144285D02*
X197234819Y-71715713D01*
X197234819Y-71429999D02*
X196234819Y-71429999D01*
X196234819Y-71429999D02*
X196377676Y-71525237D01*
X196377676Y-71525237D02*
X196472914Y-71620475D01*
X196472914Y-71620475D02*
X196520533Y-71715713D01*
D13*
X142106139Y-84352268D02*
X142106139Y-85161791D01*
X142106139Y-85161791D02*
X142153758Y-85257029D01*
X142153758Y-85257029D02*
X142201377Y-85304649D01*
X142201377Y-85304649D02*
X142296615Y-85352268D01*
X142296615Y-85352268D02*
X142487091Y-85352268D01*
X142487091Y-85352268D02*
X142582329Y-85304649D01*
X142582329Y-85304649D02*
X142629948Y-85257029D01*
X142629948Y-85257029D02*
X142677567Y-85161791D01*
X142677567Y-85161791D02*
X142677567Y-84352268D01*
X143058520Y-84352268D02*
X143677567Y-84352268D01*
X143677567Y-84352268D02*
X143344234Y-84733220D01*
X143344234Y-84733220D02*
X143487091Y-84733220D01*
X143487091Y-84733220D02*
X143582329Y-84780839D01*
X143582329Y-84780839D02*
X143629948Y-84828458D01*
X143629948Y-84828458D02*
X143677567Y-84923696D01*
X143677567Y-84923696D02*
X143677567Y-85161791D01*
X143677567Y-85161791D02*
X143629948Y-85257029D01*
X143629948Y-85257029D02*
X143582329Y-85304649D01*
X143582329Y-85304649D02*
X143487091Y-85352268D01*
X143487091Y-85352268D02*
X143201377Y-85352268D01*
X143201377Y-85352268D02*
X143106139Y-85304649D01*
X143106139Y-85304649D02*
X143058520Y-85257029D01*
D12*
X158396779Y-64764819D02*
X158396779Y-65574342D01*
X158396779Y-65574342D02*
X158444398Y-65669580D01*
X158444398Y-65669580D02*
X158492017Y-65717200D01*
X158492017Y-65717200D02*
X158587255Y-65764819D01*
X158587255Y-65764819D02*
X158777731Y-65764819D01*
X158777731Y-65764819D02*
X158872969Y-65717200D01*
X158872969Y-65717200D02*
X158920588Y-65669580D01*
X158920588Y-65669580D02*
X158968207Y-65574342D01*
X158968207Y-65574342D02*
X158968207Y-64764819D01*
X159396779Y-64860057D02*
X159444398Y-64812438D01*
X159444398Y-64812438D02*
X159539636Y-64764819D01*
X159539636Y-64764819D02*
X159777731Y-64764819D01*
X159777731Y-64764819D02*
X159872969Y-64812438D01*
X159872969Y-64812438D02*
X159920588Y-64860057D01*
X159920588Y-64860057D02*
X159968207Y-64955295D01*
X159968207Y-64955295D02*
X159968207Y-65050533D01*
X159968207Y-65050533D02*
X159920588Y-65193390D01*
X159920588Y-65193390D02*
X159349160Y-65764819D01*
X159349160Y-65764819D02*
X159968207Y-65764819D01*
D14*
%TO.C,J2*%
X106590000Y-112110000D02*
X106590000Y-114770000D01*
X119350000Y-112110000D02*
X106590000Y-112110000D01*
X119350000Y-112110000D02*
X119350000Y-114770000D01*
X119350000Y-114770000D02*
X106590000Y-114770000D01*
X121950000Y-113440000D02*
X121950000Y-114770000D01*
X121950000Y-114770000D02*
X120620000Y-114770000D01*
%TO.C,SW4*%
X186940000Y-91190000D02*
X186940000Y-95690000D01*
X189440000Y-96940000D02*
X190940000Y-96940000D01*
X190940000Y-89940000D02*
X189440000Y-89940000D01*
X193440000Y-95690000D02*
X193440000Y-91190000D01*
%TO.C,C16*%
X144770000Y-64673733D02*
X144770000Y-64966267D01*
X145790000Y-64673733D02*
X145790000Y-64966267D01*
%TO.C,R16*%
X194967500Y-89422258D02*
X194967500Y-88947742D01*
X196012500Y-89422258D02*
X196012500Y-88947742D01*
%TO.C,C3*%
X194400000Y-63933733D02*
X194400000Y-64226267D01*
X195420000Y-63933733D02*
X195420000Y-64226267D01*
%TO.C,D1*%
X194810000Y-80920000D02*
X194810000Y-83605000D01*
X194810000Y-83605000D02*
X196730000Y-83605000D01*
X196730000Y-83605000D02*
X196730000Y-80920000D01*
%TO.C,R13*%
X196247500Y-78322742D02*
X196247500Y-78797258D01*
X197292500Y-78322742D02*
X197292500Y-78797258D01*
%TO.C,Y2*%
X143620000Y-67970000D02*
X144490000Y-67370000D01*
X143620000Y-68670000D02*
X144490000Y-69270000D01*
X144490000Y-67370000D02*
X144800000Y-67370000D01*
X144490000Y-69270000D02*
X144800000Y-69270000D01*
X143620000Y-67060000D02*
X137100000Y-67060000D01*
X137100000Y-69580000D01*
X143620000Y-69580000D01*
X143620000Y-67060000D01*
%TO.C,SW3*%
X186980000Y-81370000D02*
X186980000Y-85870000D01*
X189480000Y-87120000D02*
X190980000Y-87120000D01*
X190980000Y-80120000D02*
X189480000Y-80120000D01*
X193480000Y-85870000D02*
X193480000Y-81370000D01*
%TO.C,U4*%
X187977500Y-101690000D02*
X187177500Y-101690000D01*
X187977500Y-101690000D02*
X188777500Y-101690000D01*
X187977500Y-104810000D02*
X187177500Y-104810000D01*
X187977500Y-104810000D02*
X188777500Y-104810000D01*
X189517500Y-105090000D02*
X189037500Y-105090000D01*
X189277500Y-104760000D01*
X189517500Y-105090000D01*
G36*
X189517500Y-105090000D02*
G01*
X189037500Y-105090000D01*
X189277500Y-104760000D01*
X189517500Y-105090000D01*
G37*
%TO.C,SW2*%
X186990000Y-61960000D02*
X186990000Y-66460000D01*
X189490000Y-67710000D02*
X190990000Y-67710000D01*
X190990000Y-60710000D02*
X189490000Y-60710000D01*
X193490000Y-66460000D02*
X193490000Y-61960000D01*
%TO.C,U1*%
X188007500Y-107890000D02*
X187207500Y-107890000D01*
X188007500Y-107890000D02*
X188807500Y-107890000D01*
X188007500Y-111010000D02*
X187207500Y-111010000D01*
X188007500Y-111010000D02*
X188807500Y-111010000D01*
X189547500Y-111290000D02*
X189067500Y-111290000D01*
X189307500Y-110960000D01*
X189547500Y-111290000D01*
G36*
X189547500Y-111290000D02*
G01*
X189067500Y-111290000D01*
X189307500Y-110960000D01*
X189547500Y-111290000D01*
G37*
%TO.C,R17*%
X146477500Y-68232742D02*
X146477500Y-68707258D01*
X147522500Y-68232742D02*
X147522500Y-68707258D01*
%TO.C,R1*%
X194647500Y-75032742D02*
X194647500Y-75507258D01*
X195692500Y-75032742D02*
X195692500Y-75507258D01*
%TO.C,J3*%
X196180000Y-99090000D02*
X194480000Y-99090000D01*
X196180000Y-108430000D02*
X194480000Y-108430000D01*
%TO.C,C15*%
X144233733Y-70370000D02*
X144526267Y-70370000D01*
X144233733Y-71390000D02*
X144526267Y-71390000D01*
%TO.C,J1*%
X191830000Y-111030000D02*
X192250000Y-111030000D01*
X191830000Y-113010000D02*
X191830000Y-111030000D01*
X191830000Y-115380000D02*
X191830000Y-114980000D01*
X193830000Y-110800000D02*
X193830000Y-110350000D01*
X194280000Y-110350000D02*
X193830000Y-110350000D01*
X199350000Y-111030000D02*
X198930000Y-111030000D01*
X199350000Y-113010000D02*
X199350000Y-111030000D01*
X199350000Y-114980000D02*
X199350000Y-115380000D01*
%TO.C,D3*%
X194780000Y-83975000D02*
X194780000Y-86660000D01*
X196700000Y-83975000D02*
X194780000Y-83975000D01*
X196700000Y-86660000D02*
X196700000Y-83975000D01*
%TO.C,R3*%
X194407500Y-67252742D02*
X194407500Y-67727258D01*
X195452500Y-67252742D02*
X195452500Y-67727258D01*
%TO.C,SW1*%
X186990000Y-71680000D02*
X186990000Y-76180000D01*
X189490000Y-77430000D02*
X190990000Y-77430000D01*
X190990000Y-70430000D02*
X189490000Y-70430000D01*
X193490000Y-76180000D02*
X193490000Y-71680000D01*
%TO.C,C1*%
X194660000Y-71783733D02*
X194660000Y-72076267D01*
X195680000Y-71783733D02*
X195680000Y-72076267D01*
%TO.C,U3*%
D13*
X183868044Y-109894849D02*
X101868044Y-109894849D01*
X101868044Y-59894849D01*
X183868044Y-59894849D01*
X183868044Y-109894849D01*
D14*
%TO.C,U2*%
X148860000Y-78260000D02*
X148860000Y-77310000D01*
X150260000Y-78260000D02*
X148860000Y-78260000D01*
X165860000Y-78260000D02*
X167260000Y-78260000D01*
X167260000Y-78260000D02*
X167260000Y-77310000D01*
X148860000Y-59310000D02*
X148360000Y-59310000D01*
X148860000Y-58810000D01*
X148860000Y-59310000D01*
G36*
X148860000Y-59310000D02*
G01*
X148360000Y-59310000D01*
X148860000Y-58810000D01*
X148860000Y-59310000D01*
G37*
%TD*%
D15*
X174500000Y-87000000D03*
X120620000Y-113440000D03*
X118080000Y-113440000D03*
X115540000Y-113440000D03*
X113000000Y-113440000D03*
X110460000Y-113440000D03*
X107920000Y-113440000D03*
X192440000Y-90190000D03*
X192440000Y-96690000D03*
X187940000Y-90190000D03*
X187940000Y-96690000D03*
X145360000Y-67370000D03*
X145360000Y-69270000D03*
X192480000Y-80370000D03*
X192480000Y-86870000D03*
X187980000Y-80370000D03*
X187980000Y-86870000D03*
X187990000Y-67460000D03*
X187990000Y-60960000D03*
X192490000Y-67460000D03*
X192490000Y-60960000D03*
X125000000Y-87000000D03*
X193675000Y-106650000D03*
X193675000Y-100870000D03*
D16*
X193175000Y-108080000D03*
D17*
X197355000Y-108080000D03*
D16*
X193175000Y-99440000D03*
D17*
X197355000Y-99440000D03*
D18*
X192090000Y-113990000D03*
D19*
X193090000Y-111290000D03*
X198090000Y-111290000D03*
D18*
X199090000Y-113990000D03*
D15*
X187990000Y-77180000D03*
X187990000Y-70680000D03*
X192490000Y-77180000D03*
X192490000Y-70680000D03*
X124170000Y-64840000D03*
X124170000Y-62300000D03*
X121630000Y-64840000D03*
X121630000Y-62300000D03*
X119090000Y-64840000D03*
X119090000Y-62300000D03*
X116550000Y-64840000D03*
X116550000Y-62300000D03*
X180918400Y-106995026D03*
X180918044Y-62894849D03*
X105024743Y-62907515D03*
X105018400Y-106995026D03*
X103419672Y-68399569D03*
X103419672Y-70939569D03*
X103419672Y-73479569D03*
X103419672Y-76019569D03*
X103419672Y-78559569D03*
X103419672Y-81099569D03*
X103419672Y-83639569D03*
X103419672Y-86179569D03*
X103419672Y-88719569D03*
X103419672Y-91259569D03*
X103419672Y-93799569D03*
X103419672Y-96339569D03*
X103419672Y-98879569D03*
X103419672Y-101419569D03*
X181518044Y-81099849D03*
X181518044Y-83639849D03*
X181518044Y-86179849D03*
X181518044Y-88719849D03*
D20*
X155160000Y-67070000D03*
X155160000Y-68470000D03*
X155860000Y-66370000D03*
X155860000Y-67770000D03*
X155860000Y-69170000D03*
X156560000Y-67070000D03*
X156560000Y-68470000D03*
X157260000Y-66370000D03*
X157260000Y-67770000D03*
X157260000Y-69170000D03*
X157960000Y-67070000D03*
X157960000Y-68470000D03*
M02*
