M48
; DRILL file {KiCad 9.0.1} date 2025-11-17T15:11:09+0100
; FORMAT={-:-/ absolute / metric / decimal}
; #@! TF.CreationDate,2025-11-17T15:11:09+01:00
; #@! TF.GenerationSoftware,Kicad,Pcbnew,9.0.1
; #@! TF.FileFunction,Plated,1,2,PTH
FMAT,2
METRIC
; #@! TA.AperFunction,Plated,PTH,ComponentDrill
T1C0.200
; #@! TA.AperFunction,Plated,PTH,ViaDrill
T2C0.300
; #@! TA.AperFunction,Plated,PTH,ComponentDrill
T3C0.500
; #@! TA.AperFunction,Plated,PTH,ComponentDrill
T4C0.550
; #@! TA.AperFunction,Plated,PTH,ComponentDrill
T5C0.600
; #@! TA.AperFunction,Plated,PTH,ComponentDrill
T6C1.000
; #@! TA.AperFunction,Plated,PTH,ComponentDrill
T7C1.100
%
G90
G05
T1
X154.82Y-67.18
X154.82Y-68.58
X155.52Y-66.48
X155.52Y-67.88
X155.52Y-69.28
X156.22Y-67.18
X156.22Y-68.58
X156.92Y-66.48
X156.92Y-67.88
X156.92Y-69.28
X157.62Y-67.18
X157.62Y-68.58
T2
X108.34Y-67.23
X114.28Y-59.92
X115.827Y-109.707
X116.393Y-110.273
X118.27Y-111.08
X126.92Y-63.64
X126.96Y-95.36
X127.5Y-114.95
X128.19Y-68.73
X132.02Y-61.02
X139.72Y-109.77
X139.9Y-92.96
X143.62Y-97.89
X145.76Y-99.42
X145.76Y-100.22
X146.42Y-60.68
X146.63Y-102.91
X148.2Y-110.83
X148.86Y-108.2
X149.26Y-104.34
X149.55Y-100.33
X150.25Y-61.57
X151.26Y-59.8
X151.32Y-63.18
X151.81Y-98.44
X153.4Y-88.52
X153.52Y-64.93
X156.84Y-105.69
X157.89Y-71.2
X158.51Y-60.52
X158.69Y-93.76
X161.507Y-106.503
X162.073Y-105.937
X164.52Y-105.14
X165.19Y-95.04
X165.44Y-84.05
X166.34Y-93.75
X168.63Y-60.36
X169.05Y-69.07
X169.15Y-70.33
X169.92Y-62.86
X170.34Y-78.43
X170.967Y-83.197
X171.533Y-83.763
X172.79Y-72.34
X173.59Y-72.34
X177.87Y-72.81
X185.85Y-59.99
X190.32Y-76.92
X190.47Y-103.23
X190.53Y-114.11
X190.56Y-109.47
X190.92Y-108.64
X191.13Y-110.68
X192.36Y-72.73
X193.93Y-105.0
X193.96Y-102.01
X194.78Y-77.59
X195.06Y-99.57
X195.59Y-109.7
X198.09Y-109.7
T6
X103.415Y-68.402
X103.415Y-70.942
X103.415Y-73.482
X103.415Y-76.022
X103.415Y-78.562
X103.415Y-81.102
X103.415Y-83.642
X103.415Y-86.182
X103.415Y-88.722
X103.415Y-91.262
X103.415Y-93.802
X103.415Y-96.342
X103.415Y-98.882
X103.415Y-101.422
X107.92Y-113.44
X110.46Y-113.44
X113.0Y-113.44
X115.54Y-113.44
X116.55Y-62.3
X116.55Y-64.84
X118.08Y-113.44
X119.09Y-62.3
X119.09Y-64.84
X120.62Y-113.44
X121.63Y-62.3
X121.63Y-64.84
X124.17Y-62.3
X124.17Y-64.84
X181.513Y-81.102
X181.513Y-83.642
X181.513Y-86.182
X181.513Y-88.722
T7
X187.94Y-90.19
X187.94Y-96.69
X187.98Y-80.37
X187.98Y-86.87
X187.99Y-60.96
X187.99Y-67.46
X187.99Y-70.68
X187.99Y-77.18
X192.44Y-90.19
X192.44Y-96.69
X192.48Y-80.37
X192.48Y-86.87
X192.49Y-60.96
X192.49Y-67.46
X192.49Y-70.68
X192.49Y-77.18
T3
G00X192.09Y-113.665
M15
G01X192.09Y-114.315
M16
G05
G00X199.09Y-113.665
M15
G01X199.09Y-114.315
M16
G05
T4
G00X192.94Y-111.29
M15
G01X193.24Y-111.29
M16
G05
G00X197.94Y-111.29
M15
G01X198.24Y-111.29
M16
G05
T5
G00X192.775Y-99.44
M15
G01X193.575Y-99.44
M16
G05
G00X192.775Y-108.08
M15
G01X193.575Y-108.08
M16
G05
G00X196.555Y-99.44
M15
G01X197.755Y-99.44
M16
G05
G00X196.555Y-108.08
M15
G01X197.755Y-108.08
M16
G05
M30
