%TF.GenerationSoftware,KiCad,Pcbnew,9.0.1*%
%TF.CreationDate,2025-11-17T15:11:09+01:00*%
%TF.ProjectId,stacja_pogody_modu__wew,73746163-6a61-45f7-906f-676f64795f6d,rev?*%
%TF.SameCoordinates,Original*%
%TF.FileFunction,Soldermask,Bot*%
%TF.FilePolarity,Negative*%
%FSLAX46Y46*%
G04 Gerber Fmt 4.6, Leading zero omitted, Abs format (unit mm)*
G04 Created by KiCad (PCBNEW 9.0.1) date 2025-11-17 15:11:09*
%MOMM*%
%LPD*%
G01*
G04 APERTURE LIST*
G04 Aperture macros list*
%AMRoundRect*
0 Rectangle with rounded corners*
0 $1 Rounding radius*
0 $2 $3 $4 $5 $6 $7 $8 $9 X,Y pos of 4 corners*
0 Add a 4 corners polygon primitive as box body*
4,1,4,$2,$3,$4,$5,$6,$7,$8,$9,$2,$3,0*
0 Add four circle primitives for the rounded corners*
1,1,$1+$1,$2,$3*
1,1,$1+$1,$4,$5*
1,1,$1+$1,$6,$7*
1,1,$1+$1,$8,$9*
0 Add four rect primitives between the rounded corners*
20,1,$1+$1,$2,$3,$4,$5,0*
20,1,$1+$1,$4,$5,$6,$7,0*
20,1,$1+$1,$6,$7,$8,$9,0*
20,1,$1+$1,$8,$9,$2,$3,0*%
G04 Aperture macros list end*
%ADD10O,1.800000X1.000000*%
%ADD11O,2.200000X1.000000*%
%ADD12C,3.200000*%
%ADD13C,1.800000*%
%ADD14R,1.700000X1.700000*%
%ADD15C,1.700000*%
%ADD16C,2.000000*%
%ADD17C,0.600000*%
%ADD18O,0.890000X1.550000*%
%ADD19O,1.250000X0.950000*%
%ADD20RoundRect,0.200000X0.200000X0.275000X-0.200000X0.275000X-0.200000X-0.275000X0.200000X-0.275000X0*%
%ADD21RoundRect,0.250000X-0.475000X0.337500X-0.475000X-0.337500X0.475000X-0.337500X0.475000X0.337500X0*%
%ADD22RoundRect,0.200000X0.275000X-0.200000X0.275000X0.200000X-0.275000X0.200000X-0.275000X-0.200000X0*%
%ADD23RoundRect,0.200000X0.750000X0.200000X-0.750000X0.200000X-0.750000X-0.200000X0.750000X-0.200000X0*%
%ADD24RoundRect,0.237500X0.300000X0.237500X-0.300000X0.237500X-0.300000X-0.237500X0.300000X-0.237500X0*%
%ADD25RoundRect,0.237500X-0.300000X-0.237500X0.300000X-0.237500X0.300000X0.237500X-0.300000X0.237500X0*%
%ADD26RoundRect,0.200000X-0.200000X-0.275000X0.200000X-0.275000X0.200000X0.275000X-0.200000X0.275000X0*%
%ADD27RoundRect,0.200000X-0.275000X0.200000X-0.275000X-0.200000X0.275000X-0.200000X0.275000X0.200000X0*%
%ADD28RoundRect,0.250000X0.337500X0.475000X-0.337500X0.475000X-0.337500X-0.475000X0.337500X-0.475000X0*%
%ADD29RoundRect,0.250000X0.475000X-0.337500X0.475000X0.337500X-0.475000X0.337500X-0.475000X-0.337500X0*%
%ADD30RoundRect,0.200000X0.200000X-0.900000X0.200000X0.900000X-0.200000X0.900000X-0.200000X-0.900000X0*%
%ADD31RoundRect,0.249997X2.650003X-2.950003X2.650003X2.950003X-2.650003X2.950003X-2.650003X-2.950003X0*%
%ADD32RoundRect,0.243750X0.243750X0.456250X-0.243750X0.456250X-0.243750X-0.456250X0.243750X-0.456250X0*%
%ADD33R,2.100000X1.800000*%
%ADD34RoundRect,0.150000X0.825000X0.150000X-0.825000X0.150000X-0.825000X-0.150000X0.825000X-0.150000X0*%
G04 APERTURE END LIST*
D10*
%TO.C,J2*%
X193175000Y-108080000D03*
D11*
X197155000Y-108080000D03*
D10*
X193175000Y-99440000D03*
D11*
X197155000Y-99440000D03*
%TD*%
D12*
%TO.C,H2*%
X174500000Y-87000000D03*
%TD*%
%TO.C,U2*%
X180913657Y-106997511D03*
X180913301Y-62897334D03*
X105020000Y-62910000D03*
X105013657Y-106997511D03*
D13*
X103414929Y-68402054D03*
X103414929Y-70942054D03*
X103414929Y-73482054D03*
X103414929Y-76022054D03*
X103414929Y-78562054D03*
X103414929Y-81102054D03*
X103414929Y-83642054D03*
X103414929Y-86182054D03*
X103414929Y-88722054D03*
X103414929Y-91262054D03*
X103414929Y-93802054D03*
X103414929Y-96342054D03*
X103414929Y-98882054D03*
X103414929Y-101422054D03*
X181513301Y-81102334D03*
X181513301Y-83642334D03*
X181513301Y-86182334D03*
X181513301Y-88722334D03*
%TD*%
D14*
%TO.C,J3*%
X120620000Y-113440000D03*
D15*
X118080000Y-113440000D03*
X115540000Y-113440000D03*
X113000000Y-113440000D03*
X110460000Y-113440000D03*
X107920000Y-113440000D03*
%TD*%
D16*
%TO.C,SW3*%
X192440000Y-90190000D03*
X192440000Y-96690000D03*
X187940000Y-90190000D03*
X187940000Y-96690000D03*
%TD*%
%TO.C,SW4*%
X192480000Y-80370000D03*
X192480000Y-86870000D03*
X187980000Y-80370000D03*
X187980000Y-86870000D03*
%TD*%
%TO.C,SW2*%
X187990000Y-67460000D03*
X187990000Y-60960000D03*
X192490000Y-67460000D03*
X192490000Y-60960000D03*
%TD*%
D12*
%TO.C,H1*%
X125000000Y-87000000D03*
%TD*%
D17*
%TO.C,U4*%
X154820000Y-67180000D03*
X154820000Y-68580000D03*
X155520000Y-66480000D03*
X155520000Y-67880000D03*
X155520000Y-69280000D03*
X156220000Y-67180000D03*
X156220000Y-68580000D03*
X156920000Y-66480000D03*
X156920000Y-67880000D03*
X156920000Y-69280000D03*
X157620000Y-67180000D03*
X157620000Y-68580000D03*
%TD*%
D18*
%TO.C,J1*%
X192090000Y-113990000D03*
D19*
X193090000Y-111290000D03*
X198090000Y-111290000D03*
D18*
X199090000Y-113990000D03*
%TD*%
D16*
%TO.C,SW1*%
X187990000Y-77180000D03*
X187990000Y-70680000D03*
X192490000Y-77180000D03*
X192490000Y-70680000D03*
%TD*%
D20*
%TO.C,R15*%
X197455000Y-105670000D03*
X195805000Y-105670000D03*
%TD*%
%TO.C,R3*%
X185625000Y-71140000D03*
X183975000Y-71140000D03*
%TD*%
D21*
%TO.C,C3*%
X149832500Y-92160000D03*
X149832500Y-94235000D03*
%TD*%
D22*
%TO.C,R8*%
X131940000Y-101095000D03*
X131940000Y-99445000D03*
%TD*%
%TO.C,R7*%
X131910000Y-105405000D03*
X131910000Y-103755000D03*
%TD*%
D23*
%TO.C,Q1*%
X124430000Y-106440000D03*
X124430000Y-108340000D03*
X121430000Y-107390000D03*
%TD*%
D21*
%TO.C,C11*%
X146040000Y-108972500D03*
X146040000Y-111047500D03*
%TD*%
D24*
%TO.C,C12*%
X131302500Y-94310000D03*
X129577500Y-94310000D03*
%TD*%
%TO.C,C7*%
X107712500Y-68510000D03*
X105987500Y-68510000D03*
%TD*%
D25*
%TO.C,C9*%
X135747500Y-95410000D03*
X137472500Y-95410000D03*
%TD*%
D14*
%TO.C,U1*%
X124170000Y-64840000D03*
D15*
X124170000Y-62300000D03*
X121630000Y-64840000D03*
X121630000Y-62300000D03*
X119090000Y-64840000D03*
X119090000Y-62300000D03*
X116550000Y-64840000D03*
X116550000Y-62300000D03*
%TD*%
D24*
%TO.C,C1*%
X129175000Y-61560000D03*
X127450000Y-61560000D03*
%TD*%
D26*
%TO.C,R17*%
X159065000Y-95860000D03*
X160715000Y-95860000D03*
%TD*%
D24*
%TO.C,C4*%
X153820000Y-61580000D03*
X152095000Y-61580000D03*
%TD*%
D27*
%TO.C,R10*%
X129830000Y-96050000D03*
X129830000Y-97700000D03*
%TD*%
D22*
%TO.C,R9*%
X132820000Y-97765000D03*
X132820000Y-96115000D03*
%TD*%
%TO.C,R11*%
X135340000Y-111375000D03*
X135340000Y-109725000D03*
%TD*%
D23*
%TO.C,Q2*%
X124520000Y-100790000D03*
X124520000Y-102690000D03*
X121520000Y-101740000D03*
%TD*%
D20*
%TO.C,R6*%
X185635000Y-68070000D03*
X183985000Y-68070000D03*
%TD*%
D28*
%TO.C,C2*%
X166567500Y-91820000D03*
X164492500Y-91820000D03*
%TD*%
D26*
%TO.C,R18*%
X159085000Y-98640000D03*
X160735000Y-98640000D03*
%TD*%
D29*
%TO.C,C10*%
X145720000Y-106347500D03*
X145720000Y-104272500D03*
%TD*%
D30*
%TO.C,U3*%
X161835000Y-91505000D03*
X160695000Y-91505000D03*
X159555000Y-91505000D03*
D31*
X159555000Y-85205000D03*
D30*
X158415000Y-91505000D03*
X157275000Y-91505000D03*
%TD*%
D20*
%TO.C,R16*%
X197500000Y-102480000D03*
X195850000Y-102480000D03*
%TD*%
D27*
%TO.C,R12*%
X130800000Y-112495000D03*
X130800000Y-114145000D03*
%TD*%
D32*
%TO.C,D3*%
X164387500Y-96930000D03*
X162512500Y-96930000D03*
%TD*%
D33*
%TO.C,Y1*%
X151530000Y-104710000D03*
X154430000Y-104710000D03*
X154430000Y-107010000D03*
X151530000Y-107010000D03*
%TD*%
D34*
%TO.C,U5*%
X141090000Y-97830000D03*
X141090000Y-99100000D03*
X141090000Y-100370000D03*
X141090000Y-101640000D03*
X141090000Y-102910000D03*
X141090000Y-104180000D03*
X141090000Y-105450000D03*
X141090000Y-106720000D03*
X136140000Y-106720000D03*
X136140000Y-105450000D03*
X136140000Y-104180000D03*
X136140000Y-102910000D03*
X136140000Y-101640000D03*
X136140000Y-100370000D03*
X136140000Y-99100000D03*
X136140000Y-97830000D03*
%TD*%
D24*
%TO.C,C13*%
X128662500Y-112420000D03*
X126937500Y-112420000D03*
%TD*%
M02*
