%TF.GenerationSoftware,KiCad,Pcbnew,9.0.1*%
%TF.CreationDate,2025-11-17T15:11:09+01:00*%
%TF.ProjectId,stacja_pogody_modu__wew,73746163-6a61-45f7-906f-676f64795f6d,rev?*%
%TF.SameCoordinates,Original*%
%TF.FileFunction,Profile,NP*%
%FSLAX46Y46*%
G04 Gerber Fmt 4.6, Leading zero omitted, Abs format (unit mm)*
G04 Created by KiCad (PCBNEW 9.0.1) date 2025-11-17 15:11:09*
%MOMM*%
%LPD*%
G01*
G04 APERTURE LIST*
%TA.AperFunction,Profile*%
%ADD10C,0.050000*%
%TD*%
%ADD11O,1.400000X0.600000*%
%ADD12O,1.800000X0.600000*%
%ADD13C,0.350000*%
%ADD14C,0.200000*%
%ADD15O,0.500000X1.150000*%
%ADD16O,0.850000X0.550000*%
G04 APERTURE END LIST*
D10*
X101000000Y-59000000D02*
X200500000Y-59000000D01*
X200500000Y-116000000D01*
X101000000Y-116000000D01*
X101000000Y-59000000D01*
D11*
X193175000Y-108080000D03*
D12*
X197155000Y-108080000D03*
D11*
X193175000Y-99440000D03*
D12*
X197155000Y-99440000D03*
D13*
X174500000Y-87000000D03*
X180913657Y-106997511D03*
X180913301Y-62897334D03*
X105020000Y-62910000D03*
X105013657Y-106997511D03*
X103414929Y-68402054D03*
X103414929Y-70942054D03*
X103414929Y-73482054D03*
X103414929Y-76022054D03*
X103414929Y-78562054D03*
X103414929Y-81102054D03*
X103414929Y-83642054D03*
X103414929Y-86182054D03*
X103414929Y-88722054D03*
X103414929Y-91262054D03*
X103414929Y-93802054D03*
X103414929Y-96342054D03*
X103414929Y-98882054D03*
X103414929Y-101422054D03*
X181513301Y-81102334D03*
X181513301Y-83642334D03*
X181513301Y-86182334D03*
X181513301Y-88722334D03*
X120620000Y-113440000D03*
X118080000Y-113440000D03*
X115540000Y-113440000D03*
X113000000Y-113440000D03*
X110460000Y-113440000D03*
X107920000Y-113440000D03*
X192440000Y-90190000D03*
X192440000Y-96690000D03*
X187940000Y-90190000D03*
X187940000Y-96690000D03*
X192480000Y-80370000D03*
X192480000Y-86870000D03*
X187980000Y-80370000D03*
X187980000Y-86870000D03*
X187990000Y-67460000D03*
X187990000Y-60960000D03*
X192490000Y-67460000D03*
X192490000Y-60960000D03*
X125000000Y-87000000D03*
D14*
X154820000Y-67180000D03*
X154820000Y-68580000D03*
X155520000Y-66480000D03*
X155520000Y-67880000D03*
X155520000Y-69280000D03*
X156220000Y-67180000D03*
X156220000Y-68580000D03*
X156920000Y-66480000D03*
X156920000Y-67880000D03*
X156920000Y-69280000D03*
X157620000Y-67180000D03*
X157620000Y-68580000D03*
D15*
X192090000Y-113990000D03*
D16*
X193090000Y-111290000D03*
X198090000Y-111290000D03*
D15*
X199090000Y-113990000D03*
D13*
X187990000Y-77180000D03*
X187990000Y-70680000D03*
X192490000Y-77180000D03*
X192490000Y-70680000D03*
X124170000Y-64840000D03*
X124170000Y-62300000D03*
X121630000Y-64840000D03*
X121630000Y-62300000D03*
X119090000Y-64840000D03*
X119090000Y-62300000D03*
X116550000Y-64840000D03*
X116550000Y-62300000D03*
M02*
