%TF.GenerationSoftware,KiCad,Pcbnew,9.0.1*%
%TF.CreationDate,2025-11-17T15:11:09+01:00*%
%TF.ProjectId,stacja_pogody_modu__wew,73746163-6a61-45f7-906f-676f64795f6d,rev?*%
%TF.SameCoordinates,Original*%
%TF.FileFunction,Legend,Top*%
%TF.FilePolarity,Positive*%
%FSLAX46Y46*%
G04 Gerber Fmt 4.6, Leading zero omitted, Abs format (unit mm)*
G04 Created by KiCad (PCBNEW 9.0.1) date 2025-11-17 15:11:09*
%MOMM*%
%LPD*%
G01*
G04 APERTURE LIST*
%ADD10C,0.250000*%
%ADD11C,0.150000*%
%ADD12C,0.100000*%
%ADD13C,0.120000*%
%ADD14O,1.400000X0.600000*%
%ADD15O,1.800000X0.600000*%
%ADD16C,0.350000*%
%ADD17C,0.200000*%
%ADD18O,0.500000X1.150000*%
%ADD19O,0.850000X0.550000*%
G04 APERTURE END LIST*
D10*
X197900809Y-83334098D02*
X197948428Y-83191241D01*
X197948428Y-83191241D02*
X197996047Y-83143622D01*
X197996047Y-83143622D02*
X198091285Y-83096003D01*
X198091285Y-83096003D02*
X198234142Y-83096003D01*
X198234142Y-83096003D02*
X198329380Y-83143622D01*
X198329380Y-83143622D02*
X198377000Y-83191241D01*
X198377000Y-83191241D02*
X198424619Y-83286479D01*
X198424619Y-83286479D02*
X198424619Y-83667431D01*
X198424619Y-83667431D02*
X197424619Y-83667431D01*
X197424619Y-83667431D02*
X197424619Y-83334098D01*
X197424619Y-83334098D02*
X197472238Y-83238860D01*
X197472238Y-83238860D02*
X197519857Y-83191241D01*
X197519857Y-83191241D02*
X197615095Y-83143622D01*
X197615095Y-83143622D02*
X197710333Y-83143622D01*
X197710333Y-83143622D02*
X197805571Y-83191241D01*
X197805571Y-83191241D02*
X197853190Y-83238860D01*
X197853190Y-83238860D02*
X197900809Y-83334098D01*
X197900809Y-83334098D02*
X197900809Y-83667431D01*
X197424619Y-82476955D02*
X197424619Y-82286479D01*
X197424619Y-82286479D02*
X197472238Y-82191241D01*
X197472238Y-82191241D02*
X197567476Y-82096003D01*
X197567476Y-82096003D02*
X197757952Y-82048384D01*
X197757952Y-82048384D02*
X198091285Y-82048384D01*
X198091285Y-82048384D02*
X198281761Y-82096003D01*
X198281761Y-82096003D02*
X198377000Y-82191241D01*
X198377000Y-82191241D02*
X198424619Y-82286479D01*
X198424619Y-82286479D02*
X198424619Y-82476955D01*
X198424619Y-82476955D02*
X198377000Y-82572193D01*
X198377000Y-82572193D02*
X198281761Y-82667431D01*
X198281761Y-82667431D02*
X198091285Y-82715050D01*
X198091285Y-82715050D02*
X197757952Y-82715050D01*
X197757952Y-82715050D02*
X197567476Y-82667431D01*
X197567476Y-82667431D02*
X197472238Y-82572193D01*
X197472238Y-82572193D02*
X197424619Y-82476955D01*
X197424619Y-81429336D02*
X197424619Y-81238860D01*
X197424619Y-81238860D02*
X197472238Y-81143622D01*
X197472238Y-81143622D02*
X197567476Y-81048384D01*
X197567476Y-81048384D02*
X197757952Y-81000765D01*
X197757952Y-81000765D02*
X198091285Y-81000765D01*
X198091285Y-81000765D02*
X198281761Y-81048384D01*
X198281761Y-81048384D02*
X198377000Y-81143622D01*
X198377000Y-81143622D02*
X198424619Y-81238860D01*
X198424619Y-81238860D02*
X198424619Y-81429336D01*
X198424619Y-81429336D02*
X198377000Y-81524574D01*
X198377000Y-81524574D02*
X198281761Y-81619812D01*
X198281761Y-81619812D02*
X198091285Y-81667431D01*
X198091285Y-81667431D02*
X197757952Y-81667431D01*
X197757952Y-81667431D02*
X197567476Y-81619812D01*
X197567476Y-81619812D02*
X197472238Y-81524574D01*
X197472238Y-81524574D02*
X197424619Y-81429336D01*
X197424619Y-80715050D02*
X197424619Y-80143622D01*
X198424619Y-80429336D02*
X197424619Y-80429336D01*
X185340809Y-97897431D02*
X185340809Y-97564098D01*
X185864619Y-97421241D02*
X185864619Y-97897431D01*
X185864619Y-97897431D02*
X184864619Y-97897431D01*
X184864619Y-97897431D02*
X184864619Y-97421241D01*
X185817000Y-97040288D02*
X185864619Y-96897431D01*
X185864619Y-96897431D02*
X185864619Y-96659336D01*
X185864619Y-96659336D02*
X185817000Y-96564098D01*
X185817000Y-96564098D02*
X185769380Y-96516479D01*
X185769380Y-96516479D02*
X185674142Y-96468860D01*
X185674142Y-96468860D02*
X185578904Y-96468860D01*
X185578904Y-96468860D02*
X185483666Y-96516479D01*
X185483666Y-96516479D02*
X185436047Y-96564098D01*
X185436047Y-96564098D02*
X185388428Y-96659336D01*
X185388428Y-96659336D02*
X185340809Y-96849812D01*
X185340809Y-96849812D02*
X185293190Y-96945050D01*
X185293190Y-96945050D02*
X185245571Y-96992669D01*
X185245571Y-96992669D02*
X185150333Y-97040288D01*
X185150333Y-97040288D02*
X185055095Y-97040288D01*
X185055095Y-97040288D02*
X184959857Y-96992669D01*
X184959857Y-96992669D02*
X184912238Y-96945050D01*
X184912238Y-96945050D02*
X184864619Y-96849812D01*
X184864619Y-96849812D02*
X184864619Y-96611717D01*
X184864619Y-96611717D02*
X184912238Y-96468860D01*
X185864619Y-96040288D02*
X184864619Y-96040288D01*
X184864619Y-96040288D02*
X184864619Y-95659336D01*
X184864619Y-95659336D02*
X184912238Y-95564098D01*
X184912238Y-95564098D02*
X184959857Y-95516479D01*
X184959857Y-95516479D02*
X185055095Y-95468860D01*
X185055095Y-95468860D02*
X185197952Y-95468860D01*
X185197952Y-95468860D02*
X185293190Y-95516479D01*
X185293190Y-95516479D02*
X185340809Y-95564098D01*
X185340809Y-95564098D02*
X185388428Y-95659336D01*
X185388428Y-95659336D02*
X185388428Y-96040288D01*
X185340809Y-94278383D02*
X185340809Y-93945050D01*
X185864619Y-93802193D02*
X185864619Y-94278383D01*
X185864619Y-94278383D02*
X184864619Y-94278383D01*
X184864619Y-94278383D02*
X184864619Y-93802193D01*
X185864619Y-93373621D02*
X184864619Y-93373621D01*
X184864619Y-93373621D02*
X185864619Y-92802193D01*
X185864619Y-92802193D02*
X184864619Y-92802193D01*
X185578904Y-92373621D02*
X185578904Y-91897431D01*
X185864619Y-92468859D02*
X184864619Y-92135526D01*
X184864619Y-92135526D02*
X185864619Y-91802193D01*
X185340809Y-91135526D02*
X185388428Y-90992669D01*
X185388428Y-90992669D02*
X185436047Y-90945050D01*
X185436047Y-90945050D02*
X185531285Y-90897431D01*
X185531285Y-90897431D02*
X185674142Y-90897431D01*
X185674142Y-90897431D02*
X185769380Y-90945050D01*
X185769380Y-90945050D02*
X185817000Y-90992669D01*
X185817000Y-90992669D02*
X185864619Y-91087907D01*
X185864619Y-91087907D02*
X185864619Y-91468859D01*
X185864619Y-91468859D02*
X184864619Y-91468859D01*
X184864619Y-91468859D02*
X184864619Y-91135526D01*
X184864619Y-91135526D02*
X184912238Y-91040288D01*
X184912238Y-91040288D02*
X184959857Y-90992669D01*
X184959857Y-90992669D02*
X185055095Y-90945050D01*
X185055095Y-90945050D02*
X185150333Y-90945050D01*
X185150333Y-90945050D02*
X185245571Y-90992669D01*
X185245571Y-90992669D02*
X185293190Y-91040288D01*
X185293190Y-91040288D02*
X185340809Y-91135526D01*
X185340809Y-91135526D02*
X185340809Y-91468859D01*
X185864619Y-89992669D02*
X185864619Y-90468859D01*
X185864619Y-90468859D02*
X184864619Y-90468859D01*
X185340809Y-89659335D02*
X185340809Y-89326002D01*
X185864619Y-89183145D02*
X185864619Y-89659335D01*
X185864619Y-89659335D02*
X184864619Y-89659335D01*
X184864619Y-89659335D02*
X184864619Y-89183145D01*
X197900809Y-86857431D02*
X197900809Y-86524098D01*
X198424619Y-86381241D02*
X198424619Y-86857431D01*
X198424619Y-86857431D02*
X197424619Y-86857431D01*
X197424619Y-86857431D02*
X197424619Y-86381241D01*
X198424619Y-85952669D02*
X197424619Y-85952669D01*
X197424619Y-85952669D02*
X198424619Y-85381241D01*
X198424619Y-85381241D02*
X197424619Y-85381241D01*
X197900809Y-84571717D02*
X197948428Y-84428860D01*
X197948428Y-84428860D02*
X197996047Y-84381241D01*
X197996047Y-84381241D02*
X198091285Y-84333622D01*
X198091285Y-84333622D02*
X198234142Y-84333622D01*
X198234142Y-84333622D02*
X198329380Y-84381241D01*
X198329380Y-84381241D02*
X198377000Y-84428860D01*
X198377000Y-84428860D02*
X198424619Y-84524098D01*
X198424619Y-84524098D02*
X198424619Y-84905050D01*
X198424619Y-84905050D02*
X197424619Y-84905050D01*
X197424619Y-84905050D02*
X197424619Y-84571717D01*
X197424619Y-84571717D02*
X197472238Y-84476479D01*
X197472238Y-84476479D02*
X197519857Y-84428860D01*
X197519857Y-84428860D02*
X197615095Y-84381241D01*
X197615095Y-84381241D02*
X197710333Y-84381241D01*
X197710333Y-84381241D02*
X197805571Y-84428860D01*
X197805571Y-84428860D02*
X197853190Y-84476479D01*
X197853190Y-84476479D02*
X197900809Y-84571717D01*
X197900809Y-84571717D02*
X197900809Y-84905050D01*
X185340809Y-87167431D02*
X185340809Y-86834098D01*
X185864619Y-86691241D02*
X185864619Y-87167431D01*
X185864619Y-87167431D02*
X184864619Y-87167431D01*
X184864619Y-87167431D02*
X184864619Y-86691241D01*
X185817000Y-86310288D02*
X185864619Y-86167431D01*
X185864619Y-86167431D02*
X185864619Y-85929336D01*
X185864619Y-85929336D02*
X185817000Y-85834098D01*
X185817000Y-85834098D02*
X185769380Y-85786479D01*
X185769380Y-85786479D02*
X185674142Y-85738860D01*
X185674142Y-85738860D02*
X185578904Y-85738860D01*
X185578904Y-85738860D02*
X185483666Y-85786479D01*
X185483666Y-85786479D02*
X185436047Y-85834098D01*
X185436047Y-85834098D02*
X185388428Y-85929336D01*
X185388428Y-85929336D02*
X185340809Y-86119812D01*
X185340809Y-86119812D02*
X185293190Y-86215050D01*
X185293190Y-86215050D02*
X185245571Y-86262669D01*
X185245571Y-86262669D02*
X185150333Y-86310288D01*
X185150333Y-86310288D02*
X185055095Y-86310288D01*
X185055095Y-86310288D02*
X184959857Y-86262669D01*
X184959857Y-86262669D02*
X184912238Y-86215050D01*
X184912238Y-86215050D02*
X184864619Y-86119812D01*
X184864619Y-86119812D02*
X184864619Y-85881717D01*
X184864619Y-85881717D02*
X184912238Y-85738860D01*
X185864619Y-85310288D02*
X184864619Y-85310288D01*
X184864619Y-85310288D02*
X184864619Y-84929336D01*
X184864619Y-84929336D02*
X184912238Y-84834098D01*
X184912238Y-84834098D02*
X184959857Y-84786479D01*
X184959857Y-84786479D02*
X185055095Y-84738860D01*
X185055095Y-84738860D02*
X185197952Y-84738860D01*
X185197952Y-84738860D02*
X185293190Y-84786479D01*
X185293190Y-84786479D02*
X185340809Y-84834098D01*
X185340809Y-84834098D02*
X185388428Y-84929336D01*
X185388428Y-84929336D02*
X185388428Y-85310288D01*
X185340809Y-83215050D02*
X185388428Y-83072193D01*
X185388428Y-83072193D02*
X185436047Y-83024574D01*
X185436047Y-83024574D02*
X185531285Y-82976955D01*
X185531285Y-82976955D02*
X185674142Y-82976955D01*
X185674142Y-82976955D02*
X185769380Y-83024574D01*
X185769380Y-83024574D02*
X185817000Y-83072193D01*
X185817000Y-83072193D02*
X185864619Y-83167431D01*
X185864619Y-83167431D02*
X185864619Y-83548383D01*
X185864619Y-83548383D02*
X184864619Y-83548383D01*
X184864619Y-83548383D02*
X184864619Y-83215050D01*
X184864619Y-83215050D02*
X184912238Y-83119812D01*
X184912238Y-83119812D02*
X184959857Y-83072193D01*
X184959857Y-83072193D02*
X185055095Y-83024574D01*
X185055095Y-83024574D02*
X185150333Y-83024574D01*
X185150333Y-83024574D02*
X185245571Y-83072193D01*
X185245571Y-83072193D02*
X185293190Y-83119812D01*
X185293190Y-83119812D02*
X185340809Y-83215050D01*
X185340809Y-83215050D02*
X185340809Y-83548383D01*
X184864619Y-82357907D02*
X184864619Y-82167431D01*
X184864619Y-82167431D02*
X184912238Y-82072193D01*
X184912238Y-82072193D02*
X185007476Y-81976955D01*
X185007476Y-81976955D02*
X185197952Y-81929336D01*
X185197952Y-81929336D02*
X185531285Y-81929336D01*
X185531285Y-81929336D02*
X185721761Y-81976955D01*
X185721761Y-81976955D02*
X185817000Y-82072193D01*
X185817000Y-82072193D02*
X185864619Y-82167431D01*
X185864619Y-82167431D02*
X185864619Y-82357907D01*
X185864619Y-82357907D02*
X185817000Y-82453145D01*
X185817000Y-82453145D02*
X185721761Y-82548383D01*
X185721761Y-82548383D02*
X185531285Y-82596002D01*
X185531285Y-82596002D02*
X185197952Y-82596002D01*
X185197952Y-82596002D02*
X185007476Y-82548383D01*
X185007476Y-82548383D02*
X184912238Y-82453145D01*
X184912238Y-82453145D02*
X184864619Y-82357907D01*
X184864619Y-81310288D02*
X184864619Y-81119812D01*
X184864619Y-81119812D02*
X184912238Y-81024574D01*
X184912238Y-81024574D02*
X185007476Y-80929336D01*
X185007476Y-80929336D02*
X185197952Y-80881717D01*
X185197952Y-80881717D02*
X185531285Y-80881717D01*
X185531285Y-80881717D02*
X185721761Y-80929336D01*
X185721761Y-80929336D02*
X185817000Y-81024574D01*
X185817000Y-81024574D02*
X185864619Y-81119812D01*
X185864619Y-81119812D02*
X185864619Y-81310288D01*
X185864619Y-81310288D02*
X185817000Y-81405526D01*
X185817000Y-81405526D02*
X185721761Y-81500764D01*
X185721761Y-81500764D02*
X185531285Y-81548383D01*
X185531285Y-81548383D02*
X185197952Y-81548383D01*
X185197952Y-81548383D02*
X185007476Y-81500764D01*
X185007476Y-81500764D02*
X184912238Y-81405526D01*
X184912238Y-81405526D02*
X184864619Y-81310288D01*
X184864619Y-80596002D02*
X184864619Y-80024574D01*
X185864619Y-80310288D02*
X184864619Y-80310288D01*
D11*
X196243747Y-104169053D02*
X196958032Y-104169053D01*
X196958032Y-104169053D02*
X197100889Y-104216672D01*
X197100889Y-104216672D02*
X197196128Y-104311910D01*
X197196128Y-104311910D02*
X197243747Y-104454767D01*
X197243747Y-104454767D02*
X197243747Y-104550005D01*
X196338985Y-103740481D02*
X196291366Y-103692862D01*
X196291366Y-103692862D02*
X196243747Y-103597624D01*
X196243747Y-103597624D02*
X196243747Y-103359529D01*
X196243747Y-103359529D02*
X196291366Y-103264291D01*
X196291366Y-103264291D02*
X196338985Y-103216672D01*
X196338985Y-103216672D02*
X196434223Y-103169053D01*
X196434223Y-103169053D02*
X196529461Y-103169053D01*
X196529461Y-103169053D02*
X196672318Y-103216672D01*
X196672318Y-103216672D02*
X197243747Y-103788100D01*
X197243747Y-103788100D02*
X197243747Y-103169053D01*
X173738095Y-83254819D02*
X173738095Y-82254819D01*
X173738095Y-82731009D02*
X174309523Y-82731009D01*
X174309523Y-83254819D02*
X174309523Y-82254819D01*
X174738095Y-82350057D02*
X174785714Y-82302438D01*
X174785714Y-82302438D02*
X174880952Y-82254819D01*
X174880952Y-82254819D02*
X175119047Y-82254819D01*
X175119047Y-82254819D02*
X175214285Y-82302438D01*
X175214285Y-82302438D02*
X175261904Y-82350057D01*
X175261904Y-82350057D02*
X175309523Y-82445295D01*
X175309523Y-82445295D02*
X175309523Y-82540533D01*
X175309523Y-82540533D02*
X175261904Y-82683390D01*
X175261904Y-82683390D02*
X174690476Y-83254819D01*
X174690476Y-83254819D02*
X175309523Y-83254819D01*
D12*
X143625205Y-85939914D02*
X143625205Y-85130391D01*
X143625205Y-85130391D02*
X143577586Y-85035153D01*
X143577586Y-85035153D02*
X143529967Y-84987534D01*
X143529967Y-84987534D02*
X143434729Y-84939914D01*
X143434729Y-84939914D02*
X143244253Y-84939914D01*
X143244253Y-84939914D02*
X143149015Y-84987534D01*
X143149015Y-84987534D02*
X143101396Y-85035153D01*
X143101396Y-85035153D02*
X143053777Y-85130391D01*
X143053777Y-85130391D02*
X143053777Y-85939914D01*
X142625205Y-85844676D02*
X142577586Y-85892295D01*
X142577586Y-85892295D02*
X142482348Y-85939914D01*
X142482348Y-85939914D02*
X142244253Y-85939914D01*
X142244253Y-85939914D02*
X142149015Y-85892295D01*
X142149015Y-85892295D02*
X142101396Y-85844676D01*
X142101396Y-85844676D02*
X142053777Y-85749438D01*
X142053777Y-85749438D02*
X142053777Y-85654200D01*
X142053777Y-85654200D02*
X142101396Y-85511343D01*
X142101396Y-85511343D02*
X142672824Y-84939914D01*
X142672824Y-84939914D02*
X142053777Y-84939914D01*
D11*
X122844819Y-113773333D02*
X123559104Y-113773333D01*
X123559104Y-113773333D02*
X123701961Y-113820952D01*
X123701961Y-113820952D02*
X123797200Y-113916190D01*
X123797200Y-113916190D02*
X123844819Y-114059047D01*
X123844819Y-114059047D02*
X123844819Y-114154285D01*
X122844819Y-113392380D02*
X122844819Y-112773333D01*
X122844819Y-112773333D02*
X123225771Y-113106666D01*
X123225771Y-113106666D02*
X123225771Y-112963809D01*
X123225771Y-112963809D02*
X123273390Y-112868571D01*
X123273390Y-112868571D02*
X123321009Y-112820952D01*
X123321009Y-112820952D02*
X123416247Y-112773333D01*
X123416247Y-112773333D02*
X123654342Y-112773333D01*
X123654342Y-112773333D02*
X123749580Y-112820952D01*
X123749580Y-112820952D02*
X123797200Y-112868571D01*
X123797200Y-112868571D02*
X123844819Y-112963809D01*
X123844819Y-112963809D02*
X123844819Y-113249523D01*
X123844819Y-113249523D02*
X123797200Y-113344761D01*
X123797200Y-113344761D02*
X123749580Y-113392380D01*
X190637200Y-94923332D02*
X190684819Y-94780475D01*
X190684819Y-94780475D02*
X190684819Y-94542380D01*
X190684819Y-94542380D02*
X190637200Y-94447142D01*
X190637200Y-94447142D02*
X190589580Y-94399523D01*
X190589580Y-94399523D02*
X190494342Y-94351904D01*
X190494342Y-94351904D02*
X190399104Y-94351904D01*
X190399104Y-94351904D02*
X190303866Y-94399523D01*
X190303866Y-94399523D02*
X190256247Y-94447142D01*
X190256247Y-94447142D02*
X190208628Y-94542380D01*
X190208628Y-94542380D02*
X190161009Y-94732856D01*
X190161009Y-94732856D02*
X190113390Y-94828094D01*
X190113390Y-94828094D02*
X190065771Y-94875713D01*
X190065771Y-94875713D02*
X189970533Y-94923332D01*
X189970533Y-94923332D02*
X189875295Y-94923332D01*
X189875295Y-94923332D02*
X189780057Y-94875713D01*
X189780057Y-94875713D02*
X189732438Y-94828094D01*
X189732438Y-94828094D02*
X189684819Y-94732856D01*
X189684819Y-94732856D02*
X189684819Y-94494761D01*
X189684819Y-94494761D02*
X189732438Y-94351904D01*
X189684819Y-94018570D02*
X190684819Y-93780475D01*
X190684819Y-93780475D02*
X189970533Y-93589999D01*
X189970533Y-93589999D02*
X190684819Y-93399523D01*
X190684819Y-93399523D02*
X189684819Y-93161428D01*
X189684819Y-92875713D02*
X189684819Y-92256666D01*
X189684819Y-92256666D02*
X190065771Y-92589999D01*
X190065771Y-92589999D02*
X190065771Y-92447142D01*
X190065771Y-92447142D02*
X190113390Y-92351904D01*
X190113390Y-92351904D02*
X190161009Y-92304285D01*
X190161009Y-92304285D02*
X190256247Y-92256666D01*
X190256247Y-92256666D02*
X190494342Y-92256666D01*
X190494342Y-92256666D02*
X190589580Y-92304285D01*
X190589580Y-92304285D02*
X190637200Y-92351904D01*
X190637200Y-92351904D02*
X190684819Y-92447142D01*
X190684819Y-92447142D02*
X190684819Y-92732856D01*
X190684819Y-92732856D02*
X190637200Y-92828094D01*
X190637200Y-92828094D02*
X190589580Y-92875713D01*
X197444819Y-89897857D02*
X196968628Y-90231190D01*
X197444819Y-90469285D02*
X196444819Y-90469285D01*
X196444819Y-90469285D02*
X196444819Y-90088333D01*
X196444819Y-90088333D02*
X196492438Y-89993095D01*
X196492438Y-89993095D02*
X196540057Y-89945476D01*
X196540057Y-89945476D02*
X196635295Y-89897857D01*
X196635295Y-89897857D02*
X196778152Y-89897857D01*
X196778152Y-89897857D02*
X196873390Y-89945476D01*
X196873390Y-89945476D02*
X196921009Y-89993095D01*
X196921009Y-89993095D02*
X196968628Y-90088333D01*
X196968628Y-90088333D02*
X196968628Y-90469285D01*
X197444819Y-88945476D02*
X197444819Y-89516904D01*
X197444819Y-89231190D02*
X196444819Y-89231190D01*
X196444819Y-89231190D02*
X196587676Y-89326428D01*
X196587676Y-89326428D02*
X196682914Y-89421666D01*
X196682914Y-89421666D02*
X196730533Y-89516904D01*
X196444819Y-88612142D02*
X196444819Y-87993095D01*
X196444819Y-87993095D02*
X196825771Y-88326428D01*
X196825771Y-88326428D02*
X196825771Y-88183571D01*
X196825771Y-88183571D02*
X196873390Y-88088333D01*
X196873390Y-88088333D02*
X196921009Y-88040714D01*
X196921009Y-88040714D02*
X197016247Y-87993095D01*
X197016247Y-87993095D02*
X197254342Y-87993095D01*
X197254342Y-87993095D02*
X197349580Y-88040714D01*
X197349580Y-88040714D02*
X197397200Y-88088333D01*
X197397200Y-88088333D02*
X197444819Y-88183571D01*
X197444819Y-88183571D02*
X197444819Y-88469285D01*
X197444819Y-88469285D02*
X197397200Y-88564523D01*
X197397200Y-88564523D02*
X197349580Y-88612142D01*
X196919580Y-64376666D02*
X196967200Y-64424285D01*
X196967200Y-64424285D02*
X197014819Y-64567142D01*
X197014819Y-64567142D02*
X197014819Y-64662380D01*
X197014819Y-64662380D02*
X196967200Y-64805237D01*
X196967200Y-64805237D02*
X196871961Y-64900475D01*
X196871961Y-64900475D02*
X196776723Y-64948094D01*
X196776723Y-64948094D02*
X196586247Y-64995713D01*
X196586247Y-64995713D02*
X196443390Y-64995713D01*
X196443390Y-64995713D02*
X196252914Y-64948094D01*
X196252914Y-64948094D02*
X196157676Y-64900475D01*
X196157676Y-64900475D02*
X196062438Y-64805237D01*
X196062438Y-64805237D02*
X196014819Y-64662380D01*
X196014819Y-64662380D02*
X196014819Y-64567142D01*
X196014819Y-64567142D02*
X196062438Y-64424285D01*
X196062438Y-64424285D02*
X196110057Y-64376666D01*
X196014819Y-63519523D02*
X196014819Y-63709999D01*
X196014819Y-63709999D02*
X196062438Y-63805237D01*
X196062438Y-63805237D02*
X196110057Y-63852856D01*
X196110057Y-63852856D02*
X196252914Y-63948094D01*
X196252914Y-63948094D02*
X196443390Y-63995713D01*
X196443390Y-63995713D02*
X196824342Y-63995713D01*
X196824342Y-63995713D02*
X196919580Y-63948094D01*
X196919580Y-63948094D02*
X196967200Y-63900475D01*
X196967200Y-63900475D02*
X197014819Y-63805237D01*
X197014819Y-63805237D02*
X197014819Y-63614761D01*
X197014819Y-63614761D02*
X196967200Y-63519523D01*
X196967200Y-63519523D02*
X196919580Y-63471904D01*
X196919580Y-63471904D02*
X196824342Y-63424285D01*
X196824342Y-63424285D02*
X196586247Y-63424285D01*
X196586247Y-63424285D02*
X196491009Y-63471904D01*
X196491009Y-63471904D02*
X196443390Y-63519523D01*
X196443390Y-63519523D02*
X196395771Y-63614761D01*
X196395771Y-63614761D02*
X196395771Y-63805237D01*
X196395771Y-63805237D02*
X196443390Y-63900475D01*
X196443390Y-63900475D02*
X196491009Y-63948094D01*
X196491009Y-63948094D02*
X196586247Y-63995713D01*
X194624819Y-82658094D02*
X193624819Y-82658094D01*
X193624819Y-82658094D02*
X193624819Y-82419999D01*
X193624819Y-82419999D02*
X193672438Y-82277142D01*
X193672438Y-82277142D02*
X193767676Y-82181904D01*
X193767676Y-82181904D02*
X193862914Y-82134285D01*
X193862914Y-82134285D02*
X194053390Y-82086666D01*
X194053390Y-82086666D02*
X194196247Y-82086666D01*
X194196247Y-82086666D02*
X194386723Y-82134285D01*
X194386723Y-82134285D02*
X194481961Y-82181904D01*
X194481961Y-82181904D02*
X194577200Y-82277142D01*
X194577200Y-82277142D02*
X194624819Y-82419999D01*
X194624819Y-82419999D02*
X194624819Y-82658094D01*
X194624819Y-81134285D02*
X194624819Y-81705713D01*
X194624819Y-81419999D02*
X193624819Y-81419999D01*
X193624819Y-81419999D02*
X193767676Y-81515237D01*
X193767676Y-81515237D02*
X193862914Y-81610475D01*
X193862914Y-81610475D02*
X193910533Y-81705713D01*
X198794819Y-79202857D02*
X198318628Y-79536190D01*
X198794819Y-79774285D02*
X197794819Y-79774285D01*
X197794819Y-79774285D02*
X197794819Y-79393333D01*
X197794819Y-79393333D02*
X197842438Y-79298095D01*
X197842438Y-79298095D02*
X197890057Y-79250476D01*
X197890057Y-79250476D02*
X197985295Y-79202857D01*
X197985295Y-79202857D02*
X198128152Y-79202857D01*
X198128152Y-79202857D02*
X198223390Y-79250476D01*
X198223390Y-79250476D02*
X198271009Y-79298095D01*
X198271009Y-79298095D02*
X198318628Y-79393333D01*
X198318628Y-79393333D02*
X198318628Y-79774285D01*
X198794819Y-78250476D02*
X198794819Y-78821904D01*
X198794819Y-78536190D02*
X197794819Y-78536190D01*
X197794819Y-78536190D02*
X197937676Y-78631428D01*
X197937676Y-78631428D02*
X198032914Y-78726666D01*
X198032914Y-78726666D02*
X198080533Y-78821904D01*
X198128152Y-77393333D02*
X198794819Y-77393333D01*
X197747200Y-77631428D02*
X198461485Y-77869523D01*
X198461485Y-77869523D02*
X198461485Y-77250476D01*
X190637200Y-84953332D02*
X190684819Y-84810475D01*
X190684819Y-84810475D02*
X190684819Y-84572380D01*
X190684819Y-84572380D02*
X190637200Y-84477142D01*
X190637200Y-84477142D02*
X190589580Y-84429523D01*
X190589580Y-84429523D02*
X190494342Y-84381904D01*
X190494342Y-84381904D02*
X190399104Y-84381904D01*
X190399104Y-84381904D02*
X190303866Y-84429523D01*
X190303866Y-84429523D02*
X190256247Y-84477142D01*
X190256247Y-84477142D02*
X190208628Y-84572380D01*
X190208628Y-84572380D02*
X190161009Y-84762856D01*
X190161009Y-84762856D02*
X190113390Y-84858094D01*
X190113390Y-84858094D02*
X190065771Y-84905713D01*
X190065771Y-84905713D02*
X189970533Y-84953332D01*
X189970533Y-84953332D02*
X189875295Y-84953332D01*
X189875295Y-84953332D02*
X189780057Y-84905713D01*
X189780057Y-84905713D02*
X189732438Y-84858094D01*
X189732438Y-84858094D02*
X189684819Y-84762856D01*
X189684819Y-84762856D02*
X189684819Y-84524761D01*
X189684819Y-84524761D02*
X189732438Y-84381904D01*
X189684819Y-84048570D02*
X190684819Y-83810475D01*
X190684819Y-83810475D02*
X189970533Y-83619999D01*
X189970533Y-83619999D02*
X190684819Y-83429523D01*
X190684819Y-83429523D02*
X189684819Y-83191428D01*
X190018152Y-82381904D02*
X190684819Y-82381904D01*
X189637200Y-82619999D02*
X190351485Y-82858094D01*
X190351485Y-82858094D02*
X190351485Y-82239047D01*
X187215595Y-105104819D02*
X187215595Y-105914342D01*
X187215595Y-105914342D02*
X187263214Y-106009580D01*
X187263214Y-106009580D02*
X187310833Y-106057200D01*
X187310833Y-106057200D02*
X187406071Y-106104819D01*
X187406071Y-106104819D02*
X187596547Y-106104819D01*
X187596547Y-106104819D02*
X187691785Y-106057200D01*
X187691785Y-106057200D02*
X187739404Y-106009580D01*
X187739404Y-106009580D02*
X187787023Y-105914342D01*
X187787023Y-105914342D02*
X187787023Y-105104819D01*
X188167976Y-105104819D02*
X188834642Y-105104819D01*
X188834642Y-105104819D02*
X188406071Y-106104819D01*
X190647200Y-65543332D02*
X190694819Y-65400475D01*
X190694819Y-65400475D02*
X190694819Y-65162380D01*
X190694819Y-65162380D02*
X190647200Y-65067142D01*
X190647200Y-65067142D02*
X190599580Y-65019523D01*
X190599580Y-65019523D02*
X190504342Y-64971904D01*
X190504342Y-64971904D02*
X190409104Y-64971904D01*
X190409104Y-64971904D02*
X190313866Y-65019523D01*
X190313866Y-65019523D02*
X190266247Y-65067142D01*
X190266247Y-65067142D02*
X190218628Y-65162380D01*
X190218628Y-65162380D02*
X190171009Y-65352856D01*
X190171009Y-65352856D02*
X190123390Y-65448094D01*
X190123390Y-65448094D02*
X190075771Y-65495713D01*
X190075771Y-65495713D02*
X189980533Y-65543332D01*
X189980533Y-65543332D02*
X189885295Y-65543332D01*
X189885295Y-65543332D02*
X189790057Y-65495713D01*
X189790057Y-65495713D02*
X189742438Y-65448094D01*
X189742438Y-65448094D02*
X189694819Y-65352856D01*
X189694819Y-65352856D02*
X189694819Y-65114761D01*
X189694819Y-65114761D02*
X189742438Y-64971904D01*
X189694819Y-64638570D02*
X190694819Y-64400475D01*
X190694819Y-64400475D02*
X189980533Y-64209999D01*
X189980533Y-64209999D02*
X190694819Y-64019523D01*
X190694819Y-64019523D02*
X189694819Y-63781428D01*
X189790057Y-63448094D02*
X189742438Y-63400475D01*
X189742438Y-63400475D02*
X189694819Y-63305237D01*
X189694819Y-63305237D02*
X189694819Y-63067142D01*
X189694819Y-63067142D02*
X189742438Y-62971904D01*
X189742438Y-62971904D02*
X189790057Y-62924285D01*
X189790057Y-62924285D02*
X189885295Y-62876666D01*
X189885295Y-62876666D02*
X189980533Y-62876666D01*
X189980533Y-62876666D02*
X190123390Y-62924285D01*
X190123390Y-62924285D02*
X190694819Y-63495713D01*
X190694819Y-63495713D02*
X190694819Y-62876666D01*
X187245595Y-111304819D02*
X187245595Y-112114342D01*
X187245595Y-112114342D02*
X187293214Y-112209580D01*
X187293214Y-112209580D02*
X187340833Y-112257200D01*
X187340833Y-112257200D02*
X187436071Y-112304819D01*
X187436071Y-112304819D02*
X187626547Y-112304819D01*
X187626547Y-112304819D02*
X187721785Y-112257200D01*
X187721785Y-112257200D02*
X187769404Y-112209580D01*
X187769404Y-112209580D02*
X187817023Y-112114342D01*
X187817023Y-112114342D02*
X187817023Y-111304819D01*
X188721785Y-111304819D02*
X188531309Y-111304819D01*
X188531309Y-111304819D02*
X188436071Y-111352438D01*
X188436071Y-111352438D02*
X188388452Y-111400057D01*
X188388452Y-111400057D02*
X188293214Y-111542914D01*
X188293214Y-111542914D02*
X188245595Y-111733390D01*
X188245595Y-111733390D02*
X188245595Y-112114342D01*
X188245595Y-112114342D02*
X188293214Y-112209580D01*
X188293214Y-112209580D02*
X188340833Y-112257200D01*
X188340833Y-112257200D02*
X188436071Y-112304819D01*
X188436071Y-112304819D02*
X188626547Y-112304819D01*
X188626547Y-112304819D02*
X188721785Y-112257200D01*
X188721785Y-112257200D02*
X188769404Y-112209580D01*
X188769404Y-112209580D02*
X188817023Y-112114342D01*
X188817023Y-112114342D02*
X188817023Y-111876247D01*
X188817023Y-111876247D02*
X188769404Y-111781009D01*
X188769404Y-111781009D02*
X188721785Y-111733390D01*
X188721785Y-111733390D02*
X188626547Y-111685771D01*
X188626547Y-111685771D02*
X188436071Y-111685771D01*
X188436071Y-111685771D02*
X188340833Y-111733390D01*
X188340833Y-111733390D02*
X188293214Y-111781009D01*
X188293214Y-111781009D02*
X188245595Y-111876247D01*
X124238095Y-83254819D02*
X124238095Y-82254819D01*
X124238095Y-82731009D02*
X124809523Y-82731009D01*
X124809523Y-83254819D02*
X124809523Y-82254819D01*
X125809523Y-83254819D02*
X125238095Y-83254819D01*
X125523809Y-83254819D02*
X125523809Y-82254819D01*
X125523809Y-82254819D02*
X125428571Y-82397676D01*
X125428571Y-82397676D02*
X125333333Y-82492914D01*
X125333333Y-82492914D02*
X125238095Y-82540533D01*
X158056779Y-63034819D02*
X158056779Y-63844342D01*
X158056779Y-63844342D02*
X158104398Y-63939580D01*
X158104398Y-63939580D02*
X158152017Y-63987200D01*
X158152017Y-63987200D02*
X158247255Y-64034819D01*
X158247255Y-64034819D02*
X158437731Y-64034819D01*
X158437731Y-64034819D02*
X158532969Y-63987200D01*
X158532969Y-63987200D02*
X158580588Y-63939580D01*
X158580588Y-63939580D02*
X158628207Y-63844342D01*
X158628207Y-63844342D02*
X158628207Y-63034819D01*
X159532969Y-63368152D02*
X159532969Y-64034819D01*
X159294874Y-62987200D02*
X159056779Y-63701485D01*
X159056779Y-63701485D02*
X159675826Y-63701485D01*
X197234819Y-75436666D02*
X196758628Y-75769999D01*
X197234819Y-76008094D02*
X196234819Y-76008094D01*
X196234819Y-76008094D02*
X196234819Y-75627142D01*
X196234819Y-75627142D02*
X196282438Y-75531904D01*
X196282438Y-75531904D02*
X196330057Y-75484285D01*
X196330057Y-75484285D02*
X196425295Y-75436666D01*
X196425295Y-75436666D02*
X196568152Y-75436666D01*
X196568152Y-75436666D02*
X196663390Y-75484285D01*
X196663390Y-75484285D02*
X196711009Y-75531904D01*
X196711009Y-75531904D02*
X196758628Y-75627142D01*
X196758628Y-75627142D02*
X196758628Y-76008094D01*
X196568152Y-74579523D02*
X197234819Y-74579523D01*
X196187200Y-74817618D02*
X196901485Y-75055713D01*
X196901485Y-75055713D02*
X196901485Y-74436666D01*
D12*
X195256666Y-112147419D02*
X195256666Y-112861704D01*
X195256666Y-112861704D02*
X195209047Y-113004561D01*
X195209047Y-113004561D02*
X195113809Y-113099800D01*
X195113809Y-113099800D02*
X194970952Y-113147419D01*
X194970952Y-113147419D02*
X194875714Y-113147419D01*
X196256666Y-113147419D02*
X195685238Y-113147419D01*
X195970952Y-113147419D02*
X195970952Y-112147419D01*
X195970952Y-112147419D02*
X195875714Y-112290276D01*
X195875714Y-112290276D02*
X195780476Y-112385514D01*
X195780476Y-112385514D02*
X195685238Y-112433133D01*
D11*
X194624819Y-86348094D02*
X193624819Y-86348094D01*
X193624819Y-86348094D02*
X193624819Y-86109999D01*
X193624819Y-86109999D02*
X193672438Y-85967142D01*
X193672438Y-85967142D02*
X193767676Y-85871904D01*
X193767676Y-85871904D02*
X193862914Y-85824285D01*
X193862914Y-85824285D02*
X194053390Y-85776666D01*
X194053390Y-85776666D02*
X194196247Y-85776666D01*
X194196247Y-85776666D02*
X194386723Y-85824285D01*
X194386723Y-85824285D02*
X194481961Y-85871904D01*
X194481961Y-85871904D02*
X194577200Y-85967142D01*
X194577200Y-85967142D02*
X194624819Y-86109999D01*
X194624819Y-86109999D02*
X194624819Y-86348094D01*
X193720057Y-85395713D02*
X193672438Y-85348094D01*
X193672438Y-85348094D02*
X193624819Y-85252856D01*
X193624819Y-85252856D02*
X193624819Y-85014761D01*
X193624819Y-85014761D02*
X193672438Y-84919523D01*
X193672438Y-84919523D02*
X193720057Y-84871904D01*
X193720057Y-84871904D02*
X193815295Y-84824285D01*
X193815295Y-84824285D02*
X193910533Y-84824285D01*
X193910533Y-84824285D02*
X194053390Y-84871904D01*
X194053390Y-84871904D02*
X194624819Y-85443332D01*
X194624819Y-85443332D02*
X194624819Y-84824285D01*
X197064819Y-67656666D02*
X196588628Y-67989999D01*
X197064819Y-68228094D02*
X196064819Y-68228094D01*
X196064819Y-68228094D02*
X196064819Y-67847142D01*
X196064819Y-67847142D02*
X196112438Y-67751904D01*
X196112438Y-67751904D02*
X196160057Y-67704285D01*
X196160057Y-67704285D02*
X196255295Y-67656666D01*
X196255295Y-67656666D02*
X196398152Y-67656666D01*
X196398152Y-67656666D02*
X196493390Y-67704285D01*
X196493390Y-67704285D02*
X196541009Y-67751904D01*
X196541009Y-67751904D02*
X196588628Y-67847142D01*
X196588628Y-67847142D02*
X196588628Y-68228094D01*
X196064819Y-66751904D02*
X196064819Y-67228094D01*
X196064819Y-67228094D02*
X196541009Y-67275713D01*
X196541009Y-67275713D02*
X196493390Y-67228094D01*
X196493390Y-67228094D02*
X196445771Y-67132856D01*
X196445771Y-67132856D02*
X196445771Y-66894761D01*
X196445771Y-66894761D02*
X196493390Y-66799523D01*
X196493390Y-66799523D02*
X196541009Y-66751904D01*
X196541009Y-66751904D02*
X196636247Y-66704285D01*
X196636247Y-66704285D02*
X196874342Y-66704285D01*
X196874342Y-66704285D02*
X196969580Y-66751904D01*
X196969580Y-66751904D02*
X197017200Y-66799523D01*
X197017200Y-66799523D02*
X197064819Y-66894761D01*
X197064819Y-66894761D02*
X197064819Y-67132856D01*
X197064819Y-67132856D02*
X197017200Y-67228094D01*
X197017200Y-67228094D02*
X196969580Y-67275713D01*
X190647200Y-75263332D02*
X190694819Y-75120475D01*
X190694819Y-75120475D02*
X190694819Y-74882380D01*
X190694819Y-74882380D02*
X190647200Y-74787142D01*
X190647200Y-74787142D02*
X190599580Y-74739523D01*
X190599580Y-74739523D02*
X190504342Y-74691904D01*
X190504342Y-74691904D02*
X190409104Y-74691904D01*
X190409104Y-74691904D02*
X190313866Y-74739523D01*
X190313866Y-74739523D02*
X190266247Y-74787142D01*
X190266247Y-74787142D02*
X190218628Y-74882380D01*
X190218628Y-74882380D02*
X190171009Y-75072856D01*
X190171009Y-75072856D02*
X190123390Y-75168094D01*
X190123390Y-75168094D02*
X190075771Y-75215713D01*
X190075771Y-75215713D02*
X189980533Y-75263332D01*
X189980533Y-75263332D02*
X189885295Y-75263332D01*
X189885295Y-75263332D02*
X189790057Y-75215713D01*
X189790057Y-75215713D02*
X189742438Y-75168094D01*
X189742438Y-75168094D02*
X189694819Y-75072856D01*
X189694819Y-75072856D02*
X189694819Y-74834761D01*
X189694819Y-74834761D02*
X189742438Y-74691904D01*
X189694819Y-74358570D02*
X190694819Y-74120475D01*
X190694819Y-74120475D02*
X189980533Y-73929999D01*
X189980533Y-73929999D02*
X190694819Y-73739523D01*
X190694819Y-73739523D02*
X189694819Y-73501428D01*
X190694819Y-72596666D02*
X190694819Y-73168094D01*
X190694819Y-72882380D02*
X189694819Y-72882380D01*
X189694819Y-72882380D02*
X189837676Y-72977618D01*
X189837676Y-72977618D02*
X189932914Y-73072856D01*
X189932914Y-73072856D02*
X189980533Y-73168094D01*
X197139580Y-72096666D02*
X197187200Y-72144285D01*
X197187200Y-72144285D02*
X197234819Y-72287142D01*
X197234819Y-72287142D02*
X197234819Y-72382380D01*
X197234819Y-72382380D02*
X197187200Y-72525237D01*
X197187200Y-72525237D02*
X197091961Y-72620475D01*
X197091961Y-72620475D02*
X196996723Y-72668094D01*
X196996723Y-72668094D02*
X196806247Y-72715713D01*
X196806247Y-72715713D02*
X196663390Y-72715713D01*
X196663390Y-72715713D02*
X196472914Y-72668094D01*
X196472914Y-72668094D02*
X196377676Y-72620475D01*
X196377676Y-72620475D02*
X196282438Y-72525237D01*
X196282438Y-72525237D02*
X196234819Y-72382380D01*
X196234819Y-72382380D02*
X196234819Y-72287142D01*
X196234819Y-72287142D02*
X196282438Y-72144285D01*
X196282438Y-72144285D02*
X196330057Y-72096666D01*
X196234819Y-71191904D02*
X196234819Y-71668094D01*
X196234819Y-71668094D02*
X196711009Y-71715713D01*
X196711009Y-71715713D02*
X196663390Y-71668094D01*
X196663390Y-71668094D02*
X196615771Y-71572856D01*
X196615771Y-71572856D02*
X196615771Y-71334761D01*
X196615771Y-71334761D02*
X196663390Y-71239523D01*
X196663390Y-71239523D02*
X196711009Y-71191904D01*
X196711009Y-71191904D02*
X196806247Y-71144285D01*
X196806247Y-71144285D02*
X197044342Y-71144285D01*
X197044342Y-71144285D02*
X197139580Y-71191904D01*
X197139580Y-71191904D02*
X197187200Y-71239523D01*
X197187200Y-71239523D02*
X197234819Y-71334761D01*
X197234819Y-71334761D02*
X197234819Y-71572856D01*
X197234819Y-71572856D02*
X197187200Y-71668094D01*
X197187200Y-71668094D02*
X197139580Y-71715713D01*
D13*
%TO.C,J2*%
X196180000Y-108430000D02*
X194480000Y-108430000D01*
X196180000Y-99090000D02*
X194480000Y-99090000D01*
%TO.C,U2*%
D12*
X183863301Y-109897334D02*
X101863301Y-109897334D01*
X101863301Y-59897334D01*
X183863301Y-59897334D01*
X183863301Y-109897334D01*
D13*
%TO.C,J3*%
X106590000Y-112110000D02*
X106590000Y-114770000D01*
X119350000Y-112110000D02*
X106590000Y-112110000D01*
X119350000Y-112110000D02*
X119350000Y-114770000D01*
X119350000Y-114770000D02*
X106590000Y-114770000D01*
X121950000Y-113440000D02*
X121950000Y-114770000D01*
X121950000Y-114770000D02*
X120620000Y-114770000D01*
%TO.C,SW3*%
X186940000Y-91190000D02*
X186940000Y-95690000D01*
X189440000Y-96940000D02*
X190940000Y-96940000D01*
X190940000Y-89940000D02*
X189440000Y-89940000D01*
X193440000Y-95690000D02*
X193440000Y-91190000D01*
%TO.C,R13*%
X194967500Y-89422258D02*
X194967500Y-88947742D01*
X196012500Y-89422258D02*
X196012500Y-88947742D01*
%TO.C,C6*%
X194400000Y-63933733D02*
X194400000Y-64226267D01*
X195420000Y-63933733D02*
X195420000Y-64226267D01*
%TO.C,D1*%
X194810000Y-80920000D02*
X194810000Y-83605000D01*
X194810000Y-83605000D02*
X196730000Y-83605000D01*
X196730000Y-83605000D02*
X196730000Y-80920000D01*
%TO.C,R14*%
X196247500Y-78322742D02*
X196247500Y-78797258D01*
X197292500Y-78322742D02*
X197292500Y-78797258D01*
%TO.C,SW4*%
X186980000Y-81370000D02*
X186980000Y-85870000D01*
X189480000Y-87120000D02*
X190980000Y-87120000D01*
X190980000Y-80120000D02*
X189480000Y-80120000D01*
X193480000Y-85870000D02*
X193480000Y-81370000D01*
%TO.C,U7*%
X187977500Y-101690000D02*
X187177500Y-101690000D01*
X187977500Y-101690000D02*
X188777500Y-101690000D01*
X187977500Y-104810000D02*
X187177500Y-104810000D01*
X187977500Y-104810000D02*
X188777500Y-104810000D01*
X189517500Y-105090000D02*
X189037500Y-105090000D01*
X189277500Y-104760000D01*
X189517500Y-105090000D01*
G36*
X189517500Y-105090000D02*
G01*
X189037500Y-105090000D01*
X189277500Y-104760000D01*
X189517500Y-105090000D01*
G37*
%TO.C,SW2*%
X186990000Y-61960000D02*
X186990000Y-66460000D01*
X189490000Y-67710000D02*
X190990000Y-67710000D01*
X190990000Y-60710000D02*
X189490000Y-60710000D01*
X193490000Y-66460000D02*
X193490000Y-61960000D01*
%TO.C,U6*%
X188007500Y-107890000D02*
X187207500Y-107890000D01*
X188007500Y-107890000D02*
X188807500Y-107890000D01*
X188007500Y-111010000D02*
X187207500Y-111010000D01*
X188007500Y-111010000D02*
X188807500Y-111010000D01*
X189547500Y-111290000D02*
X189067500Y-111290000D01*
X189307500Y-110960000D01*
X189547500Y-111290000D01*
G36*
X189547500Y-111290000D02*
G01*
X189067500Y-111290000D01*
X189307500Y-110960000D01*
X189547500Y-111290000D01*
G37*
%TO.C,U4*%
X148520000Y-78370000D02*
X148520000Y-77420000D01*
X149920000Y-78370000D02*
X148520000Y-78370000D01*
X165520000Y-78370000D02*
X166920000Y-78370000D01*
X166920000Y-78370000D02*
X166920000Y-77420000D01*
X148520000Y-59420000D02*
X148020000Y-59420000D01*
X148520000Y-58920000D01*
X148520000Y-59420000D01*
G36*
X148520000Y-59420000D02*
G01*
X148020000Y-59420000D01*
X148520000Y-58920000D01*
X148520000Y-59420000D01*
G37*
%TO.C,R4*%
X194647500Y-75032742D02*
X194647500Y-75507258D01*
X195692500Y-75032742D02*
X195692500Y-75507258D01*
%TO.C,J1*%
X191830000Y-111030000D02*
X192250000Y-111030000D01*
X191830000Y-113010000D02*
X191830000Y-111030000D01*
X191830000Y-115380000D02*
X191830000Y-114980000D01*
X193830000Y-110800000D02*
X193830000Y-110350000D01*
X194280000Y-110350000D02*
X193830000Y-110350000D01*
X199350000Y-111030000D02*
X198930000Y-111030000D01*
X199350000Y-113010000D02*
X199350000Y-111030000D01*
X199350000Y-114980000D02*
X199350000Y-115380000D01*
%TO.C,D2*%
X194780000Y-83975000D02*
X194780000Y-86660000D01*
X196700000Y-83975000D02*
X194780000Y-83975000D01*
X196700000Y-86660000D02*
X196700000Y-83975000D01*
%TO.C,R5*%
X194407500Y-67252742D02*
X194407500Y-67727258D01*
X195452500Y-67252742D02*
X195452500Y-67727258D01*
%TO.C,SW1*%
X186990000Y-71680000D02*
X186990000Y-76180000D01*
X189490000Y-77430000D02*
X190990000Y-77430000D01*
X190990000Y-70430000D02*
X189490000Y-70430000D01*
X193490000Y-76180000D02*
X193490000Y-71680000D01*
%TO.C,C5*%
X194660000Y-71783733D02*
X194660000Y-72076267D01*
X195680000Y-71783733D02*
X195680000Y-72076267D01*
%TD*%
D14*
X193175000Y-108080000D03*
D15*
X197155000Y-108080000D03*
D14*
X193175000Y-99440000D03*
D15*
X197155000Y-99440000D03*
D16*
X174500000Y-87000000D03*
X180913657Y-106997511D03*
X180913301Y-62897334D03*
X105020000Y-62910000D03*
X105013657Y-106997511D03*
X103414929Y-68402054D03*
X103414929Y-70942054D03*
X103414929Y-73482054D03*
X103414929Y-76022054D03*
X103414929Y-78562054D03*
X103414929Y-81102054D03*
X103414929Y-83642054D03*
X103414929Y-86182054D03*
X103414929Y-88722054D03*
X103414929Y-91262054D03*
X103414929Y-93802054D03*
X103414929Y-96342054D03*
X103414929Y-98882054D03*
X103414929Y-101422054D03*
X181513301Y-81102334D03*
X181513301Y-83642334D03*
X181513301Y-86182334D03*
X181513301Y-88722334D03*
X120620000Y-113440000D03*
X118080000Y-113440000D03*
X115540000Y-113440000D03*
X113000000Y-113440000D03*
X110460000Y-113440000D03*
X107920000Y-113440000D03*
X192440000Y-90190000D03*
X192440000Y-96690000D03*
X187940000Y-90190000D03*
X187940000Y-96690000D03*
X192480000Y-80370000D03*
X192480000Y-86870000D03*
X187980000Y-80370000D03*
X187980000Y-86870000D03*
X187990000Y-67460000D03*
X187990000Y-60960000D03*
X192490000Y-67460000D03*
X192490000Y-60960000D03*
X125000000Y-87000000D03*
D17*
X154820000Y-67180000D03*
X154820000Y-68580000D03*
X155520000Y-66480000D03*
X155520000Y-67880000D03*
X155520000Y-69280000D03*
X156220000Y-67180000D03*
X156220000Y-68580000D03*
X156920000Y-66480000D03*
X156920000Y-67880000D03*
X156920000Y-69280000D03*
X157620000Y-67180000D03*
X157620000Y-68580000D03*
D18*
X192090000Y-113990000D03*
D19*
X193090000Y-111290000D03*
X198090000Y-111290000D03*
D18*
X199090000Y-113990000D03*
D16*
X187990000Y-77180000D03*
X187990000Y-70680000D03*
X192490000Y-77180000D03*
X192490000Y-70680000D03*
X124170000Y-64840000D03*
X124170000Y-62300000D03*
X121630000Y-64840000D03*
X121630000Y-62300000D03*
X119090000Y-64840000D03*
X119090000Y-62300000D03*
X116550000Y-64840000D03*
X116550000Y-62300000D03*
M02*
